<svg width="37" height="49" viewBox="0 0 37 49" fill="none" xmlns="http://www.w3.org/2000/svg">
<rect x="3" y="41" width="21" height="7" fill="#FF3333"/>
<path d="M0 10.2964C0 8.23712 1.77812 6.38376 4.22303 6.38376C4.88982 6.38376 5.55662 6.58969 6.22341 6.79562V5.56005C6.22341 3.50077 8.00153 1.64742 10.4464 1.64742C11.3355 1.64742 12.2246 1.85335 12.8914 2.26521C13.5581 0.823712 14.8917 0 16.6699 0C18.6702 0 20.4484 1.4415 20.6706 3.29485C21.3374 2.88299 22.0042 2.67706 22.8933 2.67706C25.1159 2.67706 27.1163 4.32449 27.1163 6.58969V23.0639C27.7831 22.4461 28.4499 21.4165 29.5612 20.3869C30.4503 19.1513 31.7839 18.5335 33.1174 18.5335C34.451 18.5335 35.7846 19.1513 36.4514 20.1809C37.3405 21.4165 37.1182 23.0639 36.0069 24.7113C35.5624 25.5351 34.8956 26.7706 34.2288 27.8003L34.0065 28.0062C30.8948 33.5662 28.2276 37.8907 26.005 39.3322V47.9704C26.005 48.5881 25.5604 49 24.8936 49H3.11171C2.44491 49 2.00038 48.5881 2.00038 47.9704V39.1263C0 36.2433 0 29.6536 0 23.2699C0 23.0639 0 22.858 0 22.6521V10.2964ZM7.557 42.2694C8.2238 42.2694 8.66833 42.6813 8.66833 43.299V47.1467H10.891V43.299C10.891 42.6813 11.3355 42.2694 12.0023 42.2694C12.6691 42.2694 13.1136 42.6813 13.1136 43.299V47.1467H15.3363V43.299C15.3363 42.6813 15.7808 42.2694 16.4476 42.2694C17.1144 42.2694 17.3366 42.6813 17.3366 43.299V47.1467H19.5593V43.299C19.5593 42.6813 20.0038 42.2694 20.6706 42.2694C21.3374 42.2694 21.7819 42.6813 21.7819 43.299V47.1467H24.0046V38.9204C24.0046 38.5085 24.2269 38.0967 24.6714 37.8907C24.8936 37.6848 25.7827 37.2729 28.0054 34.184C29.3389 32.1248 30.8948 29.4477 32.2284 27.1825C32.8952 25.9469 33.7842 24.7113 34.2288 23.6817C34.8956 22.6521 34.8956 21.8284 34.6733 21.2106C34.2288 20.7987 33.7842 20.5928 33.1174 20.5928C32.4506 20.5928 31.5616 21.0046 30.8948 21.8284C29.3389 23.6817 27.7831 25.3291 26.6718 26.5647C26.4495 26.9766 25.7827 26.9766 25.3382 26.7706C24.8936 26.5647 24.6714 26.1528 24.6714 25.741V6.58969C24.6714 5.56005 23.7823 4.73634 22.671 4.73634C21.5597 4.73634 20.6706 5.56005 20.6706 6.58969V18.5335C20.6706 19.1513 20.2261 19.5632 19.5593 19.5632C18.8925 19.5632 18.448 19.1513 18.448 18.5335V3.91263C18.6702 2.88299 17.7812 2.05928 16.6699 2.05928C15.5585 2.05928 14.6695 2.88299 14.6695 3.91263V18.7394C14.6695 19.3572 14.2249 19.7691 13.5581 19.7691C12.8914 19.7691 12.4468 19.3572 12.4468 18.7394V5.56005C12.4468 4.53041 11.5578 3.7067 10.4464 3.7067C9.33512 3.7067 8.44606 4.53041 8.44606 5.56005V18.7394C8.44606 19.3572 8.00153 19.7691 7.33473 19.7691C6.66794 19.7691 6.22341 19.3572 6.22341 18.7394V10.2964C6.22341 9.26676 5.33435 8.44304 4.22303 8.44304C3.11171 8.44304 2.22265 9.26676 2.22265 10.2964V22.2402C2.22265 22.6521 2.22265 22.858 2.22265 23.2699C2.22265 27.5943 2.22265 35.4196 4.00076 38.0967C4.00076 38.0967 4.00076 38.0967 4.00076 38.3026C4.22303 38.7144 4.22303 38.9204 4.22303 39.1263V47.1467H6.44568V43.299C6.44568 42.6813 6.89021 42.2694 7.557 42.2694ZM20.6706 30.2714C20.6706 29.6536 20.2261 29.2418 19.7816 29.2418C16.2253 28.8299 9.33512 29.2418 7.11247 29.4477C6.44568 29.4477 6.22341 30.0655 6.22341 30.4773C6.22341 30.8892 6.66794 31.301 7.33473 31.301C7.33473 31.301 7.33474 31.301 7.557 31.301C9.77965 31.0951 16.2253 30.6833 19.7816 31.0951C20.0038 31.0951 20.6706 30.6833 20.6706 30.2714ZM20.6706 26.5647C20.6706 25.9469 20.2261 25.5351 19.7816 25.5351C16.2253 25.1232 9.33512 25.5351 7.11247 25.741C6.44568 25.741 6.22341 26.3588 6.22341 26.7706C6.22341 27.1825 6.66794 27.5943 7.33473 27.5943C7.33473 27.5943 7.33474 27.5943 7.557 27.5943C9.77965 27.3884 16.2253 26.9766 19.7816 27.3884C20.0038 27.5943 20.6706 27.1825 20.6706 26.5647ZM6.22341 34.184C6.22341 34.5959 6.66794 35.0077 7.33473 35.0077C7.33473 35.0077 7.33474 35.0077 7.557 35.0077C9.77965 34.8018 16.2253 34.39 19.7816 34.8018C20.4484 34.8018 20.8929 34.39 20.8929 33.9781C20.8929 33.5662 20.4484 32.9485 20.0038 32.9485C16.4476 32.5366 9.55738 32.9485 7.33473 33.1544C6.44567 33.1544 6.00115 33.7722 6.22341 34.184Z" fill="black"/>
</svg>
