<svg width="160" height="49" viewBox="0 0 160 49" fill="none" xmlns="http://www.w3.org/2000/svg">
<path d="M39.9149 12.7654C39.4893 13.191 39.4893 13.8293 39.9149 14.1484C40.3404 14.5739 40.9787 14.5739 41.2978 14.1484C41.7234 13.7229 41.7234 13.0846 41.2978 12.7654C40.8723 12.3399 40.234 12.3399 39.9149 12.7654Z" fill="#FEFEFE"/>
<path d="M49.7021 12.1279H45.4468L44.383 13.4045C44.1702 13.6173 44.2766 13.7237 44.4893 13.8301L45.8723 14.4684L49.8085 12.6598C50.1276 12.5535 50.0212 12.1279 49.7021 12.1279ZM33.851 32.979H28.6383C27.2553 33.8301 26.8298 34.0428 25.0212 34.7875C24.9149 34.7875 24.8085 35.0003 24.9149 35.1067L29.5957 48.1918H32.2553L28 36.1705C30.7659 36.1705 37.4681 35.4258 41.0851 29.5747C39.9149 31.2769 37.2553 32.979 33.851 32.979ZM41.2978 14.1492C40.8723 14.5747 40.234 14.5747 39.9149 14.1492C39.4893 13.7237 39.4893 13.0854 39.9149 12.7662C40.3404 12.3407 40.9787 12.3407 41.2978 12.7662C40.4468 11.9152 39.0638 11.9152 38.3191 12.7662C37.5744 13.6173 37.4681 14.8939 38.3191 15.745C39.1702 16.596 40.5532 16.596 41.2978 15.745C42.0425 14.8939 42.1489 13.6173 41.2978 12.7662C41.617 13.1918 41.617 13.7237 41.2978 14.1492ZM30.9787 37.979L34.5957 48.1918H37.2553L33.4255 37.4471C32.7872 37.6598 31.9361 37.7662 30.9787 37.979ZM34.5957 25.213C34.9149 24.7875 35.1276 24.362 35.4468 23.8301C35.3404 23.7237 35.234 23.8301 35.1276 23.9364C29.7021 29.6811 24.4893 30.4258 20.4468 30.4258H14.2766C14.0638 30.4258 13.9574 30.213 14.0638 30.0003C18.851 23.4045 24.0638 18.1918 28 14.8939L17.6808 23.5109C16.8298 24.1492 15.8723 24.5747 14.5957 24.5747H1.61699C1.29785 24.5747 1.40423 24.8939 1.40423 25.1067C2.25529 27.8726 4.80848 30.4258 9.0638 30.4258L5.9787 33.5109C5.87231 33.6173 5.87231 33.9364 6.19146 33.9364H17.7872C26.0851 33.9364 31.2978 30.3194 34.5957 25.213Z" fill="#00985F"/>
<path d="M150.341 48.1915H159.809V18.9362H150.341V29.6809H141.404V18.9362H131.936V48.1915H141.404V37.1277H150.341V48.1915ZM38.3193 15.7447C37.4682 14.8936 37.4682 13.617 38.3193 12.766C39.1704 11.9149 40.5533 11.9149 41.298 12.766C42.0427 13.617 42.1491 14.8936 41.298 15.7447C40.447 16.5957 39.064 16.5957 38.3193 15.7447ZM40.9789 29.5745C44.5959 23.7234 45.8725 14.4681 45.8725 14.4681L44.4895 13.8298C44.2767 13.7234 44.2768 13.617 44.3831 13.4043L45.447 12.1277C44.8087 10.8511 42.4682 8.7234 39.064 8.7234C37.0427 8.7234 35.2342 9.25532 33.6385 10.3191C33.6385 10.3191 31.298 11.9149 28.0002 14.7872C24.064 18.1915 18.8512 23.2979 14.064 29.8936C13.9576 30.1064 14.064 30.3191 14.2768 30.3191H20.447C24.4895 30.3191 29.7023 29.5745 35.1278 23.8298C35.2342 23.7234 35.3406 23.7234 35.447 23.7234C35.5533 23.8298 35.5533 23.9362 35.5533 24.0426C34.7023 26.1702 32.5746 30.3191 28.6385 32.8723H33.8512C37.3619 32.8723 39.915 31.2766 40.9789 29.5745ZM35.6597 36.5957L39.7023 48.0851H51.1916C48.8512 40.9574 46.298 34.3617 43.8512 28.2979C41.9363 32.4468 40.1278 34.4681 35.6597 36.5957ZM0.766113 48.1915H12.3619L16.298 35.9574H5.02143C3.63845 39.5745 2.25547 43.617 0.766113 48.1915ZM16.4044 21.9149L22.2555 17.1277C23.5321 13.7234 24.8087 10.3191 26.0853 7.44681C26.7236 8.93617 27.3619 10.5319 28.0002 12.1277C31.1916 9.46808 33.2129 7.87234 35.8725 7.12766C34.2768 3.61702 33.1065 1.06383 32.5746 0H19.5959C18.5321 2.34043 14.3831 10.9574 9.48952 22.5532H14.1704C15.1278 22.5532 15.8725 22.4468 16.4044 21.9149ZM88.1065 44.8936L88.7448 48.0851H96.4044V18.9362H86.9363V39.2553C86.0853 40.2128 84.4895 41.2766 83.0002 41.2766C80.3406 41.2766 78.9576 39.7872 78.9576 37.0213V18.9362H69.4895V39.2553C68.6385 40.2128 66.8299 41.2766 65.2342 41.2766C62.7874 41.2766 61.4044 39.7872 61.4044 37.0213V18.9362H51.9363V38.2979C51.9363 45.3191 55.0214 48.8298 61.4044 48.8298C65.9789 48.8298 68.7448 47.1277 70.8725 44.8936C72.3619 47.5532 75.0214 48.8298 78.9576 48.8298C83.5321 48.7234 86.0853 47.1277 88.1065 44.8936ZM118.213 39.1489C117.362 40.1064 115.979 41.1702 113.638 41.1702C111.085 41.1702 109.702 38.8298 109.702 34.2553C109.702 28.617 111.192 25.8511 114.277 25.8511C116.085 25.8511 116.936 25.9574 118.213 26.2766V39.1489ZM110.341 48.7234H110.66C114.915 48.7234 117.787 47.234 119.383 44.8936L119.915 48.0851H127.681V20.1064C124.596 19.1489 120.979 18.2979 114.383 18.2979C104.915 18.2979 99.8087 24.0426 99.8087 34.6809C99.8087 44.4681 103.426 48.7234 110.341 48.7234Z" fill="#DC000F"/>
</svg>
