<svg width="148" height="64" viewBox="0 0 148 64" fill="none" xmlns="http://www.w3.org/2000/svg">
<path fill-rule="evenodd" clip-rule="evenodd" d="M147.085 0H0.54248V63.7116H147.085V0Z" fill="#004B8D"/>
<path fill-rule="evenodd" clip-rule="evenodd" d="M12.1406 21.0371H22.8218L26.649 30.9928L30.6096 21.0371H41.2574V42.7079H35.5041V27.4491L30.0926 42.7079H23.0719L17.7772 27.4491V42.7079H12.1406V21.0371Z" fill="#FFF100"/>
<path fill-rule="evenodd" clip-rule="evenodd" d="M116.801 21.0205C115.677 21.0205 114.6 21.4668 113.806 22.2611C113.011 23.0555 112.565 24.1329 112.565 25.2563V38.5222C112.565 40.8569 114.808 42.6913 117.151 42.6913H131.001C132.15 42.6992 133.258 42.2631 134.094 41.474C134.93 40.6848 135.428 39.6035 135.486 38.4555V25.2563C135.484 24.1321 135.036 23.0547 134.24 22.2606C133.445 21.4665 132.367 21.0205 131.242 21.0205H116.801ZM120.353 26.8572H127.857C127.988 26.8561 128.118 26.8809 128.239 26.9303C128.361 26.9797 128.471 27.0526 128.564 27.1449C128.657 27.2371 128.731 27.3469 128.781 27.4678C128.832 27.5887 128.858 27.7184 128.858 27.8494V35.829C128.858 36.0944 128.752 36.3489 128.565 36.5365C128.377 36.7242 128.122 36.8296 127.857 36.8296H120.353C120.222 36.8296 120.092 36.8037 119.971 36.7533C119.85 36.7029 119.74 36.6291 119.648 36.536C119.556 36.443 119.483 36.3326 119.434 36.2113C119.384 36.0899 119.359 35.96 119.361 35.829V27.8161C119.361 27.5529 119.465 27.3005 119.651 27.1145C119.837 26.9284 120.09 26.8238 120.353 26.8238V26.8572Z" fill="#FFF100"/>
<path fill-rule="evenodd" clip-rule="evenodd" d="M44.668 21.0117H63.6872V25.5643H51.7554V29.3749H63.6872V33.9358H51.7554V37.9381H63.6872V42.6825H44.668V21.0117Z" fill="#FFF100"/>
<path fill-rule="evenodd" clip-rule="evenodd" d="M65.8135 21.0117H85.3914V25.5643H79.1712V42.6825H71.8336V25.5643H65.8135V21.0117Z" fill="#FFF100"/>
<path fill-rule="evenodd" clip-rule="evenodd" d="M87.5093 21.0117V42.6908H94.9135V34.3527H98.3405L102.693 42.6908H110.531C110.531 42.6908 105.978 35.1865 105.403 34.3527C106.508 34.3518 107.592 34.049 108.538 33.4772C109.034 33.138 109.447 32.6926 109.749 32.1733C110.05 31.654 110.232 31.074 110.281 30.4755V25.5977C110.269 24.5836 109.98 23.5919 109.447 22.7294C109.059 22.2116 108.555 21.7913 107.976 21.5019C107.397 21.2124 106.759 21.0617 106.112 21.0617L87.5093 21.0117ZM94.9135 25.7144H103.252C103.429 25.7229 103.603 25.7594 103.769 25.8228C104.202 26.073 104.135 26.8984 104.135 27.6655C104.182 28.2286 104.117 28.7954 103.944 29.3332C103.802 29.5083 103.368 29.5416 103.052 29.5416H94.9385V25.7144H94.9135Z" fill="#FFF100"/>
</svg>
