<svg width="296" height="44" viewBox="0 0 296 44" fill="none" xmlns="http://www.w3.org/2000/svg">
<path fill-rule="evenodd" clip-rule="evenodd" d="M13.5181 0.425781H0.255371L15.4947 21.8056L0.255371 43.2588H13.5181L28.7628 21.8056L13.5181 0.425781Z" fill="#F78F1E"/>
<path d="M30.3705 10.0078H36.7375L41.6332 17.9833L46.6992 10.0078H52.7088L44.7119 21.9238L53.4077 34.9759H46.8705L41.4226 26.3365L35.8619 34.9759H29.7056L38.4183 21.8908L30.3705 10.0078Z" fill="black"/>
<path d="M60.5478 14.1323L59.5701 19.6983L59.6435 19.7664C60.3254 19.0908 61.0467 18.6015 61.8137 18.3121C62.5808 18.0153 63.4552 17.8749 64.4318 17.8749C65.6478 17.8749 66.7201 18.0962 67.652 18.5387C68.5829 18.9823 69.3733 19.5728 70.0148 20.3164C70.6563 21.06 71.1457 21.9345 71.485 22.9525C71.8265 23.9642 71.9967 25.0366 71.9967 26.1781C71.9967 27.4451 71.7467 28.6089 71.2584 29.6834C70.7712 30.7685 70.1052 31.71 69.2818 32.5004C68.4467 33.2951 67.4871 33.8972 66.3967 34.3281C65.2957 34.7611 64.1361 34.9653 62.8978 34.9419C61.7052 34.9419 60.5691 34.7834 59.485 34.4664C58.4052 34.1536 57.4457 33.6696 56.6052 33.0228C55.7637 32.3642 55.0946 31.5589 54.5946 30.5919C54.0946 29.627 53.8329 28.5015 53.8105 27.2185H58.7754C58.8893 28.3377 59.3084 29.2291 60.0361 29.8866C60.752 30.5525 61.6723 30.8877 62.7914 30.8877C63.4446 30.8877 64.035 30.7557 64.552 30.4898C65.0797 30.2217 65.5233 29.8759 65.8861 29.444C66.2435 29.0132 66.5223 28.5132 66.7212 27.9451C66.9254 27.3717 67.0222 26.7855 67.0222 26.1845C67.0222 25.56 66.9254 24.9642 66.7371 24.4079C66.5563 23.8557 66.2722 23.3685 65.9031 22.9483C65.5276 22.527 65.0903 22.1983 64.568 21.9717C64.0574 21.7376 63.4669 21.6302 62.7903 21.6302C61.9042 21.6302 61.1829 21.7781 60.6265 22.0962C60.0584 22.4142 59.5361 22.9036 59.0478 23.5845H54.5776L56.9914 10.043H70.6691V14.1334H60.5478" fill="black"/>
<path d="M87.9639 10.0078C88.9852 10.0078 89.9575 10.128 90.8831 10.3897C91.7969 10.644 92.6033 11.0302 93.2916 11.5642C93.9788 12.0876 94.5245 12.7621 94.9331 13.5865C95.3363 14.4153 95.5469 15.3929 95.5469 16.5174C95.5469 18.1014 95.1384 19.4823 94.3203 20.6397C93.5011 21.8057 92.2969 22.5482 90.6852 22.878V22.9525C91.5033 23.0706 92.1788 23.2823 92.7182 23.595C93.2522 23.9121 93.6948 24.3099 94.0362 24.7993C94.3714 25.2993 94.615 25.8557 94.7682 26.5036C94.9214 27.1397 95.0182 27.8323 95.0692 28.5759C95.0916 28.9961 95.115 29.5078 95.1373 30.1153C95.1597 30.7238 95.2043 31.3312 95.2788 31.9514C95.3405 32.5695 95.4597 33.1546 95.6139 33.694C95.7618 34.2504 95.966 34.6706 96.2214 34.978H93.5852C93.4437 34.7397 93.3352 34.4557 93.2501 34.1206C93.1703 33.7855 93.1139 33.4323 93.0799 33.0706C93.0458 32.7121 93.0118 32.3546 92.9894 32.0025C92.966 31.6493 92.9437 31.3546 92.915 31.0929C92.8692 30.2131 92.8011 29.3323 92.6937 28.4578C92.5852 27.5887 92.3639 26.811 92.0235 26.1227C91.6884 25.4302 91.2001 24.8855 90.5586 24.4642C89.9214 24.0376 89.0416 23.8557 87.9235 23.9014H78.9256V34.977H76.5288V10.0089H87.9639V10.0078ZM87.782 21.8567C88.5033 21.8567 89.1958 21.7482 89.8437 21.527C90.4969 21.3057 91.0703 20.9812 91.5586 20.5663C92.0469 20.1514 92.4341 19.6344 92.7288 19.0493C93.0128 18.4599 93.1554 17.778 93.1554 17.0057C93.1554 15.4674 92.7171 14.2567 91.832 13.3706C90.9511 12.4844 89.6054 12.0461 87.782 12.0461H78.9267V21.8557H87.782V21.8567Z" fill="black"/>
<path d="M116.38 10.0078V12.0472H101.528V21.0376H115.437V23.0833H101.528V32.9312H116.556V34.9759H99.1406V10.0078H116.38Z" fill="black"/>
<path d="M137.645 10.0078V12.0472H128.938V34.9759H126.558V12.0472H117.885V10.0078H137.645Z" fill="black"/>
<path d="M146.448 10.0078L156.229 34.9759H153.684L150.64 27.2057H139.279L136.275 34.9759H133.759L143.79 10.0078H146.448ZM149.84 25.1631L145.013 12.3663L140.019 25.1631H149.84Z" fill="black"/>
<path d="M161.057 9.99707H158.67V34.9758H161.057V9.99707Z" fill="black"/>
<path d="M168.646 10.0078V32.9312H182.629V34.9759H166.258V10.0078H168.646Z" fill="black"/>
<path d="M196.724 35.9213C194.769 35.9213 193.02 35.5735 191.487 34.849C189.977 34.1373 188.698 33.1777 187.682 31.9479C186.669 30.7352 185.907 29.3011 185.395 27.6777C184.879 26.0554 184.625 24.3213 184.625 22.4958C184.625 20.632 184.904 18.8947 185.451 17.2554C186.01 15.616 186.807 14.182 187.843 12.9735C188.882 11.7469 190.156 10.782 191.649 10.0852C193.149 9.38622 194.854 9.03516 196.747 9.03516C198.183 9.03516 199.515 9.24154 200.74 9.64899C201.962 10.0607 203.041 10.6522 203.978 11.4107C204.906 12.1798 205.675 13.0958 206.265 14.1586C206.868 15.2277 207.269 16.4341 207.491 17.7447L207.571 18.2128H207.096H206.054L205.995 17.8798C205.798 16.766 205.435 15.7671 204.915 14.8554C204.387 13.9501 203.738 13.1841 202.945 12.5458C202.154 11.9022 201.241 11.4086 200.198 11.0586C199.165 10.7096 198.011 10.5394 196.745 10.5394C195.046 10.5394 193.552 10.8522 192.251 11.4756C190.934 12.1054 189.83 12.9575 188.927 14.0288C188.017 15.1075 187.321 16.3671 186.847 17.8235C186.371 19.2788 186.135 20.8415 186.135 22.4969C186.135 24.1628 186.366 25.7298 186.822 27.1926C187.268 28.6437 187.94 29.9139 188.838 30.983C189.723 32.0469 190.844 32.8979 192.174 33.533C193.499 34.1511 195.047 34.4724 196.837 34.4724C198.173 34.4724 199.408 34.2426 200.561 33.783C201.73 33.3224 202.749 32.682 203.599 31.8724C204.456 31.0649 205.123 30.0969 205.62 28.9671C206.107 27.8373 206.352 26.6203 206.352 25.2979V24.4043H196.675V24.0043V23.3096V22.9086H207.868V35.366H207.467H206.351L206.363 30.6022C205.631 32.0086 204.598 33.1681 203.282 34.0681C201.456 35.3086 199.267 35.9213 196.741 35.9213C196.739 35.9213 196.733 35.9213 196.724 35.9213Z" fill="black"/>
<path d="M210.301 35.3758H209.901V9.61621H220.541C223.21 9.6194 225.223 10.129 226.556 11.2683C227.883 12.3981 228.536 14.1449 228.594 16.4077C228.598 16.4875 228.598 16.5662 228.598 16.646C228.598 18.2971 228.116 19.7141 227.158 20.8471C226.431 21.7088 225.475 22.3641 224.313 22.8141C224.777 22.9492 225.193 23.1151 225.562 23.3151C226.269 23.7045 226.83 24.2258 227.214 24.879C227.59 25.5109 227.844 26.2524 227.969 27.0949C228.08 27.913 228.138 28.8151 228.138 29.8428C228.138 30.1662 228.16 30.6088 228.178 31.1311C228.2 31.6503 228.239 32.163 228.28 32.6662C228.332 33.1715 228.385 33.6247 228.451 34.0396C228.512 34.4322 228.609 34.6822 228.661 34.7428L229.125 35.379H228.335H227.315L227.208 35.1534C227.055 34.8407 226.956 34.4683 226.875 34.0024C226.807 33.5662 226.749 33.0875 226.718 32.5875C226.688 32.0939 226.653 31.6003 226.645 31.0917C226.633 30.5822 226.624 30.1364 226.624 29.73C226.624 28.7247 226.553 27.8311 226.402 27.0534C226.261 26.3098 225.983 25.7056 225.574 25.2141C225.161 24.7343 224.557 24.3449 223.761 24.0726C222.952 23.8034 221.84 23.6556 220.425 23.6556H211.421V35.3779H211.017H210.301V35.3758ZM220.361 22.1694C221.262 22.1694 222.112 22.0545 222.938 21.8237C223.736 21.6109 224.446 21.2651 225.049 20.7822C225.66 20.3077 226.141 19.7194 226.518 18.9768C226.879 18.2651 227.066 17.3971 227.066 16.3503C227.04 14.6534 226.543 13.4109 225.585 12.4939C224.652 11.6109 223.042 11.1237 220.718 11.1258L211.421 11.1237V22.1705H220.361V22.1694Z" fill="black"/>
<path d="M236.578 34.8486C235.096 34.1337 233.844 33.1624 232.843 31.9284C231.847 30.6943 231.085 29.2645 230.568 27.6305C230.058 26.0114 229.791 24.2922 229.791 22.4826C229.791 20.6699 230.058 18.9465 230.568 17.3294C231.084 15.6933 231.847 14.2656 232.843 13.0337C233.843 11.7965 235.096 10.8167 236.575 10.1018C238.074 9.36774 239.785 9.00391 241.695 9.00391C243.613 9.00391 245.324 9.36774 246.814 10.1018C248.296 10.8167 249.552 11.7975 250.554 13.0337C251.552 14.2656 252.314 15.6933 252.831 17.3262C253.343 18.9465 253.6 20.6699 253.6 22.4826C253.6 24.2901 253.344 26.0071 252.831 27.6305C252.315 29.2645 251.552 30.6943 250.554 31.9284C249.553 33.1624 248.296 34.1337 246.814 34.8486C245.321 35.572 243.613 35.9241 241.695 35.9241C239.787 35.9241 238.077 35.572 236.578 34.8486ZM234.134 31.1273C235.017 32.1773 236.093 33.0007 237.368 33.5986C238.632 34.1858 240.068 34.4816 241.694 34.4816C243.327 34.4816 244.764 34.1869 246.032 33.6018C247.306 33.0007 248.379 32.1773 249.263 31.1305C250.135 30.0805 250.828 28.8209 251.313 27.355C251.8 25.8699 252.056 24.2667 252.079 22.5135C252.056 20.7614 251.8 19.1507 251.313 17.6752C250.828 16.2082 250.136 14.9422 249.263 13.889C248.379 12.8454 247.306 12.0273 246.032 11.4262C244.764 10.8337 243.327 10.5379 241.694 10.5379C240.068 10.5379 238.632 10.8337 237.37 11.4262C236.089 12.0273 235.017 12.8401 234.134 13.889C233.254 14.9422 232.568 16.2082 232.077 17.6752C231.596 19.1475 231.342 20.7614 231.319 22.5039C231.342 24.2656 231.596 25.8688 232.077 27.3528V27.3518C232.568 28.8209 233.254 30.0805 234.134 31.1273Z" fill="black"/>
<path d="M274.471 9.60449H274.873V25.663C274.873 29.0736 274.076 31.6704 272.415 33.38C270.764 35.0885 268.367 35.9236 265.321 35.9236C265.315 35.9236 265.308 35.9236 265.305 35.9236C262.248 35.9268 259.852 35.0917 258.199 33.38C256.531 31.6704 255.74 29.0736 255.74 25.663V9.60449H256.143H257.256V25.663C257.259 28.6141 257.93 30.7843 259.214 32.246C260.49 33.6896 262.484 34.4449 265.305 34.4492C268.124 34.4449 270.115 33.6896 271.392 32.246C272.673 30.7822 273.355 28.613 273.355 25.663V9.60449H273.756H274.471Z" fill="black"/>
<path d="M277.523 35.3759H277.12V9.62695H287.648C290.107 9.62695 292.077 10.2174 293.505 11.4429C294.93 12.6759 295.646 14.5078 295.642 16.8472C295.642 17.9929 295.429 19.0238 295.011 19.9344C294.589 20.8365 294.004 21.5993 293.252 22.2131C292.511 22.8174 291.624 23.2738 290.616 23.5748C289.606 23.8844 288.491 24.0291 287.297 24.0291H278.638V35.377H278.237H277.523V35.3759ZM287.639 22.5099C288.579 22.5099 289.447 22.3865 290.242 22.1301C291.039 21.878 291.714 21.511 292.294 21.0206C292.863 20.5387 293.306 19.945 293.636 19.2525C293.958 18.5653 294.123 17.7642 294.123 16.8344C294.119 14.9291 293.588 13.5408 292.55 12.5844C291.528 11.6355 289.912 11.1259 287.64 11.1259L278.637 11.1238V22.511H287.639V22.5099Z" fill="black"/>
</svg>
