<svg width="282" height="57" viewBox="0 0 282 57" fill="none" xmlns="http://www.w3.org/2000/svg">
<path d="M253.599 41.8107C253.086 41.8107 252.595 41.6071 252.232 41.2447C251.87 40.8823 251.666 40.3907 251.666 39.8782V38.081L250.03 40.8638C249.859 41.1532 249.614 41.3928 249.322 41.5589C249.029 41.7249 248.698 41.8117 248.362 41.8107H241.624C241.111 41.8107 240.62 41.6071 240.257 41.2447C239.895 40.8823 239.691 40.3907 239.691 39.8782V21.3778C239.691 20.8653 239.895 20.3737 240.257 20.0113C240.62 19.6489 241.111 19.4453 241.624 19.4453H248.71C249.222 19.4453 249.714 19.6489 250.076 20.0113C250.439 20.3737 250.642 20.8653 250.642 21.3778V23.3103L252.259 20.4502C252.428 20.1529 252.672 19.9056 252.967 19.7336C253.263 19.5616 253.599 19.471 253.94 19.4711H260.678C261.191 19.4711 261.682 19.6747 262.045 20.0371C262.407 20.3995 262.611 20.891 262.611 21.4036V39.8782C262.611 40.3907 262.407 40.8823 262.045 41.2447C261.682 41.6071 261.191 41.8107 260.678 41.8107H253.599Z" fill="#002D73"/>
<path d="M260.704 21.3777V39.8781H253.618V31.0015L248.381 39.8781H241.624V21.3777H248.71V30.6086L253.94 21.3777H260.678H260.704ZM260.678 17.5127H253.966C252.997 17.5141 252.063 17.8796 251.351 18.5369C250.638 17.8796 249.705 17.5141 248.735 17.5127H241.65C240.625 17.5127 239.642 17.9199 238.917 18.6447C238.192 19.3695 237.785 20.3526 237.785 21.3777V39.8781C237.785 40.9031 238.192 41.8862 238.917 42.611C239.642 43.3358 240.625 43.7431 241.65 43.7431H248.388C249.358 43.7451 250.294 43.3817 251.009 42.7253C251.723 43.3802 252.656 43.7435 253.625 43.7431H260.71C261.736 43.7431 262.719 43.3358 263.443 42.611C264.168 41.8862 264.575 40.9031 264.575 39.8781V21.3777C264.575 20.3526 264.168 19.3695 263.443 18.6447C262.719 17.9199 261.736 17.5127 260.71 17.5127H260.678Z" fill="white"/>
<path d="M33.456 42.0034C41.4565 42.0034 45.2699 36.3154 45.2699 30.4084C45.2699 24.5014 41.4565 18.8135 33.456 18.8135C25.4554 18.8135 21.6484 24.5272 21.6484 30.4084C21.6484 36.2896 25.4554 42.0034 33.456 42.0034ZM33.456 34.9755C32.9171 34.9697 32.3848 34.8574 31.8895 34.6452C31.3942 34.4329 30.9457 34.1249 30.5698 33.7388C30.1939 33.3528 29.898 32.8962 29.699 32.3954C29.5001 31.8946 29.4021 31.3595 29.4106 30.8207C29.401 30.6705 29.401 30.5199 29.4106 30.3698C29.3075 29.2623 29.6432 28.1585 30.3456 27.296C31.0479 26.4335 32.0607 25.8811 33.1661 25.7576C33.7139 25.7369 34.2604 25.8249 34.774 26.0164C35.2877 26.2079 35.7584 26.4992 36.159 26.8734C36.5596 27.2476 36.8821 27.6975 37.1081 28.1969C37.3341 28.6964 37.4589 29.2356 37.4755 29.7836C37.4884 29.9788 37.4884 30.1746 37.4755 30.3698C37.5959 31.4563 37.2845 32.5466 36.6086 33.4057C35.9326 34.2649 34.9461 34.824 33.8618 34.9627C33.7224 34.9723 33.5825 34.9723 33.4431 34.9627" fill="#002D73"/>
<path d="M33.4558 43.9172C24.0188 43.9172 19.7158 36.9022 19.7158 30.3897C19.7158 23.8773 24.0188 16.8623 33.4558 16.8623C42.8928 16.8623 47.2023 23.8837 47.2023 30.3897C47.2023 36.8958 42.8993 43.9172 33.4558 43.9172ZM33.4558 20.6758C26.1703 20.6758 23.5808 25.9128 23.5808 30.3897C23.5808 34.8667 26.1575 40.0973 33.4558 40.0973C40.7542 40.0973 43.3373 34.8667 43.3373 30.3897C43.3373 25.9128 40.7478 20.6758 33.4558 20.6758ZM33.3528 36.8894C31.876 36.8857 30.4573 36.3136 29.3912 35.2918C28.792 34.7162 28.3128 34.0277 27.9811 33.2659C27.6494 32.5042 27.4719 31.6843 27.4587 30.8535C27.449 30.6883 27.449 30.5227 27.4587 30.3575C27.3616 28.7617 27.8896 27.1907 28.9309 25.9774C29.9722 24.7642 31.445 24.004 33.0371 23.8579C33.7987 23.8037 34.5634 23.9004 35.2875 24.1425C36.0115 24.3845 36.6806 24.7673 37.2564 25.2686C37.8888 25.8218 38.4051 26.4949 38.7756 27.249C39.146 28.0031 39.3631 28.8232 39.4144 29.6618C39.4304 29.8935 39.4304 30.1259 39.4144 30.3575C39.5347 31.9253 39.043 33.4788 38.0425 34.6919C37.042 35.905 35.6105 36.6833 34.0485 36.8636C33.8423 36.8636 33.6491 36.8636 33.4494 36.8636L33.3528 36.8894Z" fill="white"/>
<path d="M88.1067 41.6885C96.6548 41.6885 100.752 36.1809 100.777 30.3898C100.803 24.5988 96.745 19.0203 88.2033 18.9624C79.6617 18.9044 75.5713 24.4893 75.5455 30.2674C75.5198 36.0456 79.5716 41.6369 88.1067 41.6691V41.6885ZM88.1389 34.8024C87.0271 34.8318 85.949 34.4191 85.1411 33.6546C84.3332 32.8902 83.8615 31.8366 83.8295 30.7248C83.8295 30.5766 83.8295 30.4285 83.8295 30.2868C83.79 29.697 83.872 29.1054 84.0705 28.5486C84.269 27.9919 84.5798 27.4819 84.9835 27.0501C85.3873 26.6184 85.8754 26.2743 86.4176 26.0389C86.9598 25.8036 87.5446 25.6822 88.1357 25.6822C88.7268 25.6822 89.3116 25.8036 89.8538 26.0389C90.3961 26.2743 90.8842 26.6184 91.2879 27.0501C91.6917 27.4819 92.0024 27.9919 92.2009 28.5486C92.3995 29.1054 92.4815 29.697 92.4419 30.2868C92.4832 30.8344 92.4158 31.3847 92.2436 31.9062C92.0715 32.4277 91.7979 32.91 91.4388 33.3255C91.0796 33.7409 90.6419 34.0813 90.1508 34.327C89.6596 34.5727 89.1248 34.7189 88.577 34.7573C88.429 34.7669 88.2805 34.7669 88.1325 34.7573" fill="#002D73"/>
<path d="M88.1904 43.6009H88.1067C83.5975 43.6009 79.8614 42.1515 77.2332 39.4718C74.8625 37.0048 73.5635 33.7005 73.6194 30.2796C73.6194 23.9088 78.1994 17.0742 88.126 17.0742H88.2162C92.7253 17.0742 96.4743 18.5171 99.0961 21.2033C101.473 23.6693 102.775 26.9774 102.716 30.402C102.745 33.8295 101.413 37.1284 99.0123 39.5749C96.3842 42.2031 92.6158 43.6009 88.1904 43.6009ZM88.1067 20.8941C80.2801 20.8941 77.4844 25.9508 77.4651 30.2989C77.4125 32.7195 78.323 35.0619 79.9966 36.8114C81.8776 38.7439 84.6797 39.7617 88.1002 39.781H88.1775C91.5723 39.781 94.3615 38.7761 96.2489 36.8823C97.9328 35.1412 98.8591 32.8045 98.8255 30.3826C98.8752 27.9588 97.9653 25.6134 96.294 23.8573C94.413 21.9248 91.6045 20.907 88.1775 20.8941H88.1067ZM88.2226 36.7341H88.0551C86.4506 36.7448 84.9058 36.1262 83.7522 35.0111C82.5985 33.896 81.9278 32.3731 81.884 30.7691C81.884 30.6081 81.884 30.4406 81.884 30.2796C81.8199 28.7057 82.3722 27.1688 83.4236 25.9959C84.24 25.0782 85.3076 24.42 86.4943 24.1028C87.681 23.7856 88.9346 23.8234 90.1 24.2114C91.2655 24.5994 92.2916 25.3207 93.0513 26.2859C93.811 27.2511 94.271 28.4179 94.3744 29.6419C94.3873 29.8714 94.3873 30.1015 94.3744 30.3311C94.4661 31.8822 93.9484 33.4078 92.9314 34.5826C91.8718 35.8145 90.3702 36.5803 88.7508 36.7148L88.2226 36.7341ZM88.1067 32.9142H88.1582H88.1067ZM85.749 30.4793C85.749 30.5566 85.749 30.6339 85.749 30.7112V30.4793Z" fill="white"/>
<path d="M112.521 41.8107C112.177 41.8112 111.84 41.7202 111.543 41.547C111.246 41.3737 111.001 41.1246 110.833 40.8251L110.491 40.2132C110.412 40.6657 110.174 41.0751 109.819 41.3679C109.465 41.6606 109.018 41.8176 108.559 41.8107H101.093C100.581 41.8107 100.089 41.6071 99.7267 41.2447C99.3642 40.8823 99.1606 40.3907 99.1606 39.8782V21.3778C99.1606 20.8653 99.3642 20.3737 99.7267 20.0113C100.089 19.6489 100.581 19.4453 101.093 19.4453H108.585C109.081 19.4447 109.558 19.635 109.918 19.9767C110.278 20.3185 110.492 20.7856 110.517 21.2812L111.091 20.36C111.264 20.0803 111.506 19.8495 111.793 19.6894C112.081 19.5294 112.404 19.4453 112.733 19.4453H120.92C121.277 19.4453 121.626 19.5436 121.93 19.7296C122.234 19.9156 122.48 20.1819 122.642 20.4991C122.804 20.8164 122.875 21.1722 122.848 21.5273C122.82 21.8825 122.695 22.2231 122.486 22.5115L116.933 30.2029L122.731 38.8024C122.925 39.0932 123.038 39.4315 123.055 39.7811C123.073 40.1307 122.995 40.4785 122.83 40.7874C122.666 41.0963 122.42 41.3546 122.12 41.5349C121.82 41.7151 121.477 41.8104 121.127 41.8107H112.521Z" fill="#002D73"/>
<path d="M120.92 21.3777L114.575 30.1576L121.107 39.8781H112.514L108.585 32.8502V39.8781H101.093V21.3777H108.585V28.0383L112.733 21.3777H120.92ZM120.92 17.5127H112.733C111.998 17.5132 111.279 17.7233 110.659 18.1182C110.039 17.7233 109.32 17.5132 108.585 17.5127H101.093C100.068 17.5127 99.0849 17.9199 98.3601 18.6447C97.6352 19.3695 97.228 20.3526 97.228 21.3777V39.8781C97.228 40.9031 97.6352 41.8862 98.3601 42.611C99.0849 43.3358 100.068 43.743 101.093 43.743H108.585C109.276 43.7459 109.955 43.5611 110.549 43.2084C111.135 43.5535 111.802 43.7379 112.482 43.743H121.075C121.776 43.7449 122.465 43.5559 123.067 43.1964C123.669 42.8369 124.162 42.3204 124.492 41.7022C124.823 41.084 124.98 40.3874 124.945 39.6871C124.911 38.9868 124.686 38.3091 124.296 37.7266L119.284 30.2414L123.999 23.716C124.435 23.1427 124.702 22.4592 124.77 21.7424C124.838 21.0257 124.704 20.3042 124.384 19.6593C124.064 19.0144 123.57 18.4717 122.958 18.0924C122.346 17.7132 121.64 17.5124 120.92 17.5127Z" fill="white"/>
<path d="M153.696 30.112L157.451 26.4467L161.013 29.9574L157.148 33.6871C156.783 32.8038 156.224 32.0136 155.512 31.3746C154.941 30.8692 154.309 30.4364 153.631 30.0863L153.696 30.112ZM135.775 22.0986C136.364 21.5613 137.118 21.239 137.914 21.1839C138.196 21.2002 138.472 21.2724 138.727 21.3962C138.981 21.5201 139.208 21.6931 139.395 21.9054C139.633 22.1126 139.824 22.3679 139.956 22.6543C140.089 22.9407 140.159 23.2519 140.162 23.5673C140.09 24.1596 139.803 24.705 139.357 25.1004C139.292 25.1584 134.203 30.4792 134.203 30.4792C134.203 30.4792 130.983 34.5246 135.827 38.5699C140.671 42.6153 144.272 39.0015 144.272 38.9564L149.045 34.2862C149.122 34.2411 150.333 33.3715 151.86 34.9304C152.116 35.1439 152.326 35.4068 152.477 35.7035C152.629 36.0001 152.719 36.3244 152.742 36.6567C152.711 37.0396 152.602 37.4122 152.422 37.752C152.243 38.0918 151.997 38.3919 151.699 38.6343L143.254 47.0084L126.808 30.8399L135.775 22.0986ZM140.961 16.9904L144.581 13.4411L146.359 15.1868C146.581 15.3758 146.763 15.6068 146.896 15.8666C147.029 16.1264 147.109 16.4098 147.132 16.7005C147.129 16.8861 147.087 17.0691 147.01 17.2377C146.932 17.4063 146.82 17.5568 146.681 17.6797C146.681 17.6797 145.186 19.1612 144.156 20.1661C143.865 19.4443 143.429 18.7898 142.875 18.2435C142.321 17.6972 141.661 17.2707 140.935 16.9904H140.961ZM157.303 19.2708L156.768 19.7925C156.646 19.9407 143.698 33.1783 141.656 34.8402C141.457 35.0356 141.22 35.1883 140.96 35.2891C140.7 35.3899 140.421 35.4366 140.143 35.4264C139.801 35.3867 139.486 35.2214 139.26 34.9626C138.249 33.8933 139.428 32.5921 139.44 32.5792L149.844 21.9376C154.933 16.7327 150.05 11.6825 150.005 11.631L144.452 6.00098L143.917 6.50987L119.027 30.8721L143.189 54.5258L168.312 29.9832L157.303 19.2708Z" fill="#002D73"/>
<path d="M143.189 56.4332C142.682 56.4362 142.193 56.2395 141.83 55.8856L117.667 32.2255C117.486 32.0495 117.341 31.8388 117.242 31.6059C117.144 31.3729 117.093 31.1225 117.093 30.8695C117.093 30.6165 117.144 30.3661 117.242 30.1332C117.341 29.9003 117.486 29.6895 117.667 29.5136L143.138 4.63596C143.505 4.27914 143.999 4.08279 144.511 4.09004C145.023 4.09728 145.512 4.30754 145.869 4.67461L151.421 10.3046C152.922 11.7862 155.641 16.1923 153.09 20.8496L155.364 18.5177L155.441 18.4339L155.976 17.9122C156.338 17.5542 156.826 17.3534 157.335 17.3534C157.844 17.3534 158.332 17.5542 158.694 17.9122L169.645 28.6246C169.826 28.8016 169.97 29.013 170.068 29.2464C170.167 29.4798 170.217 29.7306 170.217 29.9838C170.217 30.2371 170.167 30.4878 170.068 30.7212C169.97 30.9546 169.826 31.166 169.645 31.343L144.522 55.8856C144.165 56.2333 143.688 56.4295 143.189 56.4332Z" fill="white"/>
<path d="M121.771 30.8729L143.189 51.8147L165.555 29.9582L157.355 21.977C154.346 25.0561 145.006 34.5769 142.977 36.271C142.196 36.9771 141.176 37.3595 140.123 37.3403H139.943C139.138 37.2436 138.396 36.8565 137.856 36.2517C136.265 34.5382 137.044 32.2965 138.107 31.2465L148.484 20.6243C152.072 16.959 149.245 13.6029 148.639 12.9716L144.452 8.72656L121.771 30.8729Z" fill="white"/>
<path d="M143.241 48.9347C142.733 48.9359 142.244 48.7369 141.882 48.3807L125.468 32.1928C125.287 32.0179 125.143 31.8077 125.045 31.5751C124.948 31.3424 124.899 31.0923 124.901 30.8401C124.905 30.329 125.111 29.8403 125.475 29.4809L134.203 20.9844C134.279 20.881 134.365 20.786 134.461 20.7009C135.373 19.8677 136.54 19.3661 137.772 19.2773H138.017C139.068 19.3322 140.057 19.7943 140.774 20.5657C141.183 20.9456 141.511 21.4047 141.738 21.9151C141.965 22.4255 142.086 22.9767 142.094 23.5353C142.104 23.6209 142.104 23.7073 142.094 23.7929C141.963 24.8201 141.475 25.7685 140.716 26.4727C140.381 26.8076 137.598 29.6935 135.711 31.6968C135.33 32.2315 134.01 34.5247 137.096 37.1014C140.316 39.794 142.487 38.0225 142.841 37.6875L142.938 37.5909L147.711 32.9207C147.817 32.8222 147.931 32.7337 148.053 32.6566C149.225 31.8901 151.274 31.6453 153.206 33.5198C154.078 34.283 154.612 35.3596 154.694 36.5152C154.7 36.6074 154.7 36.6999 154.694 36.7922C154.586 38.0398 153.994 39.1957 153.045 40.013L144.671 48.3871C144.308 48.7473 143.817 48.9488 143.305 48.9475L143.241 48.9347Z" fill="white"/>
<path d="M142.481 38.21C142.377 38.4409 142.325 38.6913 142.326 38.9443C142.325 38.6914 142.378 38.4411 142.481 38.21Z" fill="white"/>
<path d="M137.894 23.1422C137.894 23.1422 137.894 23.1422 137.855 23.1104L137.894 23.1422Z" fill="white"/>
<path d="M157.174 35.6008C157.044 35.6007 156.915 35.5878 156.788 35.5622C156.479 35.5001 156.191 35.3639 155.947 35.1652C155.704 34.9665 155.512 34.7114 155.39 34.422C155.129 33.8011 154.735 33.2448 154.237 32.7923C153.789 32.4105 153.298 32.0819 152.774 31.8131C152.325 31.5792 151.985 31.1781 151.829 30.6961C151.672 30.2142 151.711 29.69 151.937 29.2365C152.084 28.9617 152.293 28.7256 152.549 28.5472L156.092 25.0881C156.454 24.7301 156.942 24.5293 157.451 24.5293C157.96 24.5293 158.448 24.7301 158.81 25.0881L162.379 28.6245C162.737 28.9863 162.938 29.4747 162.938 29.9837C162.938 30.4927 162.737 30.9811 162.379 31.3429L158.514 35.079C158.151 35.4188 157.671 35.6057 157.174 35.6008Z" fill="white"/>
<path d="M144.149 22.0799C144.015 22.0808 143.881 22.0657 143.75 22.0348C143.444 21.9709 143.158 21.8337 142.917 21.6352C142.676 21.4366 142.486 21.1825 142.365 20.8946C142.174 20.4192 141.887 19.988 141.522 19.6279C141.158 19.2678 140.723 18.9864 140.245 18.8011C139.949 18.6835 139.686 18.4944 139.48 18.2504C139.275 18.0065 139.132 17.7155 139.067 17.4033C139.003 17.0928 139.019 16.7713 139.112 16.4685C139.206 16.1656 139.374 15.8912 139.601 15.6705L143.221 12.1147C143.584 11.7548 144.073 11.5527 144.584 11.5527C145.094 11.5527 145.584 11.7548 145.946 12.1147L147.692 13.8088C148.494 14.5143 148.987 15.5068 149.064 16.5723C149.067 16.6281 149.067 16.684 149.064 16.7398C149.055 17.1763 148.957 17.6064 148.777 18.0039C148.596 18.4015 148.337 18.7582 148.014 19.0523C147.801 19.2649 146.462 20.5983 145.508 21.5259C145.146 21.8821 144.657 22.0812 144.149 22.0799Z" fill="white"/>
<path d="M161.174 6.65872V5.46701H161.928C162.36 5.46701 162.791 5.5572 162.791 6.03388C162.791 6.51056 162.334 6.67804 161.838 6.67804L161.174 6.65872ZM161.174 7.14828H161.818L162.849 8.81022H163.493L162.366 7.12896C162.497 7.1298 162.627 7.10482 162.749 7.05542C162.87 7.00603 162.981 6.93319 163.074 6.84108C163.167 6.74896 163.242 6.63936 163.292 6.51855C163.343 6.39773 163.37 6.26806 163.371 6.13694V6.07897C163.371 5.3253 162.933 4.96457 162.005 4.96457H160.575V8.82955H161.149L161.174 7.14828ZM161.896 10.1952C162.557 10.1875 163.201 9.98447 163.747 9.61151C164.293 9.23855 164.716 8.7124 164.963 8.09933C165.211 7.48625 165.271 6.81367 165.137 6.1663C165.003 5.51893 164.68 4.92571 164.21 4.46137C163.739 3.99703 163.142 3.68234 162.493 3.55692C161.843 3.4315 161.172 3.50097 160.562 3.75658C159.952 4.01219 159.432 4.44251 159.066 4.99333C158.701 5.54415 158.506 6.19085 158.507 6.85197C158.499 7.72901 158.839 8.57362 159.452 9.20042C160.066 9.82722 160.903 10.185 161.78 10.1952H161.896ZM159.152 6.85197C159.144 6.31147 159.297 5.7809 159.592 5.32776C159.887 4.87461 160.309 4.51935 160.807 4.30718C161.304 4.09501 161.853 4.0355 162.384 4.13623C162.915 4.23696 163.404 4.49338 163.789 4.87287C164.174 5.25236 164.437 5.73777 164.546 6.26736C164.654 6.79695 164.602 7.34678 164.397 7.84693C164.192 8.34708 163.843 8.77494 163.394 9.07609C162.945 9.37724 162.417 9.53807 161.876 9.53813C161.521 9.54068 161.169 9.47322 160.84 9.3396C160.51 9.20598 160.211 9.00883 159.958 8.7594C159.705 8.50996 159.503 8.21313 159.365 7.88585C159.227 7.55857 159.154 7.20726 159.152 6.85197Z" fill="#002D73"/>
<path d="M159.152 6.85197C159.144 6.31147 159.297 5.7809 159.592 5.32776C159.887 4.87461 160.309 4.51935 160.807 4.30718C161.304 4.09501 161.853 4.0355 162.384 4.13623C162.915 4.23696 163.404 4.49338 163.789 4.87287C164.174 5.25236 164.437 5.73777 164.546 6.26736C164.654 6.79695 164.602 7.34678 164.397 7.84693C164.192 8.34708 163.843 8.77494 163.394 9.07609C162.945 9.37724 162.417 9.53807 161.876 9.53813C161.521 9.54068 161.169 9.47322 160.84 9.3396C160.51 9.20598 160.211 9.00883 159.958 8.7594C159.705 8.50996 159.503 8.21313 159.365 7.88585C159.227 7.55857 159.154 7.20726 159.152 6.85197M161.174 6.65872V5.46701H161.928C162.36 5.46701 162.791 5.5572 162.791 6.03388C162.791 6.51056 162.334 6.67804 161.838 6.67804L161.174 6.65872ZM161.174 7.14828H161.818L162.849 8.81022H163.493L162.366 7.12896C162.497 7.1298 162.627 7.10482 162.749 7.05542C162.87 7.00603 162.981 6.93319 163.074 6.84108C163.167 6.74896 163.242 6.63936 163.292 6.51855C163.343 6.39773 163.37 6.26806 163.371 6.13694V6.07897C163.371 5.3253 162.933 4.96457 162.005 4.96457H160.575V8.82955H161.149L161.174 7.14828ZM161.896 10.1952C162.557 10.1875 163.201 9.98446 163.747 9.61151C164.293 9.23855 164.716 8.7124 164.963 8.09933C165.211 7.48625 165.271 6.81367 165.137 6.1663C165.003 5.51893 164.68 4.92571 164.21 4.46137C163.739 3.99703 163.142 3.68234 162.493 3.55692C161.843 3.4315 161.172 3.50097 160.562 3.75658C159.952 4.01219 159.432 4.44251 159.066 4.99333C158.701 5.54415 158.506 6.19085 158.507 6.85197C158.499 7.72901 158.839 8.57362 159.452 9.20042C160.066 9.82722 160.903 10.185 161.78 10.1952H161.896V10.1952Z" stroke="white" stroke-width="6" stroke-linecap="round" stroke-linejoin="round"/>
<path d="M185.833 39.3047C184.279 40.0891 182.555 40.4784 180.815 40.4384C174.727 40.4384 170.392 36.5734 170.392 30.6278C170.392 23.9092 175.958 20.8107 180.699 20.8107C182.515 20.7825 184.301 21.2694 185.852 22.215V28.6889C185.342 28.0849 184.707 27.5992 183.991 27.2654C183.274 26.9317 182.494 26.758 181.704 26.7564C181.204 26.7158 180.701 26.7742 180.224 26.9281C179.747 27.082 179.305 27.3284 178.924 27.6533C178.542 27.9781 178.228 28.3751 178 28.8214C177.772 29.2676 177.634 29.7545 177.594 30.2542C177.578 30.4471 177.578 30.641 177.594 30.8339C177.594 33.1916 179.307 34.5379 181.684 34.5379C183.231 34.507 184.712 33.9034 185.839 32.8437L185.833 39.3047Z" fill="#002D73"/>
<path d="M180.867 20.8111C182.632 20.8099 184.364 21.2958 185.872 22.2154V28.6892C185.362 28.0853 184.727 27.5995 184.01 27.2658C183.294 26.9321 182.514 26.7584 181.723 26.7567H181.433C180.471 26.7521 179.543 27.1113 178.834 27.7624C178.126 28.4135 177.69 29.3083 177.614 30.2674C177.597 30.4603 177.597 30.6543 177.614 30.8472C177.614 33.2048 179.327 34.5511 181.704 34.5511C183.251 34.5203 184.731 33.9166 185.859 32.857V39.2986C184.377 40.0472 182.74 40.4378 181.079 40.4388H180.841C174.753 40.4388 170.418 36.5738 170.418 30.6282C170.418 23.9095 175.984 20.8111 180.725 20.8111H180.867ZM180.867 16.9912H180.686C173.832 16.9912 166.553 21.7838 166.553 30.6282C166.553 38.5127 172.544 44.2393 180.796 44.2587H181.079C183.352 44.256 185.593 43.7222 187.624 42.6998C188.253 42.3815 188.783 41.8954 189.153 41.2952C189.524 40.695 189.721 40.004 189.724 39.2986V32.857C189.725 32.1249 189.512 31.4084 189.112 30.7956C189.527 30.1808 189.751 29.4569 189.756 28.715V22.2154C189.749 21.566 189.576 20.9291 189.254 20.3653C188.931 19.8016 188.47 19.3297 187.914 18.9946C185.794 17.6894 183.355 16.9961 180.867 16.9912Z" fill="white"/>
<path d="M187.45 41.8042C186.937 41.8042 186.446 41.6006 186.083 41.2382C185.721 40.8758 185.517 40.3843 185.517 39.8717V21.3778C185.517 20.8653 185.721 20.3737 186.083 20.0113C186.446 19.6489 186.937 19.4453 187.45 19.4453H200.545C201.058 19.4453 201.549 19.6489 201.912 20.0113C202.274 20.3737 202.478 20.8653 202.478 21.3778V26.7308C202.478 26.9876 202.426 27.2417 202.327 27.4784C202.227 27.7151 202.082 27.9296 201.898 28.1093C201.898 28.1737 201.898 28.2446 201.898 28.309V32.7537C201.898 32.8772 201.885 33.0002 201.86 33.1209C202.05 33.3007 202.202 33.5174 202.306 33.7577C202.41 33.9979 202.464 34.2569 202.465 34.5187V39.8717C202.465 40.3843 202.261 40.8758 201.899 41.2382C201.537 41.6006 201.045 41.8042 200.533 41.8042H187.45Z" fill="#002D73"/>
<path d="M200.546 21.3777V26.7307H194.929V28.3089H199.979V32.7536H194.929V34.5186H200.546V39.8716H187.45V21.3777H200.546ZM200.546 17.5127H187.45C186.425 17.5127 185.442 17.9199 184.717 18.6447C183.992 19.3695 183.585 20.3526 183.585 21.3777V39.8716C183.585 40.8967 183.992 41.8798 184.717 42.6046C185.442 43.3294 186.425 43.7366 187.45 43.7366H200.546C201.571 43.7366 202.554 43.3294 203.279 42.6046C204.004 41.8798 204.411 40.8967 204.411 39.8716V34.5186C204.411 33.8072 204.215 33.1095 203.844 32.5024V28.7469C204.215 28.1398 204.411 27.4421 204.411 26.7307V21.3777C204.411 20.3526 204.004 19.3695 203.279 18.6447C202.554 17.9199 201.571 17.5127 200.546 17.5127Z" fill="white"/>
<path d="M278.135 39.3044C276.58 40.086 274.857 40.4753 273.117 40.4381C267.023 40.4381 262.694 36.5732 262.694 30.6275C262.694 23.9089 268.26 20.804 273.001 20.804C274.808 20.7745 276.586 21.2521 278.135 22.1825V28.6886C277.628 28.0843 276.996 27.5981 276.281 27.2643C275.567 26.9305 274.788 26.757 273.999 26.7561C272.988 26.6742 271.986 26.9974 271.212 27.6545C270.439 28.3117 269.959 29.249 269.877 30.2604C269.864 30.4512 269.864 30.6428 269.877 30.8337C269.877 33.1913 271.597 34.5376 273.967 34.5376C275.519 34.5022 277.004 33.8942 278.135 32.8306V39.3044Z" fill="#002D73"/>
<path d="M273.13 20.8039C274.893 20.7982 276.624 21.2749 278.135 22.1824V28.6885C277.628 28.0842 276.996 27.598 276.281 27.2642C275.567 26.9304 274.788 26.7569 273.999 26.756H273.71C272.745 26.7512 271.814 27.1109 271.104 27.7631C270.393 28.4152 269.955 29.3117 269.877 30.2731C269.864 30.464 269.864 30.6556 269.877 30.8464C269.877 33.2041 271.597 34.5504 273.967 34.5504C275.521 34.5115 277.006 33.8988 278.135 32.8305V39.2721C276.651 40.0208 275.011 40.4113 273.349 40.4123H273.117C267.023 40.4123 262.694 36.5473 262.694 30.6017C262.694 23.883 268.26 20.7782 273.001 20.7782H273.143L273.13 20.8039ZM273.143 16.9583H272.982C269.141 16.9357 265.443 18.4125 262.675 21.0745C261.416 22.3211 260.424 23.8109 259.76 25.4533C259.095 27.0957 258.772 28.8561 258.81 30.6274C258.81 38.512 264.801 44.2386 273.053 44.2579H273.33C275.603 44.2552 277.844 43.7214 279.874 42.6991C280.508 42.3854 281.042 41.902 281.418 41.3026C281.793 40.7033 281.995 40.0115 282 39.3043V32.8627C281.993 32.1251 281.769 31.4058 281.356 30.7949C281.767 30.1807 281.991 29.46 282 28.7207V22.1824C281.993 21.5337 281.821 20.8975 281.5 20.3339C281.179 19.7703 280.719 19.298 280.164 18.9616C278.044 17.6742 275.61 16.9945 273.13 16.9969L273.143 16.9583Z" fill="white"/>
<path d="M4.3656 41.8107C3.85307 41.8107 3.36153 41.6071 2.99912 41.2447C2.63671 40.8823 2.43311 40.3907 2.43311 39.8782V21.3778C2.43311 20.8653 2.63671 20.3737 2.99912 20.0113C3.36153 19.6489 3.85307 19.4453 4.3656 19.4453H14.9234C20.7209 19.4453 22.7822 22.8851 22.7822 26.0995V26.2155C22.7051 27.4935 22.2324 28.7159 21.4295 29.7133C22.1465 30.3395 22.7197 31.1133 23.1099 31.9816C23.5001 32.8499 23.6982 33.7923 23.6905 34.7442C23.6905 37.3209 21.9513 41.83 15.4388 41.83L4.3656 41.8107Z" fill="#002D73"/>
<path d="M14.9233 21.3777C20.2828 21.3777 20.8496 24.6694 20.8496 26.0994C20.7926 27.008 20.4449 27.8741 19.858 28.5701C19.2711 29.266 18.4761 29.7548 17.5902 29.9644V30.0159C18.7419 30.152 19.8033 30.7072 20.5719 31.5756C21.3406 32.444 21.7627 33.565 21.7579 34.7248C21.7579 36.5864 20.592 39.8781 15.4386 39.8781H4.36547V21.3777H14.9233ZM11.8571 28.4635H12.5464C13.8347 28.4635 14.189 27.8193 14.189 27.1752C14.189 26.531 13.8604 25.8868 12.5464 25.8868H11.8571V28.4635ZM11.8571 35.4527H12.7396C13.4353 35.4527 14.6141 35.2981 14.6141 34.0677C14.6141 32.8374 13.4353 32.6763 12.7396 32.6763H11.8571V35.4269V35.4527ZM14.9233 17.5127H4.36547C3.34041 17.5127 2.35734 17.9199 1.63252 18.6447C0.907691 19.3695 0.500488 20.3526 0.500488 21.3777L0.500488 39.8781C0.500488 40.9031 0.907691 41.8862 1.63252 42.611C2.35734 43.3358 3.34041 43.743 4.36547 43.743H15.4258C22.4021 43.743 25.6229 39.0793 25.6229 34.7441C25.6367 32.8503 25.0204 31.0056 23.8708 29.5006C24.3675 28.5133 24.6569 27.4347 24.721 26.3313C24.721 26.254 24.721 26.1767 24.721 26.0994C24.721 22.1378 22.1444 17.5127 14.9298 17.5127H14.9233Z" fill="white"/>
<path d="M65.5608 41.8107C65.0483 41.8107 64.5567 41.6071 64.1943 41.2447C63.8319 40.8823 63.6283 40.3907 63.6283 39.8782V28.6633H61.6185C61.106 28.6633 60.6145 28.4597 60.2521 28.0973C59.8896 27.7349 59.686 27.2433 59.686 26.7308V21.3778C59.686 20.8653 59.8896 20.3737 60.2521 20.0113C60.6145 19.6489 61.106 19.4453 61.6185 19.4453H76.9625C77.475 19.4453 77.9666 19.6489 78.329 20.0113C78.6914 20.3737 78.895 20.8653 78.895 21.3778V26.7308C78.895 27.2433 78.6914 27.7349 78.329 28.0973C77.9666 28.4597 77.475 28.6633 76.9625 28.6633H74.972V39.8782C74.972 40.3907 74.7684 40.8823 74.406 41.2447C74.0436 41.6071 73.5521 41.8107 73.0396 41.8107H65.5608Z" fill="#002D73"/>
<path d="M76.9629 21.3777V26.7307H73.0399V39.8781H65.5612V26.7307H61.6189V21.3777H76.9629ZM76.9629 17.5127H61.6189C60.5938 17.5127 59.6108 17.9199 58.8859 18.6447C58.1611 19.3695 57.7539 20.3526 57.7539 21.3777V26.7307C57.7539 27.7557 58.1611 28.7388 58.8859 29.4636C59.6108 30.1885 60.5938 30.5957 61.6189 30.5957H61.6962V39.8781C61.6962 40.9031 62.1034 41.8862 62.8282 42.611C63.553 43.3358 64.5361 43.743 65.5612 43.743H73.0592C74.0843 43.743 75.0674 43.3358 75.7922 42.611C76.517 41.8862 76.9242 40.9031 76.9242 39.8781V30.5957H76.9822C78.0073 30.5957 78.9903 30.1885 79.7152 29.4636C80.44 28.7388 80.8472 27.7557 80.8472 26.7307V21.3777C80.8472 20.3526 80.44 19.3695 79.7152 18.6447C78.9903 17.9199 78.0073 17.5127 76.9822 17.5127H76.9629Z" fill="white"/>
<path d="M57.7859 39.3047C56.2264 40.0869 54.4993 40.4761 52.755 40.4385C46.7063 40.4385 42.3389 36.5735 42.3389 30.6279C42.3711 23.9092 47.9367 20.8044 52.6777 20.8044C54.4908 20.7712 56.2766 21.2489 57.831 22.1829V28.6889C57.3193 28.084 56.682 27.5977 55.9634 27.264C55.2447 26.9303 54.462 26.7571 53.6697 26.7564C52.6583 26.6745 51.6559 26.9977 50.8827 27.6548C50.1096 28.312 49.6292 29.2493 49.5471 30.2607C49.5342 30.4516 49.5342 30.6431 49.5471 30.834C49.5471 33.1916 51.267 34.5379 53.6439 34.5379C55.2029 34.5073 56.695 33.8989 57.831 32.8309L57.7859 39.3047Z" fill="white"/>
<path d="M52.8197 20.8043C54.5848 20.7974 56.318 21.2742 57.8313 22.1828V28.6888C57.3196 28.0839 56.6822 27.5976 55.9636 27.2639C55.245 26.9302 54.4623 26.757 53.67 26.7563H53.3801C52.4155 26.7516 51.4848 27.1113 50.7741 27.7634C50.0634 28.4156 49.6252 29.3121 49.5473 30.2735C49.5344 30.4644 49.5344 30.6559 49.5473 30.8468C49.5473 33.2044 51.2672 34.5507 53.6442 34.5507C55.2049 34.5166 56.6972 33.9036 57.8313 32.8308V39.2724C56.3443 40.0206 54.7032 40.411 53.0387 40.4126H52.8003C46.7516 40.4126 42.3842 36.5476 42.3842 30.602C42.3713 23.9091 47.9369 20.8043 52.678 20.8043H52.8068H52.8197ZM52.8068 16.9844H52.678C45.7983 16.9844 38.5063 21.7641 38.5063 30.6278C38.5063 38.5123 44.4906 44.239 52.7488 44.2583H53.0258C55.301 44.2549 57.5441 43.7212 59.577 42.6994C60.2062 42.3853 60.7361 41.903 61.1079 41.306C61.4797 40.7091 61.6789 40.0208 61.6834 39.3175V32.8759C61.6834 32.1222 62.8107 31.4201 62.4242 30.8081C62.8171 30.2026 61.7027 29.4747 61.7027 28.7146V22.1828C61.6958 21.5334 61.523 20.8965 61.2005 20.3327C60.878 19.769 60.4167 19.2971 59.8604 18.962C57.7382 17.6734 55.3024 16.9936 52.8197 16.9973L52.8068 16.9844Z" fill="white"/>
<path d="M203.27 41.8107C202.758 41.8107 202.266 41.6071 201.904 41.2447C201.542 40.8823 201.338 40.3907 201.338 39.8782V21.3778C201.338 20.8653 201.542 20.3737 201.904 20.0113C202.266 19.6489 202.758 19.4453 203.27 19.4453H213.075C220.006 19.4453 222.46 23.9545 222.46 27.7486C222.46 31.5427 219.974 36.0776 213.075 36.0776H212.74V39.8782C212.74 40.3907 212.536 40.8823 212.174 41.2447C211.811 41.6071 211.32 41.8107 210.807 41.8107H203.27Z" fill="#002D73"/>
<path d="M213.074 21.3777C219.039 21.3777 220.527 25.0623 220.527 27.7485C220.527 30.4346 219.001 34.145 213.074 34.145H210.807V39.8781H203.27V21.3777H213.074ZM210.807 29.3524H211.664C213.158 29.3524 213.448 28.5086 213.448 27.7485C213.448 26.2476 212.282 26.1703 211.664 26.1703H210.807V29.3524ZM213.074 17.5127H203.27C202.245 17.5127 201.262 17.9199 200.537 18.6447C199.812 19.3695 199.405 20.3526 199.405 21.3777V39.8781C199.405 40.9031 199.812 41.8862 200.537 42.611C201.262 43.3358 202.245 43.743 203.27 43.743H210.775C211.8 43.743 212.783 43.3358 213.508 42.611C214.233 41.8862 214.64 40.9031 214.64 39.8781V37.9456C221.339 37.3014 224.36 32.5088 224.36 27.7613C224.36 22.666 220.862 17.5256 213.042 17.5256L213.074 17.5127Z" fill="white"/>
<path d="M222.35 41.8107C221.838 41.8107 221.346 41.6071 220.984 41.2447C220.622 40.8823 220.418 40.3907 220.418 39.8782V21.3778C220.418 20.8653 220.622 20.3737 220.984 20.0113C221.346 19.6489 221.838 19.4453 222.35 19.4453H232.915C238.712 19.4453 240.786 22.8851 240.786 26.0995V26.2155C240.708 27.4964 240.233 28.7212 239.427 29.7197C240.142 30.3465 240.712 31.1209 241.098 31.9895C241.484 32.8582 241.676 33.8002 241.663 34.7506C241.663 37.3273 239.923 41.8364 233.411 41.8364L222.35 41.8107Z" fill="#002D73"/>
<path d="M232.915 21.3777C238.287 21.3777 238.854 24.6694 238.854 26.0994C238.796 27.0088 238.448 27.8757 237.86 28.5717C237.272 29.2677 236.475 29.756 235.588 29.9644V30.0159C236.737 30.1538 237.794 30.7103 238.558 31.579C239.323 32.4478 239.74 33.5678 239.73 34.7248C239.73 36.5864 238.564 39.8781 233.411 39.8781H222.35V21.3777H232.915ZM229.823 28.4184H230.518C231.807 28.4184 232.167 27.7742 232.167 27.1301C232.167 26.4859 231.826 25.8417 230.518 25.8417H229.823V28.4184ZM229.823 35.4269H230.731C231.42 35.4269 232.593 35.2723 232.593 34.0419C232.593 32.8116 231.452 32.6828 230.731 32.6828H229.823V35.4333V35.4269ZM232.876 17.5191H222.35C221.325 17.5191 220.342 17.9263 219.617 18.6512C218.893 19.376 218.485 20.3591 218.485 21.3841V39.8781C218.485 40.9031 218.893 41.8862 219.617 42.611C220.342 43.3358 221.325 43.743 222.35 43.743H233.411C240.393 43.743 243.582 39.0857 243.595 34.7248C243.616 32.8318 243.004 30.9861 241.856 29.4813C242.349 28.4995 242.638 27.4279 242.706 26.3313C242.706 26.254 242.706 26.1767 242.706 26.0994C242.706 22.1378 240.129 17.5127 232.902 17.5127L232.876 17.5191Z" fill="white"/>
<path d="M248.736 21.3779V30.6088L253.966 21.3779H260.704V39.8783H253.599V31.0017L248.362 39.8783H241.624V21.3779H248.736Z" fill="#00529C"/>
<path d="M11.8573 35.4271V32.6766H12.7399C13.4613 32.6766 14.6144 32.8054 14.6144 34.0358C14.6144 35.2661 13.384 35.4207 12.7399 35.4207L11.8573 35.4271ZM4.36572 21.3779V39.8783H15.426C20.5793 39.8783 21.7453 36.5866 21.7453 34.725C21.7505 33.5672 21.3301 32.4479 20.5641 31.5798C19.7981 30.7116 18.7398 30.1552 17.5904 30.0162V29.9646C18.4763 29.7551 19.2714 29.2662 19.8583 28.5703C20.4452 27.8744 20.7928 27.0082 20.8499 26.0997C20.8499 24.6696 20.283 21.3779 14.9236 21.3779H4.36572ZM11.8573 28.4637V25.8871H12.5466C13.8349 25.8871 14.1892 26.5312 14.1892 27.1754C14.1892 27.8196 13.8607 28.4637 12.5466 28.4637H11.8573Z" fill="#00529C"/>
<path d="M33.6298 40.4388C40.9539 40.4388 44.4453 35.6333 44.4453 30.6282C44.4453 25.623 40.9539 20.8047 33.6298 20.8047C26.3056 20.8047 22.8271 25.6295 22.8271 30.6282C22.8271 35.6269 26.3121 40.4388 33.6298 40.4388ZM33.6298 34.4996C32.6734 34.5239 31.7465 34.1679 31.0522 33.5098C30.3579 32.8517 29.9528 31.9452 29.9258 30.9889C29.9258 30.8601 29.9258 30.7377 29.9258 30.6089C29.8933 30.1241 29.9565 29.6378 30.1119 29.1775C30.2673 28.7172 30.5118 28.292 30.8316 27.9263C31.4773 27.1875 32.39 26.7356 33.3689 26.6698C34.3478 26.604 35.3128 26.9298 36.0515 27.5755C36.7902 28.2212 37.2422 29.1339 37.308 30.1129C37.3207 30.2779 37.3207 30.4438 37.308 30.6089C37.3809 31.5593 37.074 32.4999 36.4545 33.2244C35.8351 33.9489 34.9536 34.3982 34.0034 34.4738C33.8746 34.4738 33.7457 34.4738 33.6169 34.4738" fill="#00529C"/>
<path d="M60.3626 39.3047C58.803 40.0869 57.076 40.4761 55.3317 40.4385C49.283 40.4385 44.9155 36.5735 44.9155 30.6279C44.9477 23.9092 50.5133 20.8044 55.2544 20.8044C57.0675 20.7712 58.8533 21.2489 60.4077 22.1829V28.6889C59.896 28.084 59.2587 27.5977 58.54 27.264C57.8214 26.9303 57.0387 26.7571 56.2464 26.7564C55.235 26.6745 54.2325 26.9977 53.4594 27.6548C52.6863 28.312 52.2058 29.2493 52.1237 30.2607C52.1108 30.4516 52.1108 30.6431 52.1237 30.834C52.1237 33.1916 53.8436 34.5379 56.2206 34.5379C57.7796 34.5073 59.2716 33.8989 60.4077 32.8309L60.3626 39.3047Z" fill="#00529C"/>
<path d="M65.5416 26.7309H61.6187V21.3779H76.9626V26.7309H73.0397V39.8783H65.5416V26.7309Z" fill="#00529C"/>
<path d="M88.2998 40.4388C95.6175 40.4388 99.1089 35.6333 99.1089 30.6282C99.1089 25.623 95.6175 20.8047 88.2998 20.8047C80.9821 20.8047 77.4907 25.6295 77.4907 30.6282C77.4907 35.6269 81.0207 40.4388 88.2998 40.4388ZM88.2998 34.4996C87.826 34.5125 87.3544 34.4318 86.9118 34.2623C86.4692 34.0928 86.0643 33.8378 85.7204 33.5118C85.3764 33.1857 85.1 32.7951 84.9071 32.3622C84.7141 31.9294 84.6084 31.4627 84.5959 30.9889C84.5894 30.8623 84.5894 30.7355 84.5959 30.6089C84.557 29.6462 84.8955 28.7064 85.5392 27.9895C86.1829 27.2727 87.081 26.8354 88.0423 26.7707C89.0035 26.7061 89.9521 27.0192 90.686 27.6434C91.4198 28.2676 91.8811 29.1537 91.9715 30.1129C91.9715 30.2803 91.9715 30.4414 91.9715 30.6089C92.0427 31.5599 91.7343 32.5005 91.1138 33.2248C90.4933 33.9491 89.6112 34.3982 88.6605 34.4738C88.5339 34.4803 88.4071 34.4803 88.2805 34.4738" fill="#00529C"/>
<path d="M101.093 21.3779H108.585V28.0386L112.733 21.3779H120.921L114.576 30.1579L121.107 39.8783H112.521L108.585 32.8505V39.8783H101.093V21.3779Z" fill="#00529C"/>
<path d="M153.006 30.4154L156.44 27.0206L159.699 30.2415L156.195 33.7071C155.858 32.887 155.343 32.1521 154.687 31.5555C154.167 31.0975 153.591 30.7058 152.974 30.3896L153.006 30.4154ZM136.593 22.9946C137.123 22.5021 137.804 22.2026 138.525 22.1443C138.783 22.1554 139.037 22.2181 139.27 22.3287C139.504 22.4394 139.713 22.5957 139.885 22.7885C140.101 22.9814 140.276 23.2173 140.397 23.4812C140.518 23.7451 140.582 24.0313 140.587 24.3216C140.52 24.8706 140.26 25.3778 139.852 25.7516C139.788 25.7967 135.143 30.7246 135.143 30.7246C135.143 30.7246 132.193 34.4736 136.631 38.2226C141.07 41.9717 144.361 38.622 144.361 38.5834L148.729 34.2546C148.8 34.2159 149.895 33.4107 151.306 34.8408C151.54 35.0412 151.731 35.2863 151.87 35.5617C152.008 35.8371 152.09 36.1373 152.111 36.4448C152.085 36.7992 151.989 37.1448 151.827 37.4613C151.666 37.7778 151.442 38.0586 151.17 38.2871L143.44 46.075L128.412 31.0918L136.625 22.9946H136.593ZM141.36 18.26L144.677 14.9683L146.307 16.5916C146.511 16.7666 146.677 16.9802 146.798 17.2202C146.919 17.4601 146.99 17.7216 147.009 17.9895C147.004 18.1607 146.965 18.3292 146.894 18.4851C146.824 18.6411 146.722 18.7813 146.597 18.8977C146.597 18.8977 145.231 20.2698 144.291 21.2038C144.029 20.5388 143.634 19.9344 143.13 19.4281C142.626 18.9217 142.024 18.5242 141.36 18.26ZM156.336 20.3729L155.847 20.856C155.737 20.9913 143.891 33.2561 142.023 34.8021C141.839 34.9793 141.622 35.1183 141.385 35.2112C141.147 35.3041 140.893 35.349 140.638 35.3432C140.326 35.3026 140.04 35.149 139.833 34.9116C138.905 33.9196 139.988 32.715 139.994 32.7022L149.515 22.8271C154.166 18.0088 149.702 13.3257 149.663 13.2871L144.58 8.06934L144.091 8.54602L121.294 31.0918L143.395 52.9933L166.373 30.2543L156.336 20.3729Z" fill="#00529C"/>
<path d="M161.058 6.62621V5.2477H161.934C162.43 5.2477 162.933 5.35077 162.933 5.89186C162.933 6.43296 162.404 6.61333 161.831 6.61333L161.058 6.62621ZM161.058 7.19952H161.844L163.036 9.13201H163.796L162.508 7.19952C162.813 7.19956 163.107 7.07937 163.325 6.86488C163.543 6.65039 163.668 6.35877 163.674 6.0529C163.677 6.0251 163.677 5.99697 163.674 5.96916C163.674 5.0931 163.165 4.68083 162.095 4.68083H160.395V9.18998H161.039L161.058 7.19952ZM161.896 10.7295C162.657 10.7181 163.399 10.4817 164.027 10.0502C164.655 9.61859 165.141 9.01105 165.425 8.30388C165.708 7.59672 165.777 6.82149 165.621 6.07562C165.466 5.32974 165.093 4.6465 164.55 4.11176C164.007 3.57702 163.319 3.21463 162.571 3.07014C161.822 2.92564 161.048 3.00549 160.345 3.29965C159.643 3.59381 159.042 4.08915 158.62 4.72343C158.198 5.3577 157.973 6.10262 157.973 6.86455C157.972 7.87745 158.37 8.84993 159.08 9.57276C159.789 10.2956 160.754 10.711 161.767 10.7295H161.896ZM158.72 6.86455C158.705 6.23693 158.877 5.61899 159.214 5.08971C159.552 4.56043 160.04 4.14386 160.615 3.89325C161.191 3.64264 161.828 3.56937 162.446 3.68281C163.063 3.79625 163.633 4.09125 164.082 4.5301C164.531 4.96894 164.839 5.5317 164.966 6.14643C165.093 6.76116 165.035 7.39993 164.797 7.9811C164.56 8.56226 164.154 9.05942 163.633 9.40901C163.112 9.7586 162.498 9.94475 161.87 9.94365C161.459 9.9462 161.051 9.86774 160.67 9.71276C160.29 9.55778 159.943 9.32931 159.65 9.04039C159.358 8.75148 159.125 8.40778 158.966 8.02892C158.806 7.65006 158.722 7.24347 158.72 6.83234" fill="#00529C"/>
<path d="M185.833 39.3047C184.279 40.0891 182.555 40.4784 180.815 40.4384C174.727 40.4384 170.392 36.5734 170.392 30.6278C170.392 23.9092 175.958 20.8107 180.699 20.8107C182.515 20.7825 184.301 21.2694 185.852 22.215V28.6889C185.342 28.0849 184.707 27.5992 183.991 27.2654C183.274 26.9317 182.494 26.758 181.704 26.7564C181.204 26.7158 180.701 26.7742 180.224 26.9281C179.747 27.082 179.305 27.3284 178.924 27.6533C178.542 27.9781 178.228 28.3751 178 28.8214C177.772 29.2676 177.634 29.7545 177.594 30.2542C177.578 30.4471 177.578 30.641 177.594 30.8339C177.594 33.1916 179.307 34.5379 181.684 34.5379C183.231 34.507 184.712 33.9034 185.839 32.8437L185.833 39.3047Z" fill="#00529C"/>
<path d="M187.45 21.3779H200.546V26.7309H194.928V28.3091H199.979V32.7539H194.928V34.5189H200.546V39.8719H187.45V21.3779Z" fill="#00529C"/>
<path d="M203.271 39.8783H210.775V34.1453H213.075C219.001 34.1453 220.528 30.4413 220.528 27.7487C220.528 25.0561 219.04 21.3779 213.075 21.3779H203.271V39.8783ZM210.775 26.1705H211.632C212.276 26.1705 213.416 26.2478 213.416 27.7487C213.416 28.5088 213.126 29.3527 211.632 29.3527H210.775V26.1705Z" fill="#00529C"/>
<path d="M229.862 35.4271V32.6766H230.77C231.491 32.6766 232.631 32.8054 232.631 34.0358C232.631 35.2661 231.459 35.4207 230.77 35.4207L229.862 35.4271ZM222.351 21.3779V39.8783H233.411C238.564 39.8783 239.73 36.5866 239.73 34.725C239.741 33.5729 239.328 32.457 238.571 31.589C237.813 30.721 236.763 30.1613 235.62 30.0162V29.9646C236.507 29.7563 237.304 29.268 237.892 28.5719C238.48 27.8759 238.829 27.0091 238.886 26.0997C238.886 24.6696 238.319 21.3779 232.947 21.3779H222.351ZM229.823 28.4186V25.842H230.519C231.807 25.842 232.168 26.4861 232.168 27.1303C232.168 27.7745 231.826 28.4186 230.519 28.4186H229.823Z" fill="#00529C"/>
<path d="M278.135 39.3044C276.58 40.086 274.857 40.4753 273.117 40.4381C267.023 40.4381 262.694 36.5732 262.694 30.6275C262.694 23.9089 268.26 20.804 273.001 20.804C274.808 20.7745 276.586 21.2521 278.135 22.1825V28.6886C277.628 28.0843 276.996 27.5981 276.281 27.2643C275.567 26.9305 274.788 26.757 273.999 26.7561C272.988 26.6742 271.986 26.9974 271.212 27.6545C270.439 28.3117 269.959 29.249 269.877 30.2604C269.864 30.4512 269.864 30.6428 269.877 30.8337C269.877 33.1913 271.597 34.5376 273.967 34.5376C275.519 34.5022 277.004 33.8942 278.135 32.8306V39.3044Z" fill="#00529C"/>
</svg>
