<svg width="231" height="69" viewBox="0 0 231 69" fill="none" xmlns="http://www.w3.org/2000/svg">
<path d="M113.446 17.8723C120.255 19.4681 124.298 15.2128 126.106 12.766C127.17 11.383 129.085 9.3617 130.468 7.87234L113.659 0L106.212 15.8511C107.383 16.1702 109.51 16.9149 113.446 17.8723Z" fill="#2581D3"/>
<path d="M135.574 10.3193C133.872 12.5534 129.829 17.6598 127.808 20.213C126.425 22.0215 127.276 22.6598 127.702 22.9789C129.723 24.4683 131.851 25.7449 134.191 26.7023C134.617 26.8087 135.042 27.0215 135.468 27.1278L142.063 13.1917L135.574 10.3193Z" fill="#2581D3"/>
<path d="M118.234 24.3618C113.872 22.2341 109.723 19.7873 105.787 16.8086L100.361 28.298L128.659 41.5958L133.978 30.1065C130.042 28.9363 121.957 25.9575 118.234 24.3618Z" fill="#2581D3"/>
<path d="M5.78692 44.1493H0.467773V38.9365H16.4252V44.1493H11.1061V67.6599H5.78692V44.1493Z" fill="#2581D3"/>
<path d="M19.1909 38.9365H34.6164V44.1493H24.5101V50.745H34.1909V55.9578H24.5101V62.5535H34.6164V67.6599H19.1909V38.9365Z" fill="#2581D3"/>
<path d="M46.8506 53.2982L36.957 38.9365H43.1272L49.9358 48.9365L56.8506 38.9365H63.0209L53.0209 53.2982L63.0209 67.6599H56.8506L49.9358 57.7663L43.1272 67.6599H36.957L46.8506 53.2982Z" fill="#2581D3"/>
<path d="M65.7871 38.9365H71.1063V50.5323H81.6382V38.9365H86.9573V67.6599H81.6382V55.6387H71.1063V67.6599H65.7871V38.9365Z" fill="#2581D3"/>
<path d="M105.894 63.1916C100.468 63.1916 96.2127 58.7235 96.2127 53.298C96.2127 47.8724 100.681 43.6171 106.106 43.6171C111.425 43.6171 115.787 47.9788 115.787 53.298C115.894 58.6171 111.532 63.0852 106.213 63.0852C106 63.1916 105.894 63.1916 105.894 63.1916ZM105.894 38.5107C97.7021 38.6171 91.1063 45.4256 91.2127 53.6171C91.3191 61.8086 98.1276 68.4044 106.319 68.298C114.404 68.1916 120.894 61.5958 121 53.5107C121.106 45.3193 114.404 38.6171 106.213 38.5107C106.106 38.5107 106 38.5107 105.894 38.5107Z" fill="#2581D3"/>
<path d="M131 55.4259L136.638 42.2344L142.17 55.4259H131ZM122.596 67.6599H125.681L129.83 57.9791H143.234L147.383 67.6599H150.468L138.128 38.9365H134.936L122.596 67.6599Z" fill="#2581D3"/>
<path d="M156.744 65.1067V53.8301H161.744C164.617 53.8301 169.191 54.3621 169.191 59.5748C169.191 64.5748 164.404 65.1067 161.744 65.1067H156.744ZM153.766 67.6599H161.638C171 67.6599 172.063 61.8089 172.063 59.5748C172.063 56.5961 170.574 53.2982 167.063 52.2344C169.191 51.0642 170.468 48.9365 170.468 46.4897C170.468 39.2557 163.978 38.9365 161 38.9365H153.766V67.6599ZM156.744 51.277V41.5961H161C163.127 41.5961 167.595 41.7025 167.595 46.4897C167.595 50.9578 163.34 51.277 161 51.277H156.744Z" fill="#2581D3"/>
<path d="M178.978 38.9365V63.6174L196.106 38.9365H199.085V67.6599H196.212V43.0855L179.085 67.6599H176.106V38.9365H178.978Z" fill="#2581D3"/>
<path d="M210.787 55.4259L216.425 42.2344L221.957 55.4259H210.787ZM202.383 67.6599H205.468L209.617 57.9791H223.021L227.17 67.6599H230.255L217.915 38.9365H214.723L202.383 67.6599Z" fill="#2581D3"/>
</svg>
