<svg width="170" height="82" viewBox="0 0 170 82" fill="none" xmlns="http://www.w3.org/2000/svg">
<path d="M52.2446 53.5561H62.9797V57.0894H57.8729V81.9149H52.2446V53.5561Z" fill="#0079C2"/>
<path d="M69.3441 71.2687L70.3087 57.0894H70.6318L71.5964 71.2687H69.3441ZM63.1113 81.9149H68.6218L69.1434 74.3835H71.7972L72.321 81.9149H77.8293L74.894 53.5561H66.0466L63.1113 81.9149Z" fill="#0079C2"/>
<path d="M85.8898 71.9893V77.3356C85.8898 78.0562 86.4437 78.2654 86.7667 78.2654C87.2975 78.2654 87.6667 77.8238 87.6667 77.3356V70.7341C87.6667 69.8508 87.5052 68.8745 85.4052 68.8745H83.1207V65.7597H85.4975C87.0898 65.7597 87.6667 65.3878 87.6667 63.6444V58.0192C87.6667 57.531 87.2975 57.0894 86.7667 57.0894C86.4437 57.0894 85.8898 57.2753 85.8898 58.0192V62.6449H80.2592V58.6235C80.2592 56.6477 80.49 53.5561 84.436 53.5561H89.0974C93.0435 53.5561 93.2973 56.6477 93.2973 58.6235V63.1563C93.2973 66.2478 91.1512 67.0847 89.4666 67.0149V67.2939C93.2511 67.2009 93.2973 70.1297 93.2973 71.1293V76.8475C93.2973 78.8466 93.0435 81.9149 89.0974 81.9149H84.436C80.49 81.9149 80.2592 78.8466 80.2592 76.8475V71.9893H85.8898Z" fill="#0079C2"/>
<path d="M96.9895 53.5561H110.028V81.9149H104.397V57.0894H102.62V81.9149H96.9895V53.5561Z" fill="#0079C2"/>
<path d="M119.35 69.1535V57.0894H120.089C120.689 57.0894 121.127 57.6007 121.127 58.5073V67.7355C121.127 68.6421 120.689 69.1535 120.089 69.1535H119.35ZM113.72 81.9149H119.35V72.2683H122.581C126.504 72.2683 126.758 69.2 126.758 67.2009V58.6235C126.758 56.6477 126.504 53.5561 122.581 53.5561H113.72V81.9149Z" fill="#0079C2"/>
<path d="M137.858 77.3356C137.858 77.8238 137.488 78.2654 136.958 78.2654C136.635 78.2654 136.081 78.0562 136.081 77.3356V58.0192C136.081 57.2753 136.635 57.0894 136.958 57.0894C137.488 57.0894 137.858 57.531 137.858 58.0192V77.3356ZM130.45 76.8475C130.45 78.8466 130.704 81.9149 134.627 81.9149H139.311C143.234 81.9149 143.488 78.8466 143.488 76.8475V58.6235C143.488 56.6477 143.234 53.5561 139.311 53.5561H134.627C130.704 53.5561 130.45 56.6477 130.45 58.6235V76.8475Z" fill="#0079C2"/>
<path d="M161.811 53.5561H169.149V81.9149H163.518V64.1326H163.311L160.403 81.9149H155.903L153.019 64.1326H152.811V81.9149H147.18V53.5561H154.496L158.165 73.5002L161.811 53.5561Z" fill="#0079C2"/>
<path d="M44.9479 14.7837C43.2241 7.18266 38.9043 0.99953 38.3089 0C37.3674 1.41794 33.9221 6.88047 32.1706 12.9241C30.2576 19.6884 29.976 25.6856 30.636 31.5665C31.2914 37.4707 33.7675 43.5376 33.7675 43.5376C35.0828 46.6989 37.0535 50.1159 38.3366 51.7895C40.2173 49.3256 44.5395 41.9802 45.8871 32.4033C46.6371 27.057 46.6694 22.3848 44.9479 14.7837ZM38.3089 49.8835C37.462 48.2796 36.1466 45.2345 36.022 40.4925C35.9897 35.9366 37.8058 32.0082 38.3366 31.1946C38.8096 32.0082 40.3742 35.4252 40.5611 40.0974C40.6881 44.6534 39.1835 48.2563 38.3089 49.8835ZM44.4472 27.6846C44.3826 30.5902 44.0387 33.6586 43.6003 35.4949C43.7572 32.3336 43.3811 27.8938 42.6611 24.4071C41.9411 20.9436 39.9034 15.1324 38.2766 12.4592C36.7743 15.0162 34.9236 20.0371 33.9544 24.3839C32.9806 28.7306 32.9529 34.0072 32.9529 35.5879C32.6944 34.2629 32.0483 29.4977 32.2306 24.7325C32.3829 20.8041 33.2967 16.7363 33.7975 14.8767C35.7082 8.67034 37.8704 4.69546 38.2766 4.06784C38.6827 4.69546 41.4057 9.60012 42.818 14.7372C44.2233 19.8744 44.5072 24.8023 44.4472 27.6846Z" fill="#0079C2"/>
<path d="M28.1276 53.5561V62.4124C28.1392 62.4124 28.1484 62.3892 28.16 62.3892C31.2476 59.2744 36.2551 59.2744 39.345 62.3892C42.4326 65.4808 42.4326 70.5249 39.345 73.6397C39.3312 73.663 39.3173 73.663 39.3035 73.6862C39.2873 73.6862 39.2712 73.7095 39.2573 73.7327C36.1766 76.801 32.1522 78.3352 28.1276 78.3352C24.0847 78.3352 20.0417 76.801 16.9587 73.6862C11.522 68.2237 10.8782 59.7393 15.0226 53.5561C15.5811 52.7193 16.2249 51.929 16.9587 51.1852C20.0417 48.0704 24.0847 46.5362 28.1276 46.5362V25.2439C12.5927 25.2439 0 37.9123 0 53.5561C0 69.1999 12.5927 81.8916 28.1276 81.8916C36.2274 81.8916 43.5241 78.4281 48.6563 72.9191V53.5561H28.1276Z" fill="#0079C2"/>
</svg>
