<svg width="195" height="40" viewBox="0 0 195 40" fill="none" xmlns="http://www.w3.org/2000/svg">
<path d="M36.315 3.49023H0.766113V39.0193H36.315V3.49023Z" fill="#ED1B34"/>
<path d="M30.5759 7.03598C29.7588 7.03598 29.1373 7.57207 28.8281 8.22176L24.3522 15.5901C24.043 16.271 23.8176 17.0357 23.8176 17.5435C23.8176 17.9975 23.8764 18.3948 24.0438 18.7636L28.8829 30.3198H10.0817C9.4065 30.3198 8.84797 29.6445 8.84797 29.0175V9.09911C8.70611 6.37833 4.79312 6.3783 4.70801 9.18136L4.79026 30.3198C4.79026 32.6179 6.56694 34.4598 8.84797 34.4598H34.4828L28.2386 18.4826C28.0684 17.8868 27.9832 17.348 28.4031 16.6388L32.5431 9.92161C32.6026 9.77976 32.6801 9.18424 32.6801 9.01685C32.5979 7.7969 31.6455 6.97924 30.5759 7.03598ZM20.4248 7.04284C19.419 7.04993 18.4165 7.73872 18.4165 9.09911V23.3559C18.4165 25.4242 15.6268 25.2568 15.6268 23.3559V9.09911C15.6268 6.37833 11.6034 6.37833 11.6034 9.09911V23.4656C11.6034 26.7509 14.0492 28.9353 16.9771 28.9353C19.9872 28.9353 22.4399 26.7509 22.4399 23.4656V9.09911C22.4399 7.71034 21.4305 7.03574 20.4248 7.04284Z" fill="white"/>
<path d="M49.7144 7.615V22.4048C49.7144 26.1016 49.3371 28.1556 46.3297 28.1556C45.7652 28.1556 45.3878 28.1556 44.8232 27.9513V34.3178C45.9524 34.7292 46.7042 34.7292 47.6462 34.7292C56.1092 34.7292 56.4866 28.3627 56.4866 24.6631V13.9843H61.3749V34.3178H68.147V7.615H49.7144Z" fill="black"/>
<path d="M70.4025 7.615L79.6203 26.9243L76.2356 34.3178H83.5695L94.4782 7.615H87.1443L83.195 18.9123L78.4911 7.615H70.4025Z" fill="black"/>
<path d="M96.5465 34.3178H103.319V22.8162L110.278 34.3178H118.931L109.339 20.555L118.741 7.615H110.655L103.319 18.9123V7.615H96.5465V34.3178Z" fill="black"/>
<path d="M130.027 35.1406C139.055 35.1406 143.194 28.1556 143.194 20.9664C143.194 13.9843 139.055 6.99935 130.027 6.99935C121.187 6.99935 117.05 13.9843 117.05 20.9664C117.05 28.1556 121.187 35.1406 130.027 35.1406ZM130.027 28.7713C127.017 28.7713 124.01 26.1016 124.01 20.9664C124.01 15.8312 127.017 13.3658 130.027 13.3658C133.224 13.3658 136.235 15.8312 136.235 20.9664C136.235 26.1016 133.224 28.7713 130.027 28.7713Z" fill="black"/>
<path d="M146.579 7.615V34.3178H153.164L162.566 18.2967V34.3178H169.151V7.615H162.566L153.164 23.6361V7.615H146.579ZM158.052 6.17659C160.875 6.17659 163.695 5.14955 165.011 2.06846L161.062 0.425781C160.498 2.47985 158.804 2.68695 158.052 2.68695C157.487 2.68695 155.606 2.47985 155.232 0.425781L151.283 2.06846C152.409 5.14955 155.419 6.17659 158.052 6.17659Z" fill="black"/>
<path d="M176.297 7.615V22.4048C176.297 26.1016 175.92 28.1556 172.913 28.1556C172.348 28.1556 171.971 28.1556 171.406 27.9513V34.3178C172.535 34.7292 173.287 34.7292 174.229 34.7292C182.692 34.7292 183.07 28.3627 183.07 24.6631V13.9843H187.958V34.3178H194.73V7.615H176.297Z" fill="black"/>
</svg>
