<svg width="28" height="32" viewBox="0 0 28 32" fill="none" xmlns="http://www.w3.org/2000/svg">
<path d="M1 23.4998H0C0 23.8572 0.190717 24.1874 0.50027 24.366L1 23.4998ZM1 8.49963L0.500296 7.63344C0.190728 7.81203 0 8.14225 0 8.49963H1ZM14 31L13.5003 31.8662C13.8095 32.0446 14.1904 32.0446 14.4997 31.8662L14 31ZM27 23.5003L27.4997 24.3665C27.8093 24.1879 28 23.8577 28 23.5003H27ZM27 8.50014H28C28 8.14276 27.8093 7.81255 27.4997 7.63396L27 8.50014ZM14 1L14.4997 0.133818C14.1905 -0.044601 13.8095 -0.0446064 13.5003 0.133804L14 1ZM9.03638 4.58116C8.56153 4.29914 7.94797 4.45547 7.66595 4.93032C7.38394 5.40517 7.54026 6.01874 8.01511 6.30075L9.03638 4.58116ZM20.1573 12.349H21.1573C21.1573 11.9961 20.9713 11.6693 20.6679 11.4892L20.1573 12.349ZM19.1573 17.8754C19.1573 18.4276 19.605 18.8754 20.1573 18.8754C20.7096 18.8754 21.1573 18.4276 21.1573 17.8754H19.1573ZM2 23.4998V8.49963H0V23.4998H2ZM0.500274 9.36582L13.5003 16.8659L14.4997 15.1335L1.49973 7.63345L0.500274 9.36582ZM13 15.9997V31H15V15.9997H13ZM14.4997 30.1338L1.49973 22.6337L0.50027 24.366L13.5003 31.8662L14.4997 30.1338ZM14.4997 31.8662L27.4997 24.3665L26.5003 22.6341L13.5003 30.1338L14.4997 31.8662ZM28 23.5003V8.50014H26V23.5003H28ZM26.5003 7.63394L13.5003 15.1335L14.4997 16.8659L27.4997 9.36634L26.5003 7.63394ZM13.5003 0.133804L0.500296 7.63344L1.4997 9.36583L14.4997 1.8662L13.5003 0.133804ZM27.4997 7.63396L14.4997 0.133818L13.5003 1.86618L26.5003 9.36632L27.4997 7.63396ZM8.01511 6.30075L19.6467 13.2088L20.6679 11.4892L9.03638 4.58116L8.01511 6.30075ZM19.1573 12.349V17.8754H21.1573V12.349H19.1573Z" fill="#84AA32"/>
</svg>
