<svg width="31" height="28" viewBox="0 0 31 28" fill="none" xmlns="http://www.w3.org/2000/svg">
<path d="M16.6546 22.204C15.9667 21.7079 15.0333 21.7079 14.3454 22.204L7.87132 26.873C7.3615 27.2408 6.67294 26.7506 6.86431 26.1562L9.32437 18.515C9.58378 17.7092 9.28404 16.8304 8.58404 16.3442L2.27875 11.9653C1.75696 11.6029 2.01639 10.7921 2.65413 10.7921H10.315C11.1581 10.7921 11.9066 10.2589 12.1732 9.46845L14.8806 1.44121C15.079 0.85293 15.921 0.85293 16.1194 1.44121L18.8268 9.46845C19.0934 10.2589 19.8419 10.7921 20.6849 10.7921H28.3458C28.9836 10.7921 29.243 11.6029 28.7213 11.9653L22.416 16.3442C21.716 16.8304 21.4162 17.7092 21.6756 18.515L24.1357 26.1562C24.327 26.7506 23.6385 27.2408 23.1287 26.873L16.6546 22.204Z" stroke="#84AA32" stroke-width="2"/>
</svg>
