<svg width="30" height="30" viewBox="0 0 30 30" fill="none" xmlns="http://www.w3.org/2000/svg">
<path d="M25.834 23.9911C26.2924 23.5324 26.2929 22.7799 25.8355 22.3206L25.0974 21.5985C24.593 21.1412 24.2997 20.5053 24.2997 19.8202C24.2997 18.4654 25.3982 17.3226 26.7537 17.3226H27.9191C28.5343 17.3226 28.9997 16.8581 28.9997 16.1678V13.8322L28.9998 13.8219C29.0098 13.1412 28.5509 12.6774 27.9344 12.6774H26.769C25.4116 12.6774 24.315 11.525 24.315 10.1797C24.315 9.48539 24.6097 8.85755 25.1127 8.40154L25.8511 7.67912C25.8515 7.67874 25.852 7.67835 25.8523 7.67798C26.3153 7.21908 26.3146 6.46885 25.8508 6.01045L24.141 4.31819L24.1388 4.31594C23.9424 4.11993 23.6275 3.98635 23.2958 3.98635C22.97 3.98635 22.659 4.11604 22.4497 4.31909L21.7442 5.02365C21.2704 5.54153 20.6273 5.83176 19.9299 5.83176C18.5814 5.83176 17.4222 4.7418 17.4222 3.38767V2.21611C17.4222 1.54888 16.8796 1 16.2496 1H13.9188C13.2907 1 12.7539 1.53924 12.7539 2.21611V3.38001C12.7539 4.73414 11.5946 5.82411 10.2462 5.82411C9.557 5.82411 8.9234 5.53447 8.46575 5.04231L7.73348 4.31852L7.72531 4.31031C7.53571 4.11665 7.22671 3.98635 6.88793 3.98635C6.56083 3.98635 6.2487 4.11707 6.03933 4.32152L4.31737 6.00304C3.85845 6.46407 3.86304 7.21491 4.31723 7.66378L4.31985 7.66639L5.02843 8.37405C5.54038 8.84109 5.84569 9.4812 5.84569 10.1797C5.84569 11.5346 4.74716 12.6774 3.39168 12.6774H2.22626C1.53289 12.6774 1 13.2127 1 13.8322V16.1601C1 16.7738 1.53483 17.3149 2.22626 17.3149H3.39168C4.74909 17.3149 5.84569 18.4673 5.84569 19.8126C5.84569 20.5119 5.53978 21.1525 5.02692 21.6196L4.31985 22.3184C4.31945 22.3187 4.31907 22.3191 4.31867 22.3195C3.85844 22.7804 3.86261 23.5322 4.31723 23.9815L4.31874 23.9831L6.02852 25.6829L6.03523 25.6896C6.22482 25.8833 6.53383 26.0136 6.8726 26.0136C7.19904 26.0136 7.51057 25.8834 7.71992 25.6798C7.72034 25.6793 7.72077 25.6789 7.7212 25.6785L8.4478 24.9602C8.90335 24.4611 9.54791 24.1759 10.2308 24.1759C11.5793 24.1759 12.7386 25.2659 12.7386 26.62V27.7839C12.7386 28.4531 13.2753 29 13.9112 29H16.242C16.87 29 17.4069 28.4608 17.4069 27.7839V26.62C17.4069 25.2659 18.5661 24.1759 19.9146 24.1759C20.6156 24.1759 21.2529 24.4822 21.7241 24.9792L22.4344 25.6886C22.6437 25.8916 22.9547 26.0213 23.2804 26.0213C23.6064 26.0213 23.9176 25.8914 24.1269 25.6882C24.1276 25.6875 24.1283 25.6868 24.129 25.6861L25.834 23.9911ZM25.834 23.9911C25.8337 23.9913 25.8342 23.9908 25.834 23.9911ZM15.0766 21.8279C18.8633 21.8279 21.9162 18.7626 21.9162 14.9961C21.9162 11.2297 18.8633 8.16444 15.0766 8.16444C11.2898 8.16444 8.23687 11.2297 8.23687 14.9961C8.23687 18.7626 11.2898 21.8279 15.0766 21.8279ZM18.3047 14.9999C18.3047 16.8251 16.8251 18.3047 14.9999 18.3047C13.1747 18.3047 11.6951 16.8251 11.6951 14.9999C11.6951 13.1747 13.1747 11.6951 14.9999 11.6951C16.8251 11.6951 18.3047 13.1747 18.3047 14.9999Z" stroke="#84AA32" stroke-width="2"/>
</svg>
