<svg width="33" height="28" viewBox="0 0 33 28" fill="none" xmlns="http://www.w3.org/2000/svg">
<path d="M11.5 18C17.5751 18 22 14.2164 22 9.33962M11.5 18C5.42487 18 1 14.2164 1 9.33962M11.5 18H21.75H32V27H11.5C5.42487 27 1 23.0466 1 18.1698V9.33962M22 9.33962C22 4.46284 17.5751 1 11.5 1C5.42487 1 1 4.46284 1 9.33962M22 9.33962C22 9.33962 22 14.7432 22 18M27 20.6226V26.5094M23 23.566V26.5094M19 20.6226V26.5094M15 23.566V26.5094M11 20.6226V26.5094M16 9.5C16 11.5 14.5 13 11.5 13C8.5 13 7 11.5 7 9.5C7 7.5 8.5 6 11.5 6C14.5 6 16 7.5 16 9.5Z" stroke="#84AA32" stroke-width="2"/>
</svg>
