<svg width="24" height="20" viewBox="0 0 24 20" fill="none" xmlns="http://www.w3.org/2000/svg">
<path d="M18.9 13.747C18.9749 13.747 19.0125 13.7861 19.0875 13.8642C19.1625 13.9423 19.2 13.9814 19.2 14.0596V15.9355C19.2 16.0138 19.1625 16.0919 19.0875 16.17C19.0125 16.2483 18.9749 16.2483 18.9 16.2483H5.1C5.025 16.2483 4.95 16.2483 4.875 16.17C4.8 16.0919 4.8 16.0138 4.8 15.9355V14.0596C4.8 13.9814 4.8 13.9423 4.875 13.8642C4.95 13.7861 5.025 13.747 5.1 13.747H18.9ZM18.9 17.4988C18.9749 17.4988 19.0125 17.5378 19.0875 17.6161C19.1625 17.6942 19.2 17.7333 19.2 17.8114V19.6874C19.2 19.7655 19.1625 19.8438 19.0875 19.9219C19.0125 20 18.9749 20 18.9 20H5.1C5.025 20 4.95 20 4.875 19.9219C4.8 19.8438 4.8 19.7655 4.8 19.6874V17.8114C4.8 17.7333 4.8 17.6942 4.875 17.6161C4.95 17.5378 5.025 17.4988 5.1 17.4988H18.9ZM18.9 9.99513C18.9749 9.99513 19.0125 10.0342 19.0875 10.1124C19.1625 10.1905 19.2 10.2296 19.2 10.3078V12.1837C19.2 12.2619 19.1625 12.34 19.0875 12.4182C19.0125 12.4964 18.9749 12.4964 18.9 12.4964H5.13749C5.025 12.4964 4.95 12.4964 4.91249 12.4182C4.83749 12.34 4.83749 12.2619 4.83749 12.1837V10.3078C4.83749 10.2296 4.83749 10.1905 4.91249 10.1124C4.95 10.0342 5.025 9.99513 5.13749 9.99513H18.9ZM22.9125 4.56278H22.8749C23.2125 4.71912 23.4749 4.95359 23.7 5.26626C23.8875 5.57891 24 5.93064 24 6.28238V19.6874C24 19.7655 23.9625 19.8438 23.8875 19.9219C23.8125 20 23.7749 20 23.7 20H20.7C20.6251 20 20.55 20 20.4749 19.9219C20.4 19.8438 20.4 19.7655 20.4 19.6874V9.99513C20.4 9.68248 20.25 9.36983 20.0249 9.13533C19.8 8.90085 19.5 8.74452 19.1625 8.74452H4.83749C4.46249 8.74452 4.16249 8.90085 3.93749 9.13533C3.71249 9.36983 3.6 9.68248 3.6 9.99513V19.6874C3.6 19.7655 3.56251 19.8438 3.48749 19.9219C3.41251 20 3.375 20 3.3 20H0.3C0.225 20 0.15 20 0.075 19.9219C0 19.8438 0 19.7655 0 19.6874V6.28238C0 5.93064 0.075 5.57891 0.3 5.26626C0.4875 4.95359 0.75 4.71912 1.125 4.56278L11.325 0.146556C11.775 -0.0488521 12.225 -0.0488521 12.675 0.146556L22.9125 4.56278Z" fill="#84AA32"/>
</svg>
