<svg width="21" height="24" viewBox="0 0 21 24" fill="none" xmlns="http://www.w3.org/2000/svg">
<path d="M18.4238 5.71875C18.7361 5.40625 19.0952 5.25 19.5011 5.25C19.9071 5.25 20.2506 5.40625 20.5316 5.71875C20.8439 6 21 6.34375 21 6.75V15C21 15.6875 20.9219 16.3437 20.7658 16.9688L19.5011 22.2656C19.4074 22.7656 19.142 23.1719 18.7048 23.4844C18.2989 23.8281 17.8461 24 17.3465 24H8.07213C7.32272 24 6.7137 23.6875 6.24539 23.0625L0.390278 15C0.0781102 14.5625 -0.0468639 14.0937 0.0156229 13.5937C0.109286 13.0625 0.359101 12.6563 0.765065 12.375C1.20221 12.0625 1.67066 11.9531 2.17029 12.0469C2.70109 12.1094 3.10706 12.3437 3.38805 12.75L4.51228 14.2969V3C4.51228 2.59375 4.65284 2.25 4.93383 1.96875C5.24613 1.65625 5.60519 1.5 6.01116 1.5C6.41712 1.5 6.7606 1.65625 7.04159 1.96875C7.35389 2.25 7.51004 2.59375 7.51004 3V10.125C7.51004 10.375 7.63502 10.5 7.88476 10.5H8.63421C8.88402 10.5 9.00893 10.375 9.00893 10.125V1.5C9.00893 1.09375 9.14945 0.75 9.43049 0.468749C9.74275 0.156251 10.1019 0 10.5078 0C10.9138 0 11.2573 0.156251 11.5383 0.468749C11.8506 0.75 12.0067 1.09375 12.0067 1.5V10.125C12.0067 10.375 12.1316 10.5 12.3814 10.5H13.1309C13.3807 10.5 13.5056 10.375 13.5056 10.125V3C13.5056 2.59375 13.6461 2.25 13.9271 1.96875C14.2394 1.65625 14.5985 1.5 15.0045 1.5C15.4104 1.5 15.7539 1.65625 16.035 1.96875C16.3472 2.25 16.5033 2.59375 16.5033 3V10.125C16.5033 10.375 16.6283 10.5 16.8781 10.5H17.6275C17.8773 10.5 18.0022 10.375 18.0022 10.125V6.75C18.0022 6.34375 18.1428 6 18.4238 5.71875ZM7.6974 19.3125C7.85354 19.4375 8.0409 19.5 8.25949 19.5C8.47807 19.5 8.64982 19.4375 8.77473 19.3125C8.93087 19.1563 9.00893 18.9688 9.00893 18.75C9.00893 18.5312 8.93087 18.3593 8.77473 18.2344C8.64982 18.0781 8.47807 18 8.25949 18C8.0409 18 7.85354 18.0781 7.6974 18.2344C7.57253 18.3593 7.51004 18.5312 7.51004 18.75C7.51004 18.9688 7.57253 19.1563 7.6974 19.3125ZM7.6974 14.8125C7.85354 14.9375 8.0409 15 8.25949 15C8.47807 15 8.64982 14.9375 8.77473 14.8125C8.93087 14.6563 9.00893 14.4688 9.00893 14.25C9.00893 14.0312 8.93087 13.8593 8.77473 13.7344C8.64982 13.5781 8.47807 13.5 8.25949 13.5C8.0409 13.5 7.85354 13.5781 7.6974 13.7344C7.57253 13.8593 7.51004 14.0312 7.51004 14.25C7.51004 14.4688 7.57253 14.6563 7.6974 14.8125ZM10.6952 20.8125C10.8513 20.9375 11.0387 21 11.2573 21C11.4758 21 11.6476 20.9375 11.7725 20.8125C11.9286 20.6563 12.0067 20.4688 12.0067 20.25C12.0067 20.0312 11.9286 19.8593 11.7725 19.7344C11.6476 19.5781 11.4758 19.5 11.2573 19.5C11.0387 19.5 10.8513 19.5781 10.6952 19.7344C10.5703 19.8593 10.5078 20.0312 10.5078 20.25C10.5078 20.4688 10.5703 20.6563 10.6952 20.8125ZM10.6952 16.3125C10.8513 16.4375 11.0387 16.5 11.2573 16.5C11.4758 16.5 11.6476 16.4375 11.7725 16.3125C11.9286 16.1563 12.0067 15.9688 12.0067 15.75C12.0067 15.5312 11.9286 15.3593 11.7725 15.2344C11.6476 15.0781 11.4758 15 11.2573 15C11.0387 15 10.8513 15.0781 10.6952 15.2344C10.5703 15.3593 10.5078 15.5312 10.5078 15.75C10.5078 15.9688 10.5703 16.1563 10.6952 16.3125ZM13.6929 17.8125C13.8491 17.9375 14.0364 18 14.255 18C14.4736 18 14.6454 17.9375 14.7703 17.8125C14.9264 17.6563 15.0045 17.4688 15.0045 17.25C15.0045 17.0312 14.9264 16.8593 14.7703 16.7344C14.6454 16.5781 14.4736 16.5 14.255 16.5C14.0364 16.5 13.8491 16.5781 13.6929 16.7344C13.568 16.8593 13.5056 17.0312 13.5056 17.25C13.5056 17.4688 13.568 17.6563 13.6929 17.8125ZM15.1918 20.8125C15.348 20.9375 15.5353 21 15.7539 21C15.9725 21 16.1442 20.9375 16.2691 20.8125C16.4253 20.6563 16.5033 20.4688 16.5033 20.25C16.5033 20.0312 16.4253 19.8593 16.2691 19.7344C16.1442 19.5781 15.9725 19.5 15.7539 19.5C15.5353 19.5 15.348 19.5781 15.1918 19.7344C15.0669 19.8593 15.0045 20.0312 15.0045 20.25C15.0045 20.4688 15.0669 20.6563 15.1918 20.8125ZM16.6907 14.8125C16.8468 14.9375 17.0342 15 17.2528 15C17.4714 15 17.6431 14.9375 17.768 14.8125C17.9242 14.6563 18.0022 14.4688 18.0022 14.25C18.0022 14.0312 17.9242 13.8593 17.768 13.7344C17.6431 13.5781 17.4714 13.5 17.2528 13.5C17.0342 13.5 16.8468 13.5781 16.6907 13.7344C16.5658 13.8593 16.5033 14.0312 16.5033 14.25C16.5033 14.4688 16.5658 14.6563 16.6907 14.8125Z" fill="#84AA32"/>
</svg>
