<svg width="23" height="24" viewBox="0 0 23 24" fill="none" xmlns="http://www.w3.org/2000/svg">
<path d="M21.5625 3.93749C22.0097 4.09374 22.361 4.35937 22.6167 4.73437C22.8722 5.10937 23 5.53125 23 5.99999C23 7.96874 22.7604 9.85936 22.2813 11.6719C21.8021 13.453 21.1952 15 20.4604 16.3125C19.7258 17.5937 18.8631 18.7656 17.8729 19.8281C16.9146 20.8593 15.9723 21.6874 15.0459 22.3125C14.1514 22.9688 13.2569 23.4688 12.3625 23.8125C11.7875 24.0625 11.2125 24.0625 10.6375 23.8125C9.29583 23.2812 8.00208 22.4844 6.75625 21.4218C5.54237 20.3906 4.4243 19.1406 3.40208 17.6718C2.37986 16.1718 1.54931 14.4062 0.910417 12.375C0.303472 10.3437 0 8.21873 0 5.99999C0 5.8125 0.0159723 5.64062 0.0479166 5.48437C0.111805 5.29687 0.175694 5.12499 0.239583 4.96874C0.335417 4.8125 0.43125 4.67187 0.527084 4.54687C0.654861 4.42187 0.782639 4.3125 0.910417 4.21874C1.07014 4.09374 1.24583 3.99999 1.4375 3.93749L10.6375 0.1875C10.8931 0.0624999 11.1805 0 11.5 0C11.8195 0 12.1069 0.0624999 12.3625 0.1875L21.5625 3.93749ZM11.5 20.9062C13.8958 19.75 15.8763 17.9062 17.4417 15.3749C19.039 12.8437 19.8694 9.89061 19.9333 6.51562L11.5 3.04688V20.9062Z" fill="#84AA32"/>
</svg>
