<svg width="21" height="24" viewBox="0 0 21 24" fill="none" xmlns="http://www.w3.org/2000/svg">
<path d="M17.4827 5.29784C18.3894 5.1416 19.2023 5.39158 19.9214 6.0478C20.6404 6.67277 21 7.45399 21 8.39143V14.5786C21 15.2974 20.9218 16.0004 20.7655 16.688L19.3586 22.8282C19.2648 23.1719 19.0773 23.4532 18.7958 23.6719C18.5457 23.8907 18.233 24 17.8579 24H7.44706C6.91557 24 6.49351 23.7969 6.18087 23.3907L0.600267 15.4692C0.100044 14.7818 -0.0875389 14.0161 0.0375167 13.1724C0.162572 12.2975 0.569002 11.61 1.25681 11.1101C2.16347 10.4538 3.13265 10.3132 4.16436 10.6882V4.78224C4.16436 3.75105 4.55514 2.92296 5.33675 2.29799C6.14961 1.67302 7.05626 1.48554 8.0567 1.73553C8.61946 0.610577 9.52611 0.032482 10.7767 0.00123349C12.0272 -0.0300149 12.9651 0.532457 13.5904 1.68865C14.5595 1.43866 15.4506 1.64177 16.2635 2.29799C17.0764 2.92296 17.4827 3.75105 17.4827 4.78224V5.29784ZM18.749 14.5786V8.39143C18.749 8.01645 18.6083 7.75085 18.3269 7.59461C18.0455 7.43836 17.7486 7.43836 17.4359 7.59461C17.1546 7.75085 17.0138 8.03208 17.0138 8.43831V12.0006C17.0138 12.2194 16.9357 12.4069 16.7793 12.5631C16.6543 12.6881 16.4823 12.7506 16.2635 12.7506H15.982C15.7633 12.7506 15.5757 12.6881 15.4194 12.5631C15.2943 12.4069 15.2317 12.2194 15.2317 12.0006V4.78224C15.2317 4.40726 15.0755 4.14165 14.7628 3.98541C14.4814 3.79792 14.2 3.78229 13.9187 3.93854C13.6373 4.09478 13.4967 4.36039 13.4967 4.73538V12.0006C13.4967 12.2194 13.4185 12.4069 13.2621 12.5631C13.1371 12.6881 12.9651 12.7506 12.7463 12.7506H12.418C12.2304 12.7506 12.0585 12.6881 11.9022 12.5631C11.7458 12.4069 11.6677 12.2194 11.6677 12.0006V3.18857C11.6677 2.81359 11.527 2.54798 11.2456 2.39173C10.9642 2.20425 10.6829 2.18862 10.4015 2.34487C10.1201 2.50111 9.97943 2.76671 9.97943 3.1417V12.0006C9.97943 12.2194 9.90128 12.4069 9.74496 12.5631C9.58864 12.6881 9.41668 12.7506 9.2291 12.7506H8.90084C8.68198 12.7506 8.4944 12.6881 8.33808 12.5631C8.21302 12.4069 8.1505 12.2194 8.1505 12.0006V4.82912C8.1505 4.45414 7.99418 4.18852 7.68153 4.03228C7.40017 3.84479 7.11879 3.82917 6.83741 3.98541C6.55603 4.14165 6.41534 4.40726 6.41534 4.78224V14.4381C6.41534 14.813 6.2434 15.063 5.8995 15.188C5.55559 15.2818 5.27422 15.188 5.05537 14.9067L3.78919 13.1256C3.66414 12.9381 3.50781 12.8287 3.32022 12.7975C3.13265 12.735 2.96069 12.735 2.80437 12.7975C2.64806 12.86 2.50737 12.9693 2.38231 13.1256C2.28852 13.2506 2.24162 13.4068 2.24162 13.5943C2.24162 13.7818 2.30414 13.9693 2.4292 14.1568L7.82222 21.7501H17.2952L18.5613 16.1723C18.6864 15.6411 18.749 15.1099 18.749 14.5786Z" fill="#84AA32"/>
</svg>
