<svg width="22" height="20" viewBox="0 0 22 20" fill="none" xmlns="http://www.w3.org/2000/svg">
<path d="M4.76687 6.37609L0 2.56538L1.55984 0.622665L4.76687 3.18804L8.76007 0L12.7533 3.18804L16.7465 0L21.5258 3.81071L19.966 5.75342L16.7465 3.18804L12.7533 6.37609L8.76007 3.18804L4.76687 6.37609ZM4.76687 14.4707L0 10.66L1.55984 8.71731L4.76687 11.2827L8.76007 8.09465L12.7533 11.2827L16.7465 8.09465L21.5258 11.9054L19.966 13.8481L16.7465 11.2827L12.7533 14.4707L8.76007 11.2827L4.76687 14.4707ZM0.78616 17.5093H22V20H0.78616V17.5093Z" fill="#84AA32"/>
</svg>
