<svg width="22" height="20" viewBox="0 0 22 20" fill="none" xmlns="http://www.w3.org/2000/svg">
<path d="M14.0684 7.21057C13.7675 6.97608 13.4666 6.78067 13.1656 6.54618C12.9937 6.46802 12.8647 6.46802 12.6928 6.46802C12.5208 6.46802 12.3918 6.54618 12.3059 6.62434L11.3601 7.44506C11.0161 7.75771 10.8442 8.14853 10.8872 8.6175C10.8872 8.852 10.9731 9.00833 11.1451 9.08649C11.3171 9.20374 11.446 9.32098 11.618 9.43822C12.2199 9.98536 12.5208 10.6498 12.5208 11.4314C12.5208 12.213 12.2199 12.8774 11.618 13.4246L8.73769 16.043C8.13582 16.5901 7.40499 16.8637 6.5452 16.8637C5.6854 16.8637 4.95458 16.5901 4.35272 16.043C3.75086 15.4959 3.44993 14.8315 3.44993 14.0499C3.44993 13.2682 3.79385 12.6038 4.39571 12.0567L4.95458 11.5095C5.12653 11.3532 5.21252 11.1188 5.12653 10.8842C4.8686 10.2199 4.69664 9.51639 4.69664 8.81291C4.65364 8.57843 4.48169 8.38302 4.22375 8.26578C3.96581 8.1876 3.70788 8.22669 3.53591 8.38302L1.90229 9.86812C1.0425 10.6498 0.483636 11.5095 0.225696 12.5257C-0.0752321 13.5418 -0.0752321 14.5579 0.225696 15.5741C0.483636 16.5901 1.0425 17.489 1.90229 18.2706C2.7621 19.0523 3.75086 19.5604 4.8686 19.7948C5.98634 20.0684 7.10407 20.0684 8.2218 19.7948C9.33955 19.5604 10.2853 19.0523 11.1451 18.2706L14.0684 15.6131C14.8853 14.8706 15.4441 13.9717 15.7451 12.9556C16.0029 11.9394 16.0029 10.9233 15.7451 9.9072C15.4441 8.89108 14.8853 7.9922 14.0684 7.21057ZM20.13 1.70006C20.9468 2.48168 21.5056 3.38057 21.8066 4.39669C22.0645 5.41281 22.0645 6.42893 21.8066 7.44506C21.5056 8.46118 20.9468 9.36006 20.13 10.1026L18.4964 11.5877C18.2814 11.7831 18.0235 11.8222 17.7655 11.705C17.5076 11.6268 17.3357 11.4314 17.3357 11.1578C17.2927 10.4543 17.1636 9.78996 16.9058 9.08649C16.8198 8.852 16.8627 8.65659 17.0777 8.46118L17.6366 7.91404C18.2384 7.36689 18.5393 6.74158 18.5393 5.95996C18.5393 5.17832 18.2814 4.51394 17.6796 3.96679C17.0777 3.41964 16.3469 3.10699 15.487 3.10699C14.6273 3.10699 13.8965 3.38057 13.2946 3.9277L10.4143 6.54618C9.81242 7.09332 9.5115 7.75772 9.5115 8.53934C9.5115 9.32098 9.81242 9.98536 10.4143 10.5325C10.5433 10.6888 10.7152 10.8061 10.8872 10.8842C11.0591 11.0015 11.1451 11.1578 11.1451 11.3532C11.1451 11.8222 11.0161 12.213 10.6722 12.5257L9.72645 13.3464C9.59748 13.4636 9.4685 13.5418 9.29655 13.5418C9.12459 13.5418 8.99563 13.5027 8.86666 13.4246C8.52274 13.2292 8.2218 12.9947 7.96387 12.7601C7.10407 11.9785 6.5452 11.0797 6.28726 10.0635C5.98634 9.0474 5.98634 8.03128 6.28726 7.01516C6.5452 5.99903 7.10407 5.13924 7.96387 4.3576L10.8872 1.70006C11.704 0.957501 12.6928 0.449439 13.8104 0.175867C14.9282 -0.0586225 16.046 -0.0586225 17.1636 0.175867C18.2814 0.449439 19.2702 0.957501 20.13 1.70006Z" fill="#84AA32"/>
</svg>
