<svg width="30" height="21" viewBox="0 0 30 21" fill="none" xmlns="http://www.w3.org/2000/svg">
<path d="M29.1164 1.05281C27.2982 0.290156 25.4785 5.63792e-08 23.6598 5.63792e-08C17.8863 -0.000468694 12.1132 2.92219 6.33974 2.92219C4.8918 2.92219 3.44479 2.73844 1.99684 2.27906C1.83419 2.2275 1.67107 2.20312 1.5117 2.20312C0.704989 2.20312 0 2.8275 0 3.69422V18.5658C0 19.1578 0.338901 19.7189 0.883111 19.9467C2.70136 20.7098 4.52102 21 6.33974 21C12.1132 21 17.8868 18.0773 23.6603 18.0773C25.1082 18.0773 26.5552 18.2611 28.0032 18.7205C28.1658 18.772 28.3289 18.7964 28.4883 18.7964C29.295 18.7964 30 18.172 30 17.3053V2.43422C29.9995 1.84172 29.6606 1.28109 29.1164 1.05281ZM2.24996 4.69781C3.19308 4.93406 4.17743 5.05266 5.18992 5.11641C4.9143 6.49406 3.70307 7.53234 2.24996 7.53234V4.69781ZM2.24996 18.0572V15.8175C3.86103 15.8175 5.16461 17.0958 5.23632 18.6956C4.18025 18.6108 3.19308 18.3998 2.24996 18.0572ZM14.9998 15C12.9284 15 11.2498 12.9848 11.2498 10.5C11.2498 8.01469 12.9289 6 14.9998 6C17.0707 6 18.7497 8.01469 18.7497 10.5C18.7497 12.9858 17.0702 15 14.9998 15ZM27.7496 16.3022C26.9283 16.0964 26.0757 15.9811 25.2034 15.9066C25.4785 14.6841 26.4924 13.7559 27.7496 13.5966V16.3022ZM27.7496 5.23453C26.3016 5.05125 25.178 3.84234 25.1335 2.34938C26.0494 2.45109 26.919 2.64141 27.7496 2.94281V5.23453Z" fill="#84AA32"/>
</svg>
