<svg width="27" height="27" viewBox="0 0 27 27" fill="none" xmlns="http://www.w3.org/2000/svg">
<path d="M10.7643 0.251806C5.49298 1.30543 1.27592 5.51991 0.274371 10.7353C-1.67602 20.5867 7.17981 27.9094 13.9271 26.9084C16.0884 26.5397 17.1426 24.011 16.1411 22.0618C14.9287 19.6384 16.6682 16.8463 19.3566 16.8463H23.5736C25.4186 16.8463 26.9473 15.3186 27 13.4221C26.9473 5.15115 19.4093 -1.38131 10.7643 0.251806ZM5.07128 16.8463C4.12244 16.8463 3.38445 16.1088 3.38445 15.1605C3.38445 14.265 4.12244 13.4748 5.07128 13.4748C5.9674 13.4748 6.7581 14.265 6.7581 15.1605C6.7581 16.1088 5.9674 16.8463 5.07128 16.8463ZM6.7581 10.1032C5.80926 10.1032 5.07128 9.36563 5.07128 8.41737C5.07128 7.52179 5.80926 6.73158 6.7581 6.73158C7.65423 6.73158 8.44493 7.52179 8.44493 8.41737C8.44493 9.36563 7.65423 10.1032 6.7581 10.1032ZM13.5054 6.73158C12.5566 6.73158 11.8186 5.99404 11.8186 5.04578C11.8186 4.1502 12.5566 3.35999 13.5054 3.35999C14.4015 3.35999 15.1922 4.1502 15.1922 5.04578C15.1922 5.99404 14.4015 6.73158 13.5054 6.73158ZM20.2527 10.1032C19.3039 10.1032 18.5659 9.36563 18.5659 8.41737C18.5659 7.52179 19.3039 6.73158 20.2527 6.73158C21.1488 6.73158 21.9395 7.52179 21.9395 8.41737C21.9395 9.36563 21.1488 10.1032 20.2527 10.1032Z" fill="#84AA32"/>
</svg>
