<svg width="30" height="26" viewBox="0 0 30 26" fill="none" xmlns="http://www.w3.org/2000/svg">
<path d="M10.3646 1.87768C11.6493 0.625895 13.1944 0 15 0C16.8056 0 18.3507 0.625895 19.6354 1.87768C20.9201 3.12947 21.5625 4.635 21.5625 6.39427C21.5625 8.49187 19.5833 11.8074 15.625 16.3409C15.4514 16.5439 15.2431 16.6454 15 16.6454C14.7569 16.6454 14.5486 16.5439 14.375 16.3409C10.4167 11.8074 8.4375 8.49187 8.4375 6.39427C8.4375 4.635 9.07986 3.12947 10.3646 1.87768ZM1.04167 10.9616L7.23958 8.5257C7.48264 9.27001 7.84722 10.0651 8.33333 10.9109V22.7352L1.14583 25.9323C1.00694 26 0.868056 26.0169 0.729167 25.9831C0.590278 25.9493 0.46875 25.8985 0.364583 25.8308C0.260417 25.7632 0.173611 25.6617 0.104167 25.5264C0.0347222 25.4249 0 25.3064 0 25.1711V12.4841C0 12.1796 0.104167 11.8751 0.3125 11.5706C0.520833 11.2661 0.763889 11.0631 1.04167 10.9616ZM13.0729 17.4066C13.5938 17.9818 14.2361 18.2694 15 18.2694C15.7639 18.2694 16.4062 17.9818 16.9271 17.4066C18.0729 16.0534 19.0972 14.7508 20 13.499V25.9831L10 22.7352V13.499C10.9028 14.7508 11.9271 16.0534 13.0729 17.4066ZM28.8542 8.17046C29.0625 8.1028 29.2361 8.1028 29.375 8.17046C29.5486 8.20429 29.6875 8.28887 29.7917 8.4242C29.9306 8.55953 30 8.72869 30 8.93169V21.6187C30 21.8217 29.9479 22.0247 29.8437 22.2277C29.7743 22.4307 29.6528 22.6168 29.4792 22.7859C29.3056 22.9551 29.1319 23.0735 28.9583 23.1412L21.6667 25.9831V11.3676L28.8542 8.17046Z" fill="#84AA32"/>
</svg>
