<svg width="29" height="26" viewBox="0 0 29 26" fill="none" xmlns="http://www.w3.org/2000/svg">
<path d="M27.0804 3.25C27.4026 3.25 27.6765 3.36849 27.9021 3.60547C28.1276 3.84245 28.2404 4.13021 28.2404 4.46875V7.3125C28.2404 9.20833 27.2415 10.918 25.2437 12.4414C23.6971 13.5924 21.9248 14.2865 19.9271 14.5234C18.9282 16.2839 17.8326 17.5365 16.6404 18.2812V21.9375H18.9604C19.8304 21.9375 20.5554 22.1914 21.1354 22.6992C21.7476 23.207 22.0538 23.901 22.0538 24.7813V25.3906C22.0538 25.7969 21.8604 26 21.4737 26H7.16706C6.78039 26 6.58705 25.7969 6.58705 25.3906V24.7813C6.58705 23.901 6.87706 23.207 7.45705 22.6992C8.06928 22.1914 8.81039 21.9375 9.68039 21.9375H12.0004V18.2812C11.8715 18.2135 11.6943 18.0951 11.4687 17.9258C11.2432 17.7565 10.8404 17.3503 10.2604 16.707C9.68039 16.0638 9.16484 15.3359 8.71372 14.5234C6.71594 14.2865 4.94373 13.5924 3.39706 12.4414C1.39928 10.918 0.400391 9.20833 0.400391 7.3125V4.46875C0.400391 4.13021 0.513169 3.84245 0.738724 3.60547C0.964279 3.36849 1.23817 3.25 1.56039 3.25H6.58705V1.21875C6.58705 0.880208 6.69983 0.592448 6.9254 0.355469C7.15095 0.11849 7.42484 0 7.74706 0H20.8937C21.216 0 21.4899 0.11849 21.7154 0.355469C21.941 0.592448 22.0538 0.880208 22.0538 1.21875V3.25H27.0804ZM5.1854 9.80078C5.79762 10.2409 6.47428 10.5964 7.21539 10.8672C6.86095 9.47917 6.6515 8.02344 6.58705 6.5H3.49372V7.3125C3.49372 8.09115 4.05762 8.92057 5.1854 9.80078ZM25.1471 7.3125V6.5H22.0538C21.9893 8.02344 21.7799 9.47917 21.4254 10.8672C22.1665 10.5964 22.8432 10.2409 23.4554 9.80078C24.5832 8.92057 25.1471 8.09115 25.1471 7.3125Z" fill="#84AA32"/>
</svg>
