<svg width="28" height="24" viewBox="0 0 28 24" fill="none" xmlns="http://www.w3.org/2000/svg">
<path d="M26.543 0.445989C26.2517 -0.116442 25.4746 -0.163311 25.1347 0.39912C23.6292 2.93006 20.9581 4.47675 17.8985 4.47675H14.0133C8.8654 4.47675 4.68881 8.5075 4.68881 13.4756C4.68881 13.8037 4.68881 14.1318 4.73737 14.4599C7.84553 12.3039 12.3135 10.476 18.6755 10.476C19.064 10.476 19.4526 10.851 19.4526 11.2259C19.4526 11.6477 19.064 11.9758 18.6755 11.9758C6.43715 11.9758 1.28926 19.2406 0.1237 21.9121C-0.216255 22.7089 0.172265 23.5525 0.949304 23.8806C1.77491 24.2087 2.64908 23.8338 2.98903 23.0838C3.08616 22.8964 4.0089 20.8341 6.48571 18.8187C8.08836 20.881 11.0508 22.8495 14.9846 22.4277C22.6093 21.9121 28 15.3035 28 7.24203C28 4.89857 27.4658 2.46137 26.543 0.445989Z" fill="#84AA32"/>
</svg>
