<svg width="26" height="26" viewBox="0 0 26 26" fill="none" xmlns="http://www.w3.org/2000/svg">
<path d="M25.6445 0.964844C25.8815 2.08203 26 3.48698 26 5.17969C26 7.61719 25.4245 9.68229 24.2734 11.375C23.1224 13.0677 21.5312 14.5742 19.5 15.8945V21.1758C19.5 21.6159 19.3646 22.056 19.0938 22.4961C18.8229 22.9023 18.5013 23.1901 18.1289 23.3594L13.1523 25.8477C12.9831 25.9492 12.7969 26 12.5938 26C12.2552 26 11.9674 25.8815 11.7305 25.6445C11.4935 25.4076 11.375 25.1198 11.375 24.7812V19.5L10.2578 20.668C9.91927 20.9727 9.52995 21.125 9.08984 21.125C8.64974 21.125 8.26042 20.9727 7.92188 20.668L5.33203 18.0781C5.02734 17.7396 4.875 17.3503 4.875 16.9102C4.875 16.4701 5.02734 16.0807 5.33203 15.7422L6.5 14.625H1.21875C0.880208 14.625 0.592448 14.5065 0.355469 14.2695C0.11849 14.0326 0 13.7448 0 13.4062C0 13.2031 0.0507812 13.0169 0.152344 12.8477L2.64062 7.82031C2.8099 7.48177 3.11458 7.17708 3.55469 6.90625C3.99479 6.63542 4.41797 6.5 4.82422 6.5H10.1055C11.3919 4.4349 12.8815 2.84375 14.5742 1.72656C16.3008 0.575521 18.3828 0 20.8203 0C22.5469 0 23.9518 0.11849 25.0352 0.355469C25.3737 0.423177 25.5768 0.626302 25.6445 0.964844ZM18.0273 7.97266C18.4336 8.34505 18.9245 8.53125 19.5 8.53125C20.0755 8.53125 20.5495 8.34505 20.9219 7.97266C21.3281 7.56641 21.5312 7.07552 21.5312 6.5C21.5312 5.92448 21.3281 5.45052 20.9219 5.07812C20.5495 4.67188 20.0755 4.46875 19.5 4.46875C18.9245 4.46875 18.4336 4.67188 18.0273 5.07812C17.6549 5.45052 17.4688 5.92448 17.4688 6.5C17.4688 7.07552 17.6549 7.56641 18.0273 7.97266Z" fill="#84AA32"/>
</svg>
