<svg width="39" height="23" viewBox="0 0 39 23" fill="none" xmlns="http://www.w3.org/2000/svg">
<path d="M26.5078 0C27.0359 0 27.4828 0.179477 27.8484 0.538432L31.2 3.82885V15.435C31.0375 15.2356 30.875 15.0761 30.7125 14.9564L21.8156 7.897L23.4 6.46118C23.8875 6.02246 23.9281 5.56379 23.5219 5.08519C23.3188 4.88577 23.075 4.78606 22.7906 4.78606C22.5469 4.78606 22.3234 4.86583 22.1203 5.02536L17.2453 9.39264V9.45246C16.7172 9.8513 16.1078 10.0308 15.4172 9.9909C14.7266 9.95101 14.1781 9.71171 13.7719 9.27299C13.3656 8.79438 13.1625 8.23601 13.1625 7.59787C13.1625 6.91984 13.4266 6.36147 13.9547 5.92275V5.86292L19.9266 0.478606C20.2922 0.159535 20.7391 0 21.2672 0H26.5078ZM33.15 3.82885H39V19.1442H35.1C34.5719 19.1442 34.1047 18.9648 33.6984 18.6058C33.3328 18.207 33.15 17.7483 33.15 17.2298V3.82885ZM35.3438 16.9905C35.5469 17.15 35.7906 17.2298 36.075 17.2298C36.3594 17.2298 36.5828 17.15 36.7453 16.9905C36.9484 16.7911 37.05 16.5518 37.05 16.2726C37.05 15.9934 36.9484 15.774 36.7453 15.6145C36.5828 15.4151 36.3594 15.3154 36.075 15.3154C35.7906 15.3154 35.5469 15.4151 35.3438 15.6145C35.1813 15.774 35.1 15.9934 35.1 16.2726C35.1 16.5518 35.1813 16.7911 35.3438 16.9905ZM0 19.1442V3.82885H5.85V17.2298C5.85 17.7483 5.64687 18.207 5.24062 18.6058C4.875 18.9648 4.42812 19.1442 3.9 19.1442H0ZM3.59531 15.6145C3.43281 15.4151 3.20938 15.3154 2.925 15.3154C2.64062 15.3154 2.39688 15.4151 2.19375 15.6145C2.03125 15.774 1.95 15.9934 1.95 16.2726C1.95 16.5518 2.03125 16.7911 2.19375 16.9905C2.39688 17.15 2.64062 17.2298 2.925 17.2298C3.20938 17.2298 3.43281 17.15 3.59531 16.9905C3.79844 16.7911 3.9 16.5518 3.9 16.2726C3.9 15.9934 3.79844 15.774 3.59531 15.6145ZM29.4938 16.4521C29.9 16.7711 30.1234 17.1899 30.1641 17.7084C30.2453 18.2269 30.1031 18.7055 29.7375 19.1442L29.1891 19.8621C28.8641 20.261 28.4172 20.5003 27.8484 20.58C27.3203 20.6199 26.8531 20.4604 26.4469 20.1014L26.1422 19.8621L24.1922 22.1355C23.8266 22.6141 23.3188 22.8933 22.6688 22.9731C22.0594 23.0528 21.5109 22.8933 21.0234 22.4945L19.9266 21.5373C19.2359 22.3748 18.3422 22.8534 17.2453 22.9731C16.1891 23.0927 15.2547 22.8135 14.4422 22.1355L8.89688 17.2298H7.8V3.82885L11.1516 0.538432C11.5172 0.179477 11.9641 0 12.4922 0H17.6109L12.6141 4.48693C11.7203 5.28461 11.2531 6.2817 11.2125 7.47822C11.1719 8.67473 11.5578 9.71171 12.3703 10.5892C13.1828 11.4267 14.1781 11.8854 15.3563 11.9651C16.575 12.005 17.6516 11.6261 18.5859 10.8285L20.4141 9.21316L29.4938 16.4521Z" fill="#84AA32"/>
</svg>
