<svg width="26" height="27" viewBox="0 0 26 27" fill="none" xmlns="http://www.w3.org/2000/svg">
<path d="M24.375 4.37909L13.975 0.15828C13.7042 0.0527601 13.2708 0 13 0C12.675 0 12.2417 0.0527601 11.9708 0.15828L1.57083 4.37909C0.595833 4.80117 0 5.69809 0 6.70054C0 17.1998 6.175 24.4279 11.9708 26.8021C12.6208 27.066 13.325 27.066 13.975 26.8021C18.6333 24.9028 26 18.4133 26 6.70054C26 5.69809 25.35 4.80117 24.375 4.37909ZM13 23.531V3.42941L22.4792 7.2809C22.3167 15.2477 18.0375 21.0513 13 23.531Z" fill="#84AA32"/>
</svg>
