<svg width="30" height="30" viewBox="0 0 30 30" fill="none" xmlns="http://www.w3.org/2000/svg">
<path d="M12.3973 16.6357C12.2393 16.6357 12.0849 16.6826 11.9536 16.7703C11.8222 16.8581 11.7199 16.9828 11.6594 17.1288C11.599 17.2747 11.5832 17.4353 11.614 17.5902C11.6448 17.7451 11.7209 17.8874 11.8326 17.9991C11.9442 18.1108 12.0866 18.1869 12.2415 18.2177C12.3964 18.2485 12.557 18.2327 12.7029 18.1723C12.8489 18.1118 12.9736 18.0094 13.0613 17.8781C13.1491 17.7468 13.1959 17.5924 13.1959 17.4344C13.1959 17.2226 13.1118 17.0194 12.962 16.8697C12.8122 16.7199 12.6091 16.6357 12.3973 16.6357Z" fill="white"/>
<path d="M12.3972 21.7809C12.2356 21.7779 12.0768 21.823 11.9409 21.9106C11.805 21.9981 11.6983 22.1242 11.6343 22.2726C11.5704 22.4211 11.552 22.5852 11.5817 22.7441C11.6113 22.903 11.6876 23.0495 11.8008 23.1649C11.914 23.2802 12.059 23.3593 12.2173 23.392C12.3757 23.4247 12.5401 23.4095 12.6897 23.3483C12.8394 23.2872 12.9674 23.1829 13.0576 23.0487C13.1477 22.9145 13.1959 22.7566 13.1959 22.5949C13.1959 22.3817 13.1123 22.1769 12.9629 22.0247C12.8136 21.8725 12.6105 21.7849 12.3972 21.7809Z" fill="white"/>
<path d="M12.3973 11.4752C12.2393 11.4752 12.0849 11.5221 11.9536 11.6098C11.8222 11.6976 11.7199 11.8223 11.6594 11.9682C11.599 12.1142 11.5832 12.2748 11.614 12.4297C11.6448 12.5846 11.7209 12.7269 11.8326 12.8386C11.9442 12.9503 12.0866 13.0264 12.2415 13.0572C12.3964 13.088 12.557 13.0722 12.7029 13.0117C12.8489 12.9513 12.9736 12.8489 13.0613 12.7176C13.1491 12.5862 13.1959 12.4318 13.1959 12.2739C13.1959 12.0621 13.1118 11.8589 12.962 11.7091C12.8122 11.5594 12.6091 11.4752 12.3973 11.4752Z" fill="white"/>
<path d="M22.703 13.0725C22.8609 13.0725 23.0153 13.0257 23.1467 12.9379C23.278 12.8502 23.3804 12.7254 23.4408 12.5795C23.5013 12.4336 23.5171 12.273 23.4863 12.1181C23.4554 11.9631 23.3794 11.8208 23.2677 11.7091C23.156 11.5974 23.0137 11.5214 22.8588 11.4906C22.7038 11.4598 22.5433 11.4756 22.3973 11.536C22.2514 11.5965 22.1266 11.6988 22.0389 11.8302C21.9511 11.9615 21.9043 12.1159 21.9043 12.2739C21.9043 12.4857 21.9884 12.6888 22.1382 12.8386C22.288 12.9884 22.4911 13.0725 22.703 13.0725Z" fill="white"/>
<path d="M13.7182 28.1855H4.50295C3.77381 28.1855 3.07453 27.8959 2.55896 27.3803C2.04338 26.8647 1.75373 26.1655 1.75373 25.4363V7.00579C1.74346 6.63835 1.80698 6.27258 1.94054 5.93011C2.0741 5.58765 2.27497 5.27544 2.53129 5.01196C2.78761 4.74848 3.09416 4.53908 3.43282 4.39614C3.77148 4.25321 4.13536 4.17963 4.50295 4.17978H6.37672V5.71565C6.42439 5.88254 6.52513 6.02936 6.66369 6.13388C6.80225 6.2384 6.97109 6.29494 7.14466 6.29494C7.31822 6.29494 7.48706 6.2384 7.62562 6.13388C7.76418 6.02936 7.86492 5.88254 7.91259 5.71565V4.17978H14.0561V5.71565C14.083 5.91037 14.1795 6.08876 14.3277 6.21787C14.4759 6.34699 14.6659 6.41812 14.8624 6.41812C15.059 6.41812 15.2489 6.34699 15.3971 6.21787C15.5454 6.08876 15.6418 5.91037 15.6688 5.71565V4.17978H21.8123V5.71565C21.8392 5.91037 21.9357 6.08876 22.0839 6.21787C22.2321 6.34699 22.4221 6.41812 22.6186 6.41812C22.8152 6.41812 23.0051 6.34699 23.1533 6.21787C23.3015 6.08876 23.398 5.91037 23.425 5.71565V4.17978H25.3448C26.0739 4.17978 26.7732 4.46943 27.2888 4.985C27.8044 5.50058 28.094 6.19986 28.094 6.929V13.7176C28.1499 13.8766 28.2538 14.0144 28.3914 14.1118C28.529 14.2093 28.6934 14.2616 28.862 14.2616C29.0305 14.2616 29.195 14.2093 29.3325 14.1118C29.4701 14.0144 29.574 13.8766 29.6299 13.7176V6.929C29.6258 5.77481 29.1645 4.66929 28.3469 3.8546C27.5293 3.0399 26.4222 2.58246 25.268 2.58246H23.5171V1.04659C23.4902 0.851876 23.3937 0.673488 23.2455 0.544369C23.0973 0.41525 22.9073 0.344122 22.7108 0.344122C22.5142 0.344122 22.3243 0.41525 22.1761 0.544369C22.0279 0.673488 21.9314 0.851876 21.9044 1.04659V2.58246H15.7609V1.04659C15.734 0.851876 15.6375 0.673488 15.4893 0.544369C15.3411 0.41525 15.1512 0.344122 14.9546 0.344122C14.758 0.344122 14.5681 0.41525 14.4199 0.544369C14.2717 0.673488 14.1752 0.851876 14.1483 1.04659V2.58246H8.00475V1.04659C8.0387 0.927729 8.0446 0.80261 8.02198 0.681084C7.99936 0.559558 7.94884 0.444941 7.8744 0.346256C7.79996 0.247572 7.70363 0.167515 7.59299 0.112386C7.48235 0.0572582 7.36042 0.0285645 7.23681 0.0285645C7.11319 0.0285645 6.99127 0.0572582 6.88063 0.112386C6.76999 0.167515 6.67366 0.247572 6.59922 0.346256C6.52477 0.444941 6.47425 0.559558 6.45164 0.681084C6.42902 0.80261 6.43492 0.927729 6.46887 1.04659V2.58246H4.50295C3.34876 2.58246 2.24162 3.0399 1.42404 3.8546C0.60647 4.66929 0.145121 5.77481 0.141057 6.929V25.3595C0.13293 25.9382 0.239643 26.5128 0.455018 27.0499C0.670393 27.5871 0.990155 28.0763 1.3958 28.489C1.80145 28.9018 2.28493 29.2301 2.81827 29.4548C3.3516 29.6795 3.92421 29.7962 4.50295 29.7982H13.7182C13.8772 29.7423 14.015 29.6384 14.1125 29.5008C14.2099 29.3633 14.2622 29.1988 14.2622 29.0303C14.2622 28.8617 14.2099 28.6973 14.1125 28.5597C14.015 28.4222 13.8772 28.3182 13.7182 28.2623V28.1855Z" fill="white"/>
<path d="M17.5426 13.0725C17.7005 13.0725 17.8549 13.0257 17.9863 12.9379C18.1176 12.8502 18.22 12.7254 18.2804 12.5795C18.3409 12.4336 18.3567 12.273 18.3259 12.1181C18.295 11.9631 18.219 11.8208 18.1073 11.7091C17.9956 11.5974 17.8533 11.5214 17.6984 11.4906C17.5434 11.4598 17.3829 11.4756 17.2369 11.536C17.091 11.5965 16.9663 11.6988 16.8785 11.8302C16.7907 11.9615 16.7439 12.1159 16.7439 12.2739C16.7439 12.4857 16.828 12.6888 16.9778 12.8386C17.1276 12.9884 17.3307 13.0725 17.5426 13.0725Z" fill="white"/>
<path d="M7.23689 16.6357C7.07893 16.6357 6.92452 16.6826 6.79318 16.7703C6.66184 16.8581 6.55947 16.9828 6.49903 17.1288C6.43858 17.2747 6.42276 17.4353 6.45358 17.5902C6.4844 17.7451 6.56046 17.8874 6.67215 17.9991C6.78385 18.1108 6.92615 18.1869 7.08108 18.2177C7.236 18.2485 7.39659 18.2327 7.54252 18.1723C7.68846 18.1118 7.81319 18.0094 7.90095 17.8781C7.9887 17.7468 8.03554 17.5924 8.03554 17.4344C8.03554 17.2226 7.9514 17.0194 7.80162 16.8697C7.65185 16.7199 7.44871 16.6357 7.23689 16.6357Z" fill="white"/>
<path d="M23.0103 19.7689C22.797 19.7689 22.5923 19.8525 22.4401 20.0019C22.2878 20.1512 22.2003 20.3544 22.1963 20.5676V23.0096C22.2003 23.2228 22.2878 23.426 22.4401 23.5753C22.5923 23.7247 22.797 23.8083 23.0103 23.8083H24.7305C24.9252 23.7813 25.1036 23.6849 25.2327 23.5366C25.3618 23.3884 25.433 23.1985 25.433 23.0019C25.433 22.8054 25.3618 22.6154 25.2327 22.4672C25.1036 22.319 24.9252 22.2225 24.7305 22.1956H23.809V20.5676C23.805 20.357 23.7196 20.1561 23.5707 20.0072C23.4218 19.8583 23.2209 19.7729 23.0103 19.7689Z" fill="white"/>
<path d="M7.23654 23.3935C7.39881 23.3965 7.55827 23.351 7.69447 23.2627C7.83066 23.1745 7.93736 23.0475 8.00087 22.8982C8.06437 22.7488 8.08178 22.5839 8.05087 22.4246C8.01995 22.2652 7.94211 22.1188 7.82736 22.004C7.7126 21.8893 7.56615 21.8115 7.40683 21.7805C7.24751 21.7496 7.08259 21.767 6.93323 21.8305C6.78388 21.894 6.65692 22.0007 6.56866 22.1369C6.48039 22.2731 6.43485 22.4326 6.43789 22.5949C6.43789 22.8067 6.52203 23.0098 6.67181 23.1596C6.82158 23.3094 7.02472 23.3935 7.23654 23.3935Z" fill="white"/>
<path d="M23.0103 29.7982C24.3529 29.7982 25.6654 29.4001 26.7818 28.6541C27.8982 27.9082 28.7683 26.848 29.2821 25.6075C29.7959 24.3671 29.9303 23.0021 29.6684 21.6853C29.4065 20.3684 28.7599 19.1588 27.8105 18.2094C26.8611 17.26 25.6515 16.6135 24.3346 16.3515C23.0178 16.0896 21.6528 16.224 20.4124 16.7378C19.1719 17.2516 18.1117 18.1217 17.3658 19.2381C16.6198 20.3545 16.2217 21.667 16.2217 23.0096C16.2257 24.8088 16.9423 26.5332 18.2145 27.8054C19.4867 29.0776 21.2111 29.7942 23.0103 29.7982ZM23.0103 17.8184C24.037 17.8184 25.0407 18.1228 25.8944 18.6933C26.7481 19.2637 27.4134 20.0745 27.8064 21.023C28.1993 21.9716 28.3021 23.0154 28.1018 24.0224C27.9015 25.0294 27.407 25.9544 26.681 26.6804C25.955 27.4064 25.03 27.9009 24.023 28.1012C23.016 28.3015 21.9722 28.1987 21.0236 27.8058C20.0751 27.4128 19.2643 26.7475 18.6939 25.8938C18.1235 25.0401 17.819 24.0364 17.819 23.0096C17.817 22.3274 17.9499 21.6514 18.21 21.0206C18.4702 20.3899 18.8525 19.8168 19.335 19.3344C19.8174 18.8519 20.3905 18.4696 21.0213 18.2094C21.652 17.9492 22.328 17.8164 23.0103 17.8184Z" fill="white"/>
<path d="M7.23689 11.4752C7.07893 11.4752 6.92452 11.5221 6.79318 11.6098C6.66184 11.6976 6.55947 11.8223 6.49903 11.9682C6.43858 12.1142 6.42276 12.2748 6.45358 12.4297C6.4844 12.5846 6.56046 12.7269 6.67215 12.8386C6.78385 12.9503 6.92615 13.0264 7.08108 13.0572C7.236 13.088 7.39659 13.0722 7.54252 13.0117C7.68846 12.9513 7.81319 12.8489 7.90095 12.7176C7.9887 12.5862 8.03554 12.4318 8.03554 12.2739C8.03554 12.0621 7.9514 11.8589 7.80162 11.7091C7.65185 11.5594 7.44871 11.4752 7.23689 11.4752Z" fill="white"/>
</svg>
