<svg width="50" height="41" viewBox="0 0 50 41" fill="none" xmlns="http://www.w3.org/2000/svg">
<path d="M35.0985 7.90666C35.0985 7.13679 34.7927 6.39844 34.2483 5.85406C33.7039 5.30968 32.9656 5.00385 32.1957 5.00385C31.7175 5.00406 31.2472 5.1256 30.8288 5.3571V4.23591C30.8349 3.85085 30.7643 3.46842 30.6212 3.1109C30.478 2.75338 30.2652 2.42792 29.995 2.15347C29.7249 1.87902 29.4028 1.66107 29.0476 1.51231C28.6924 1.36356 28.3111 1.28698 27.926 1.28703C27.339 1.28216 26.7649 1.45922 26.2826 1.79387C26.0237 1.2307 25.5913 0.765201 25.0487 0.465505C24.5061 0.165809 23.8819 0.0476555 23.2673 0.128338C22.6528 0.209021 22.0802 0.484304 21.6333 0.913892C21.1865 1.34348 20.8889 1.90481 20.7841 2.51573C20.3538 2.27051 19.8664 2.14335 19.3711 2.14712C18.9899 2.14712 18.6125 2.2222 18.2603 2.36808C17.9081 2.51396 17.5881 2.72778 17.3185 2.99733C17.049 3.26688 16.8352 3.58689 16.6893 3.93907C16.5434 4.29125 16.4683 4.66872 16.4683 5.04993V17.3369C16.0844 16.8455 15.5161 16.1543 14.9325 15.3403C14.6272 14.9172 14.2289 14.5698 13.7682 14.3248C13.3076 14.0798 12.7969 13.9438 12.2754 13.9273C11.8293 13.9188 11.3891 14.0296 11.0003 14.2483C10.6114 14.4671 10.2881 14.7857 10.0637 15.1714C9.79693 15.7065 9.67764 16.3032 9.71813 16.8998C9.75862 17.4964 9.95744 18.0714 10.2941 18.5656C10.6627 19.1954 11.1235 20.1015 11.5996 20.9463L11.6917 21.1152C13.9188 25.2621 15.7311 28.5335 17.2209 29.5932V39.9911C17.2189 40.0913 17.2368 40.1908 17.2737 40.2839C17.3106 40.3769 17.3657 40.4617 17.4358 40.5332C17.5059 40.6048 17.5896 40.6616 17.6819 40.7004C17.7742 40.7391 17.8734 40.7591 17.9735 40.7591H32.9329C33.0331 40.7591 33.1322 40.7391 33.2245 40.7004C33.3168 40.6616 33.4005 40.6048 33.4706 40.5332C33.5407 40.4617 33.5958 40.3769 33.6327 40.2839C33.6696 40.1908 33.6876 40.0913 33.6855 39.9911V29.3936C35.0217 27.2894 35.1139 22.39 35.0985 17.552V7.90666ZM29.8612 30.4687C29.6601 30.4687 29.4671 30.5475 29.3235 30.6882C29.1799 30.8289 29.0973 31.0203 29.0932 31.2213V39.2386H27.5574V31.2827C27.5574 31.079 27.4765 30.8837 27.3324 30.7397C27.1884 30.5957 26.9931 30.5148 26.7894 30.5148C26.5858 30.5148 26.3904 30.5957 26.2464 30.7397C26.1024 30.8837 26.0215 31.079 26.0215 31.2827V39.3H24.4856V31.2827C24.4856 31.079 24.4047 30.8837 24.2607 30.7397C24.1167 30.5957 23.9213 30.5148 23.7177 30.5148C23.514 30.5148 23.3187 30.5957 23.1747 30.7397C23.0306 30.8837 22.9497 31.079 22.9497 31.2827V39.3H21.4139V31.2827C21.4099 31.0803 21.3278 30.8872 21.1846 30.744C21.0414 30.6009 20.8484 30.5187 20.6459 30.5148C20.4422 30.5148 20.2469 30.5957 20.1029 30.7397C19.9589 30.8837 19.878 31.079 19.878 31.2827V39.3H18.3421V29.2246C18.3401 29.0713 18.2922 28.922 18.2046 28.7961C18.117 28.6701 17.9937 28.5733 17.8506 28.5181C17.651 28.426 17.0059 27.9959 15.5775 25.6921C14.5792 24.1562 13.5502 22.1596 12.644 20.4701C12.1218 19.4872 11.6303 18.5656 11.231 17.8745C11.0319 17.6129 10.9044 17.3039 10.8613 16.9779C10.8182 16.652 10.861 16.3205 10.9852 16.0161C11.0772 15.8629 11.2081 15.7368 11.3645 15.6505C11.521 15.5642 11.6974 15.5208 11.8761 15.5246C12.1792 15.5404 12.4748 15.6246 12.7408 15.7709C13.0068 15.9172 13.2362 16.1218 13.4119 16.3693C14.5331 17.767 15.5775 19.0418 16.3608 19.9787C16.4614 20.0985 16.5962 20.1849 16.7471 20.226C16.8981 20.2672 17.058 20.2613 17.2055 20.209C17.3528 20.1535 17.4798 20.055 17.5702 19.9262C17.6606 19.7975 17.7102 19.6445 17.7124 19.4872V5.11136C17.692 4.91864 17.7123 4.72378 17.7721 4.53944C17.8319 4.35509 17.9298 4.18537 18.0594 4.04131C18.189 3.89724 18.3475 3.78204 18.5245 3.70318C18.7016 3.62432 18.8932 3.58357 19.087 3.58357C19.2808 3.58357 19.4724 3.62432 19.6495 3.70318C19.8265 3.78204 19.985 3.89724 20.1146 4.04131C20.2442 4.18537 20.3421 4.35509 20.4019 4.53944C20.4617 4.72378 20.482 4.91864 20.4616 5.11136V14.0809C20.4616 14.2846 20.5425 14.4799 20.6865 14.6239C20.8305 14.7679 21.0259 14.8488 21.2295 14.8488C21.4332 14.8488 21.6285 14.7679 21.7726 14.6239C21.9166 14.4799 21.9975 14.2846 21.9975 14.0809V3.05329C22.0334 2.71377 22.1937 2.39956 22.4475 2.17121C22.7013 1.94285 23.0307 1.8165 23.3721 1.8165C23.7135 1.8165 24.0428 1.94285 24.2966 2.17121C24.5505 2.39956 24.7108 2.71377 24.7467 3.05329V14.0809C24.7467 14.2846 24.8276 14.4799 24.9716 14.6239C25.1156 14.7679 25.311 14.8488 25.5146 14.8488C25.7183 14.8488 25.9136 14.7679 26.0577 14.6239C26.2017 14.4799 26.2826 14.2846 26.2826 14.0809V4.23591C26.3185 3.89639 26.4788 3.58219 26.7326 3.35383C26.9864 3.12548 27.3158 2.99913 27.6572 2.99913C27.9986 2.99913 28.3279 3.12548 28.5817 3.35383C28.8356 3.58219 28.9959 3.89639 29.0318 4.23591V14.0809C29.0318 14.2846 29.1127 14.4799 29.2567 14.6239C29.4007 14.7679 29.5961 14.8488 29.7997 14.8488C30.0034 14.8488 30.1987 14.7679 30.3428 14.6239C30.4868 14.4799 30.5677 14.2846 30.5677 14.0809V7.93738C30.6036 7.59786 30.7639 7.28365 31.0177 7.0553C31.2715 6.82694 31.6009 6.70059 31.9423 6.70059C32.2837 6.70059 32.613 6.82694 32.8668 7.0553C33.1206 7.28365 33.281 7.59786 33.3169 7.93738V17.6595C33.3169 20.8387 33.3169 26.7672 32.1343 28.6717V28.7485C31.9828 28.9454 31.9114 29.1923 31.9346 29.4397V39.3307H30.3987V31.2827C30.4204 31.1053 30.3782 30.926 30.2797 30.7768C30.1812 30.6277 30.0328 30.5184 29.8612 30.4687ZM20.8302 22.7893C20.8167 22.5993 20.8757 22.4111 20.9954 22.2629C21.1152 22.1147 21.2866 22.0174 21.4753 21.9907C24.4094 21.8036 27.3544 21.8755 30.2759 22.2057C30.4673 22.2199 30.6453 22.3097 30.7706 22.4551C30.8958 22.6006 30.9582 22.7898 30.944 22.9813C30.9297 23.1727 30.84 23.3507 30.6945 23.476C30.5491 23.6013 30.3598 23.6637 30.1684 23.6494H30.0608C27.2611 23.3407 24.44 23.2739 21.6289 23.4497C21.4365 23.4629 21.2464 23.4018 21.0978 23.2789C20.9491 23.156 20.8534 22.9808 20.8302 22.7893ZM20.8302 20.0708C20.8131 19.8816 20.8712 19.6933 20.9919 19.5467C21.1127 19.4001 21.2863 19.3069 21.4753 19.2875C24.4094 19.1004 27.3544 19.1724 30.2759 19.5025C30.4634 19.5329 30.632 19.6345 30.7465 19.7862C30.861 19.9378 30.9124 20.1278 30.8902 20.3165C30.8643 20.4888 30.7769 20.6459 30.6442 20.7588C30.5116 20.8717 30.3426 20.9328 30.1684 20.9309H30.0608C27.2616 20.6163 24.4405 20.5443 21.6289 20.7159C21.5291 20.7266 21.4282 20.7163 21.3326 20.6858C21.237 20.6553 21.1489 20.6053 21.0737 20.5388C20.9986 20.4723 20.9381 20.3909 20.8962 20.2997C20.8542 20.2086 20.8318 20.1097 20.8302 20.0094V20.0708ZM30.8902 25.7382C30.8613 25.9091 30.7731 26.0644 30.6411 26.1768C30.5091 26.2891 30.3417 26.3514 30.1684 26.3525H30.0608C27.2622 26.0303 24.4403 25.9583 21.6289 26.1375C21.534 26.1482 21.4379 26.1399 21.3463 26.1131C21.2546 26.0864 21.1692 26.0417 21.0949 25.9817C21.0206 25.9217 20.959 25.8476 20.9135 25.7636C20.8681 25.6796 20.8398 25.5875 20.8302 25.4925C20.8167 25.3024 20.8757 25.1143 20.9954 24.9661C21.1152 24.8178 21.2866 24.7205 21.4753 24.6938C24.41 24.5187 27.3543 24.5958 30.2759 24.9242C30.4536 24.9507 30.615 25.0425 30.7286 25.1817C30.8422 25.3208 30.8998 25.4974 30.8902 25.6768V25.7382Z" fill="white"/>
<path d="M11.8607 34.2162L8.46641 31.0677C8.39447 30.9908 8.3075 30.9295 8.21089 30.8877C8.11428 30.8458 8.01009 30.8243 7.90481 30.8244C7.79953 30.8246 7.6954 30.8463 7.59888 30.8884C7.50237 30.9304 7.41553 30.9919 7.34377 31.0689C7.27201 31.146 7.21686 31.2369 7.18174 31.3362C7.14662 31.4355 7.13228 31.5409 7.13962 31.6459C7.14695 31.7509 7.17581 31.8533 7.22439 31.9467C7.27297 32.0401 7.34024 32.1225 7.42201 32.1889L9.37258 34.0165H1.32458C1.12091 34.0165 0.925581 34.0975 0.781565 34.2415C0.637548 34.3855 0.556641 34.5808 0.556641 34.7845C0.556641 34.9882 0.637548 35.1835 0.781565 35.3275C0.925581 35.4715 1.12091 35.5524 1.32458 35.5524H9.37258L7.42201 37.3648C7.2713 37.5033 7.18177 37.696 7.17313 37.9005C7.16449 38.105 7.23744 38.3045 7.37594 38.4552C7.51443 38.6059 7.70713 38.6955 7.91163 38.7041C8.11613 38.7128 8.31569 38.6398 8.46641 38.5013L11.8607 35.3374C11.9384 35.2679 12.0005 35.1826 12.0429 35.0873C12.0853 34.992 12.1069 34.8888 12.1064 34.7845C12.1054 34.6782 12.0831 34.5732 12.0409 34.4756C11.9987 34.378 11.9374 34.2898 11.8607 34.2162Z" fill="white"/>
<path d="M38.1397 34.2162L41.534 31.0676C41.6054 30.9956 41.6903 30.9385 41.7839 30.8995C41.8775 30.8605 41.9779 30.8405 42.0793 30.8405C42.1806 30.8405 42.281 30.8605 42.3746 30.8995C42.4682 30.9385 42.5531 30.9956 42.6245 31.0676C42.7652 31.2112 42.844 31.4042 42.844 31.6052C42.844 31.8062 42.7652 31.9992 42.6245 32.1427L40.6125 34.0165H48.6605C48.8642 34.0165 49.0595 34.0974 49.2035 34.2414C49.3475 34.3854 49.4284 34.5808 49.4284 34.7844C49.4284 34.9881 49.3475 35.1834 49.2035 35.3275C49.0595 35.4715 48.8642 35.5524 48.6605 35.5524H40.6125L42.5784 37.3647C42.7201 37.5109 42.7993 37.7064 42.7993 37.91C42.7993 38.1135 42.7201 38.3091 42.5784 38.4552C42.4323 38.5969 42.2367 38.6761 42.0332 38.6761C41.8296 38.6761 41.6341 38.5969 41.4879 38.4552L38.0936 35.2913C38.0159 35.2217 37.9538 35.1365 37.9114 35.0412C37.8691 34.9459 37.8474 34.8427 37.8479 34.7384C37.8739 34.5331 37.9785 34.3459 38.1397 34.2162Z" fill="white"/>
</svg>
