<svg width="24" height="36" viewBox="0 0 24 36" fill="none" xmlns="http://www.w3.org/2000/svg">
<path opacity="0.4" fill-rule="evenodd" clip-rule="evenodd" d="M23.3581 23.2912C23.4142 24.8179 23.162 26.3402 22.6165 27.7672C22.071 29.1942 21.2434 30.4965 20.1832 31.5965C19.123 32.6964 17.8519 33.5713 16.446 34.1689C15.04 34.7664 13.528 35.0744 12.0003 35.0744C10.4726 35.0744 8.96053 34.7664 7.55455 34.1689C6.14857 33.5713 4.8775 32.6964 3.81728 31.5965C2.75707 30.4965 1.92949 29.1942 1.384 27.7672C0.838505 26.3402 0.586295 24.8179 0.642445 23.2912C0.642445 13.2619 11.9926 0.83667 11.9926 0.83667C11.9926 0.83667 23.3581 13.2619 23.3581 23.2912Z" fill="black" stroke="black" stroke-miterlimit="10"/>
</svg>
