<svg width="36" height="44" viewBox="0 0 36 44" fill="none" xmlns="http://www.w3.org/2000/svg">
<path d="M36 35.8888C36 36.0956 35.9176 36.294 35.7711 36.4403C35.6245 36.5865 35.4257 36.6687 35.2183 36.6687H1.26321C1.0559 36.6687 0.857082 36.5865 0.710493 36.4403C0.563904 36.294 0.481551 36.0956 0.481551 35.8888C0.481551 35.682 0.563904 35.4836 0.710493 35.3373C0.857082 35.1911 1.0559 35.1089 1.26321 35.1089H35.2652C35.4643 35.1208 35.6513 35.2083 35.7879 35.3532C35.9245 35.4982 36.0004 35.6898 36 35.8888ZM2.23246 39.6791C2.1598 39.606 2.07334 39.548 1.97809 39.5084C1.88284 39.4688 1.78067 39.4484 1.67748 39.4484C1.5743 39.4484 1.47213 39.4688 1.37688 39.5084C1.28163 39.548 1.19517 39.606 1.12251 39.6791C0.979289 39.8249 0.899067 40.0209 0.899067 40.225C0.899067 40.4292 0.979289 40.6252 1.12251 40.7709L3.96774 43.6877C4.0404 43.7608 4.12685 43.8189 4.22211 43.8585C4.31736 43.8981 4.41952 43.9184 4.52271 43.9184C4.6259 43.9184 4.72807 43.8981 4.82332 43.8585C4.91857 43.8189 5.00502 43.7608 5.07769 43.6877C5.15279 43.6181 5.21245 43.5336 5.25283 43.4395C5.29322 43.3455 5.31344 43.2441 5.31219 43.1418C5.31159 43.0398 5.29053 42.939 5.25026 42.8452C5.20999 42.7514 5.15131 42.6667 5.07769 42.5959L2.23246 39.6791ZM6.53157 39.6791C6.38645 39.5343 6.18963 39.453 5.98441 39.453C5.77918 39.453 5.58237 39.5343 5.43725 39.6791C5.29213 39.8239 5.21061 40.0203 5.21061 40.225C5.21061 40.4298 5.29213 40.6262 5.43725 40.7709L8.28248 43.6877C8.39173 43.7946 8.53002 43.8672 8.6802 43.8964C8.83038 43.9256 8.98585 43.9101 9.12733 43.852C9.26881 43.7939 9.39008 43.6956 9.47611 43.5694C9.56214 43.4431 9.60914 43.2945 9.61129 43.1418C9.62494 43.0305 9.61532 42.9176 9.58303 42.8102C9.55074 42.7029 9.49649 42.6033 9.4237 42.5179L6.53157 39.6791ZM10.8463 39.6791C10.7736 39.606 10.6872 39.548 10.5919 39.5084C10.4967 39.4688 10.3945 39.4484 10.2913 39.4484C10.1881 39.4484 10.086 39.4688 9.99073 39.5084C9.89548 39.548 9.80902 39.606 9.73636 39.6791C9.59314 39.8249 9.51292 40.0209 9.51292 40.225C9.51292 40.4292 9.59314 40.6252 9.73636 40.7709L12.5503 43.6877C12.623 43.7608 12.7094 43.8189 12.8047 43.8585C12.8999 43.8981 13.0021 43.9184 13.1053 43.9184C13.2085 43.9184 13.3106 43.8981 13.4059 43.8585C13.5012 43.8189 13.5876 43.7608 13.6603 43.6877C13.7354 43.6181 13.795 43.5336 13.8354 43.4395C13.8758 43.3455 13.896 43.2441 13.8948 43.1418C13.8942 43.0398 13.8731 42.939 13.8328 42.8452C13.7926 42.7514 13.7339 42.6667 13.6603 42.5959L10.8463 39.6791ZM15.1454 39.6791C15.0003 39.5343 14.8035 39.453 14.5983 39.453C14.393 39.453 14.1962 39.5343 14.0511 39.6791C13.906 39.8239 13.8245 40.0203 13.8245 40.225C13.8245 40.4298 13.906 40.6262 14.0511 40.7709L16.8963 43.6877C17.0056 43.7946 17.1439 43.8672 17.2941 43.8964C17.4442 43.9256 17.5997 43.9101 17.7412 43.852C17.8827 43.7939 18.0039 43.6956 18.09 43.5694C18.176 43.4431 18.223 43.2945 18.2251 43.1418C18.2232 42.9389 18.1451 42.7442 18.0063 42.5959L15.1454 39.6791ZM19.4602 39.6791C19.3875 39.606 19.301 39.548 19.2058 39.5084C19.1105 39.4688 19.0084 39.4484 18.9052 39.4484C18.802 39.4484 18.6998 39.4688 18.6046 39.5084C18.5093 39.548 18.4229 39.606 18.3502 39.6791C18.207 39.8249 18.1268 40.0209 18.1268 40.225C18.1268 40.4292 18.207 40.6252 18.3502 40.7709L21.1954 43.6877C21.2681 43.7608 21.3546 43.8189 21.4498 43.8585C21.5451 43.8981 21.6472 43.9184 21.7504 43.9184C21.8536 43.9184 21.9558 43.8981 22.051 43.8585C22.1463 43.8189 22.2327 43.7608 22.3054 43.6877C22.3805 43.6181 22.4401 43.5336 22.4805 43.4395C22.5209 43.3455 22.5411 43.2441 22.5399 43.1418C22.5393 43.0398 22.5182 42.939 22.478 42.8452C22.4377 42.7514 22.379 42.6667 22.3054 42.5959L19.4602 39.6791ZM23.7593 39.6791C23.6142 39.5343 23.4173 39.453 23.2121 39.453C23.0069 39.453 22.8101 39.5343 22.6649 39.6791C22.5198 39.8239 22.4383 40.0203 22.4383 40.225C22.4383 40.4298 22.5198 40.6262 22.6649 40.7709L25.5102 43.6877C25.6194 43.7946 25.7577 43.8672 25.9079 43.8964C26.0581 43.9256 26.2135 43.9101 26.355 43.852C26.4965 43.7939 26.6178 43.6956 26.7038 43.5694C26.7898 43.4431 26.8368 43.2945 26.839 43.1418C26.837 42.9389 26.759 42.7442 26.6201 42.5959L23.7593 39.6791ZM28.1834 39.6791C28.1108 39.606 28.0243 39.548 27.9291 39.5084C27.8338 39.4688 27.7317 39.4484 27.6285 39.4484C27.5253 39.4484 27.4231 39.4688 27.3279 39.5084C27.2326 39.548 27.1462 39.606 27.0735 39.6791C26.9987 39.7491 26.9391 39.8337 26.8984 39.9276C26.8576 40.0215 26.8366 40.1227 26.8366 40.225C26.8366 40.3273 26.8576 40.4286 26.8984 40.5225C26.9391 40.6164 26.9987 40.7009 27.0735 40.7709L29.9187 43.6877C30.0252 43.8295 30.1769 43.9309 30.3488 43.9752C30.5208 44.0195 30.7027 44.0041 30.8647 43.9315C31.0267 43.8588 31.159 43.7333 31.24 43.5756C31.3209 43.4179 31.3456 43.2374 31.3101 43.0638C31.3081 42.8609 31.23 42.6662 31.0912 42.5179L28.1834 39.6791ZM32.592 39.6791C32.5193 39.606 32.4329 39.548 32.3376 39.5084C32.2424 39.4688 32.1402 39.4484 32.037 39.4484C31.9338 39.4484 31.8316 39.4688 31.7364 39.5084C31.6411 39.548 31.5547 39.606 31.482 39.6791C31.4073 39.7491 31.3477 39.8337 31.3069 39.9276C31.2662 40.0215 31.2452 40.1227 31.2452 40.225C31.2452 40.3273 31.2662 40.4286 31.3069 40.5225C31.3477 40.6164 31.4073 40.7009 31.482 40.7709L34.3273 43.6877C34.4365 43.7946 34.5748 43.8672 34.725 43.8964C34.8752 43.9256 35.0306 43.9101 35.1721 43.852C35.3136 43.7939 35.4349 43.6956 35.5209 43.5694C35.6069 43.4431 35.6539 43.2945 35.6561 43.1418C35.6541 42.9389 35.576 42.7442 35.4372 42.5959L32.592 39.6791ZM1.48207 30.6635L0.0438238 26.5301C-0.00368711 26.3945 -0.0127718 26.2485 0.0175709 26.1082C0.0479136 25.9678 0.116506 25.8385 0.215788 25.7346L4.4211 21.5543L4.26477 21.0708C4.10076 20.5871 4.07684 20.0671 4.19575 19.5704C4.31466 19.0738 4.57158 18.6207 4.93699 18.2632L21.5706 1.65142L21.7582 1.57343C22.3777 1.02474 23.1002 0.604308 23.8838 0.336544C24.6674 0.0687792 25.4966 -0.0409794 26.3231 0.0136418C27.8527 0.155091 29.2767 0.85339 30.3233 1.97535C31.37 3.0973 31.9661 4.5644 31.9979 6.09682C32.0274 7.43412 31.6154 8.744 30.8254 9.82472C30.1897 10.6961 29.3386 11.3882 28.3551 11.8338C27.3715 12.2794 26.289 12.4631 25.2131 12.3672C24.909 12.344 24.6035 12.3895 24.3193 12.5002C24.0352 12.6109 23.7796 12.784 23.5717 13.0067L11.6592 24.8767C11.2979 25.2367 10.8438 25.4898 10.3471 25.6082C9.85046 25.7266 9.33067 25.7055 8.84527 25.5474L8.36064 25.3914L2.76399 30.9755C2.61714 31.1167 2.42078 31.1951 2.21683 31.1938H2.02923C1.89954 31.1608 1.78078 31.0945 1.68478 31.0015C1.58878 30.9084 1.51889 30.7919 1.48207 30.6635ZM22.1803 3.24241L28.7462 9.79352C29.0612 9.54158 29.34 9.24768 29.5748 8.92004C30.1809 7.98172 30.4309 6.85812 30.2795 5.75205C30.1282 4.64599 29.5855 3.63035 28.7495 2.88847C27.9135 2.14659 26.8392 1.72736 25.7205 1.70645C24.6019 1.68555 23.5126 2.06435 22.6493 2.77447L22.5399 2.86806L22.1803 3.24241ZM5.78118 20.5873L6.641 23.1453C6.6476 23.1776 6.66265 23.2076 6.68461 23.2323C6.70657 23.2569 6.73467 23.2754 6.76607 23.2857L9.3299 24.1436C9.54298 24.214 9.77154 24.2235 9.98977 24.1712C10.208 24.1188 10.4072 24.0066 10.5649 23.8472L22.4617 11.9772C22.8357 11.5926 23.2904 11.2952 23.7931 11.1065C24.2958 10.9177 24.8341 10.8422 25.3695 10.8854C26.0353 10.9484 26.7069 10.8686 27.3393 10.6514L21.086 4.41225L6.07821 19.3862C5.93365 19.5338 5.83021 19.7165 5.77812 19.9162C5.72602 20.1159 5.72708 20.3257 5.78118 20.5249V20.5873ZM4.49926 23.7068L5.34345 26.2493L6.71917 24.8767L6.29707 24.6895C6.03961 24.6017 5.80571 24.4562 5.61331 24.2643C5.42092 24.0723 5.27513 23.8389 5.18712 23.5821L5.03079 23.1453L4.49926 23.7068ZM1.70093 26.5301L2.56076 29.0725L4.12407 27.5127L3.27988 24.9703L1.70093 26.5301ZM29.2621 7.34465C29.4574 6.62449 29.4574 5.86551 29.2621 5.14535C29.2191 4.96048 29.1074 4.7988 28.9495 4.69301C28.7632 4.62225 28.5573 4.62225 28.371 4.69301C28.1782 4.75118 28.0146 4.88002 27.9131 5.05364C27.8116 5.22726 27.7797 5.43278 27.8239 5.62888C27.941 6.08952 27.941 6.57205 27.8239 7.0327C27.7928 7.12892 27.7816 7.23041 27.791 7.33107C27.8003 7.43172 27.83 7.52945 27.8782 7.61836C27.9264 7.70726 27.9921 7.78551 28.0715 7.84838C28.1508 7.91125 28.2421 7.95744 28.3398 7.98417C28.4067 7.99899 28.4761 7.99899 28.543 7.98417C28.6204 7.99931 28.7001 7.99931 28.7775 7.98417C28.9129 7.9378 29.0314 7.85218 29.1177 7.73825C29.204 7.62432 29.2543 7.48727 29.2621 7.34465ZM19.6165 12.024C19.6911 12.0958 19.7793 12.1521 19.8759 12.1896C19.9725 12.2271 20.0756 12.245 20.1793 12.2424C20.3323 12.2402 20.4813 12.1934 20.6078 12.1075C20.7343 12.0217 20.8328 11.9007 20.8911 11.7595C20.9493 11.6184 20.9648 11.4632 20.9355 11.3134C20.9063 11.1636 20.8336 11.0256 20.7264 10.9166L18.9755 9.09162C18.8283 8.94476 18.6287 8.86226 18.4206 8.86226C18.2124 8.86226 18.0128 8.94476 17.8656 9.09162C17.7184 9.23847 17.6357 9.43766 17.6357 9.64534C17.6357 9.85303 17.7184 10.0522 17.8656 10.1991L19.6165 12.024ZM16.9745 14.6757C17.0454 14.7491 17.1304 14.8077 17.2244 14.8478C17.3183 14.888 17.4194 14.909 17.5217 14.9096C17.6779 14.9106 17.8308 14.8648 17.9607 14.7782C18.0906 14.6916 18.1915 14.5681 18.2504 14.4237C18.3093 14.2794 18.3234 14.1207 18.2911 13.9682C18.2587 13.8157 18.1813 13.6764 18.0688 13.5682L16.3179 11.7589C16.246 11.6872 16.1607 11.6303 16.0669 11.5915C15.973 11.5527 15.8724 11.5327 15.7707 11.5327C15.6691 11.5327 15.5685 11.5527 15.4746 11.5915C15.3807 11.6303 15.2954 11.6872 15.2236 11.7589C15.1517 11.8305 15.0947 11.9157 15.0558 12.0093C15.017 12.103 14.9969 12.2034 14.9969 12.3048C14.9969 12.4062 15.017 12.5066 15.0558 12.6002C15.0947 12.6939 15.1517 12.779 15.2236 12.8507L16.9745 14.6757ZM14.3169 17.3273C14.466 17.4766 14.6684 17.5608 14.8797 17.5613C15.0858 17.5583 15.2825 17.4743 15.4268 17.3273C15.5001 17.2548 15.5582 17.1685 15.5979 17.0735C15.6376 16.9785 15.658 16.8765 15.658 16.7736C15.658 16.6706 15.6376 16.5687 15.5979 16.4737C15.5582 16.3786 15.5001 16.2924 15.4268 16.2199L13.6759 14.4105C13.6032 14.3374 13.5168 14.2794 13.4215 14.2398C13.3263 14.2002 13.2241 14.1798 13.1209 14.1798C13.0177 14.1798 12.9156 14.2002 12.8203 14.2398C12.7251 14.2794 12.6386 14.3374 12.566 14.4105C12.4217 14.5589 12.3411 14.7575 12.3411 14.9642C12.3411 15.1709 12.4217 15.3695 12.566 15.5179L14.3169 17.3273ZM11.6749 19.9166C11.8235 20.0551 12.0187 20.133 12.222 20.1349C12.4333 20.1344 12.6357 20.0503 12.7848 19.901C12.8576 19.8298 12.9154 19.7449 12.9549 19.6511C12.9944 19.5574 13.0147 19.4567 13.0147 19.355C13.0147 19.2534 12.9944 19.1527 12.9549 19.0589C12.9154 18.9652 12.8576 18.8803 12.7848 18.8091L10.987 17.0621C10.8366 16.9354 10.6437 16.8699 10.447 16.8788C10.2503 16.8878 10.0642 16.9705 9.92598 17.1104C9.78774 17.2503 9.7075 17.4371 9.70133 17.6335C9.69516 17.8299 9.7635 18.0213 9.89269 18.1696L11.6749 19.9166Z" fill="white"/>
</svg>
