<svg width="85" height="86" viewBox="0 0 85 86" fill="none" xmlns="http://www.w3.org/2000/svg">
<path d="M10.2734 14.8507C10.7423 11.0789 11.2922 8.12212 11.9016 6.04456L11.9016 6.04448C12.1198 5.3004 12.4551 4.17145 13.0537 3.22923C13.6457 2.29751 14.4102 1.67273 15.4789 1.67273C16.5476 1.67273 17.3121 2.29751 17.904 3.22923C18.5027 4.17145 18.838 5.3004 19.0561 6.04448L19.0562 6.04456C19.6655 8.12213 20.2156 11.0789 20.6844 14.8507L20.6844 14.8507C20.7736 15.5687 20.859 16.3097 20.9407 17.0711L21.0946 18.5057L22.1803 17.5555C28.512 12.0147 37.6609 7.0152 47.7941 6.65122C66.3122 5.98638 84.1228 22.6595 84.1169 43.1167C84.1142 53.8992 79.2571 64.1 70.7797 71.1022C64.0446 76.6651 55.8902 79.4429 47.7615 79.4429C45.4427 79.4429 43.1068 79.2186 40.7641 78.7686C37.093 78.0634 34.8653 74.3359 35.7038 70.5833C35.9909 69.2985 36.7498 64.704 33.9379 60.7563C31.7513 57.6864 27.9492 55.7033 22.7863 54.7306L21.9336 54.57L21.8981 55.437C21.7906 58.063 21.6491 60.6068 21.4745 63.0187L21.4745 63.0188L21.4735 63.0325L21.4477 63.39L21.7097 63.6347C23.4989 65.3056 24.6179 67.6797 24.6179 70.311C24.6179 78.1353 18.2782 84.5594 10.5343 84.5594H1.23047V81.0662C4.05627 80.6982 6.33982 78.2879 6.33982 75.4203V70.311C6.33982 67.6797 7.4588 65.3056 9.24808 63.6347L9.5098 63.3902L9.48428 63.0331L9.48329 63.0192L9.48324 63.0185C9.04432 56.9573 8.81208 50.0746 8.81208 43.116C8.81208 32.4612 9.3323 22.4229 10.2734 14.8507ZM10.2734 14.8507L9.52912 14.7582M10.2734 14.8507L9.52912 14.7582M9.52912 14.7582C10 10.9703 10.5559 7.9677 11.1819 5.83347L8.73619 63.0865L8.7352 63.0727C8.2948 56.9911 8.06208 50.0901 8.06208 43.116C8.06208 32.4413 8.58307 22.3703 9.52912 14.7582ZM21.4286 14.7582C21.4826 15.1927 21.5352 15.6354 21.5864 16.0857C21.4539 16.1992 21.3226 16.3128 21.1925 16.4267L21.6864 16.9911L22.4321 16.9111C22.4137 16.7394 22.3951 16.5686 22.3763 16.3989C28.7616 11.0214 37.7762 6.26058 47.7672 5.90171C66.7222 5.22117 84.8729 22.2473 84.8669 43.1169C84.8641 54.1278 79.9035 64.5389 71.2573 71.6804C64.3857 77.3561 56.0618 80.1929 47.7615 80.1929C45.3941 80.1929 43.0108 79.9638 40.6226 79.5051C36.4907 78.7114 34.0515 74.5387 34.9719 70.4197L21.4286 14.7582ZM21.4286 14.7582C20.9579 10.9703 20.4018 7.9677 19.7758 5.83347L21.4286 14.7582ZM22.0585 50.4566L22.0431 51.1061L22.6838 51.2139C29.3168 52.3305 33.9926 54.8956 36.7436 58.7579C40.2595 63.6942 39.5472 69.1787 39.0656 71.3344C38.6937 72.9981 39.4938 75.0172 41.414 75.386C51.0906 77.2446 60.9964 74.7153 68.5862 68.4464C76.2597 62.1082 80.6699 52.8763 80.6726 43.1156C80.6778 24.3974 64.2791 9.50651 47.9176 10.0936C37.0089 10.4854 27.3769 16.7865 21.6975 22.7869L21.4706 23.0266L21.4941 23.3557C21.7174 26.4938 21.8862 29.8527 21.9959 33.3559L22.059 35.3731L23.3285 33.8043C24.9118 31.8478 27.5741 30.8434 30.2395 31.5576C33.7896 32.5089 35.9049 36.1724 34.9537 39.7226C34.0044 43.265 30.3463 45.3902 26.7885 44.4368L26.7884 44.4368C25.4745 44.0848 24.3292 43.3589 23.4643 42.3511L22.1452 40.8139V42.8395L22.1452 42.8447L22.1451 42.8592L22.1448 42.9098L22.1438 43.0902C22.1429 43.2436 22.1415 43.4604 22.1397 43.7256C22.136 44.2561 22.1306 44.98 22.1233 45.7766C22.1087 47.3713 22.0871 49.2519 22.0585 50.4566ZM25.4017 37.163L25.4016 37.1631C24.9408 38.8833 25.9602 40.6487 27.6799 41.1094C29.3963 41.5696 31.1665 40.5479 31.6266 38.8309C32.0867 37.114 31.0648 35.3446 29.3481 34.8845L29.3481 34.8845C27.6279 34.4236 25.8625 35.4432 25.4017 37.163ZM13.4466 17.3973L14.1923 17.4773L13.4466 17.3973C12.6784 24.5558 12.2566 33.6889 12.2566 43.116C12.2566 43.9439 12.2601 44.7703 12.2667 45.5943L12.2727 46.3383H13.0167H17.9411H18.6851L18.6911 45.5943C18.6977 44.7703 18.7011 43.9439 18.7011 43.116C18.7011 33.6889 18.2793 24.5558 17.5112 17.3973C17.0821 13.3988 16.6214 10.6728 16.2111 8.82288L14.7467 8.82288C14.3364 10.6728 13.8757 13.3988 13.4466 17.3973ZM13.0964 49.7812H12.328L12.3467 50.5494C12.4317 54.0496 12.5763 57.4544 12.7771 60.6634L12.8308 61.5213L13.6735 61.3518C14.2576 61.2343 14.8611 61.1719 15.4789 61.1719C16.0967 61.1719 16.7002 61.2343 17.2842 61.3518L18.127 61.5213L18.1807 60.6634C18.3816 57.4544 18.5262 54.0494 18.6111 50.5494L18.6297 49.7812H17.8613H13.0964ZM8.52928 79.981L7.85382 81.1148H9.17361H10.5343C16.413 81.1148 21.1734 76.2571 21.1734 70.311C21.1734 67.1703 18.6195 64.6164 15.4789 64.6164C12.3383 64.6164 9.78435 67.1703 9.78435 70.311V75.4203C9.78435 77.0455 9.34831 78.6062 8.52928 79.981Z" fill="#00778B" stroke="white" stroke-width="1.5"/>
<path d="M66.3178 33.845L66.3178 33.845C63.7188 36.444 59.4883 36.4438 56.8895 33.845L56.8895 33.845C54.2833 31.2389 54.2839 27.0221 56.8895 24.4167L56.8895 24.4167C59.4885 21.8177 63.7192 21.8178 66.3178 24.4166L66.3178 24.4167C68.924 27.0227 68.9235 31.2395 66.3178 33.845ZM63.8822 26.8524L63.8822 26.8524C62.6251 25.5955 60.582 25.5957 59.3252 26.8524C58.0658 28.1115 58.0662 30.1502 59.3251 31.4093L59.3252 31.4094C60.5821 32.6661 62.6249 32.6663 63.8821 31.4095L63.8822 31.4094C65.1414 30.1502 65.1414 28.1117 63.8822 26.8524Z" fill="#00778B" stroke="white" stroke-width="1.5"/>
<path d="M44.2248 30.4516C40.665 31.4053 37.0135 29.2968 36.0598 25.7376C35.1085 22.1874 37.2239 18.5237 40.7739 17.5724L40.774 17.5724C44.3238 16.6212 47.9876 18.7364 48.9391 22.2866M44.2248 30.4516L44.4189 31.1761L44.2248 30.4516ZM44.2248 30.4516C47.775 29.5004 49.8904 25.8366 48.9391 22.2866M48.9391 22.2866L49.6636 22.0925L48.9391 22.2866ZM41.6655 20.8994L41.6655 20.8994C43.3863 20.4384 45.1529 21.4653 45.6121 23.1777L45.6121 23.1778C46.0722 24.8947 45.0504 26.6644 43.3335 27.1243C41.6139 27.5849 39.8482 26.5662 39.3872 24.846L41.6655 20.8994ZM41.6655 20.8994C39.9486 21.3595 38.9269 23.129 39.3871 24.8459L41.6655 20.8994Z" fill="#00778B" stroke="white" stroke-width="1.5"/>
<path d="M54.4629 68.66L54.4629 68.66C58.013 67.7087 60.1282 64.0451 59.1769 60.495C58.2232 56.9362 54.5724 54.8269 51.0117 55.7808L54.4629 68.66ZM54.4629 68.66C50.9077 69.6127 47.2477 67.4911 46.2976 63.946L54.4629 68.66ZM51.9035 59.1078C50.1865 59.5679 49.1649 61.3374 49.6249 63.0544L49.625 63.0545C50.085 64.7708 51.8542 65.7929 53.5714 65.3328L53.5714 65.3328C55.2882 64.8727 56.3098 63.1032 55.8497 61.3862C55.3901 59.6698 53.6267 58.646 51.9035 59.1078ZM51.9035 59.1078L52.0976 59.8323L51.9035 59.1078ZM46.2976 63.946C45.3463 60.3957 47.4617 56.7321 51.0117 55.7808L46.2976 63.946Z" fill="#00778B" stroke="white" stroke-width="1.5"/>
<path d="M68.4481 41.7957L68.448 41.7957C64.8892 40.8416 61.237 42.9498 60.2829 46.5097L68.4481 41.7957ZM68.4481 41.7957C72.0077 42.7494 74.1157 46.4015 73.1621 49.9607M68.4481 41.7957L64.9971 54.6749M65.8886 51.3477L65.8886 51.3477C64.1719 50.8876 63.1503 49.1182 63.6103 47.4012L65.8886 51.3477ZM65.8886 51.3477C67.6086 51.8086 69.3745 50.7888 69.8349 49.0692L65.8886 51.3477ZM73.1621 49.9607C72.2077 53.5228 68.5537 55.6279 64.9971 54.6749M73.1621 49.9607L73.8866 50.1549M73.1621 49.9607L73.8866 50.1549M64.9971 54.6749C61.447 53.7235 59.3317 50.06 60.2829 46.5097L64.9971 54.6749ZM73.8866 50.1549C74.9473 46.1956 72.602 42.1322 68.6422 41.0713L64.803 55.3994C68.7593 56.4595 72.8248 54.1174 73.8866 50.1549ZM69.835 49.069C70.2949 47.352 69.2731 45.5826 67.5565 45.1227C65.833 44.6609 64.0699 45.6849 63.6103 47.4011L69.835 49.069Z" fill="#00778B" stroke="white" stroke-width="1.5"/>
</svg>
