<svg width="82" height="84" viewBox="0 0 82 84" fill="none" xmlns="http://www.w3.org/2000/svg">
<path d="M1.86694 62.1556H0.866943C0.866943 62.5294 1.07537 62.8719 1.40729 63.0437L1.86694 62.1556ZM1.86694 21.4671L1.40732 20.579C1.07538 20.7508 0.866943 21.0933 0.866943 21.4671H1.86694ZM41.1748 82.5L40.7152 83.3881C41.0035 83.5373 41.3462 83.5373 41.6345 83.3881L41.1748 82.5ZM80.4828 62.1569L80.9424 63.0451C81.2744 62.8733 81.4828 62.5307 81.4828 62.1569H80.4828ZM80.4828 21.4685H81.4828C81.4828 21.0947 81.2744 20.7522 80.9424 20.5804L80.4828 21.4685ZM41.1748 1.12415L41.6345 0.236044C41.3462 0.0868503 41.0035 0.0868456 40.7152 0.236032L41.1748 1.12415ZM25.0927 12.2878C24.6052 12.0281 23.9996 12.2127 23.7399 12.7001C23.4802 13.1876 23.6648 13.7932 24.1522 14.0529L25.0927 12.2878ZM59.7926 31.9085H60.7926C60.7926 31.539 60.5889 31.1997 60.2628 31.0259L59.7926 31.9085ZM58.7926 46.899C58.7926 47.4513 59.2403 47.899 59.7926 47.899C60.3449 47.899 60.7926 47.4513 60.7926 46.899H58.7926ZM2.86694 62.1556V21.4671H0.866943V62.1556H2.86694ZM1.4073 22.3552L40.7152 42.6993L41.6345 40.9231L2.32659 20.579L1.4073 22.3552ZM40.1748 41.8112V82.5H42.1748V41.8112H40.1748ZM41.6345 81.6119L2.32659 61.2675L1.40729 63.0437L40.7152 83.3881L41.6345 81.6119ZM41.6345 83.3881L80.9424 63.0451L80.0232 61.2688L40.7152 81.6119L41.6345 83.3881ZM81.4828 62.1569V21.4685H79.4828V62.1569H81.4828ZM80.0232 20.5804L40.7152 40.9231L41.6345 42.6993L80.9424 22.3566L80.0232 20.5804ZM40.7152 0.236032L1.40732 20.579L2.32657 22.3552L41.6345 2.01226L40.7152 0.236032ZM80.9424 20.5804L41.6345 0.236044L40.7152 2.01225L80.0231 22.3566L80.9424 20.5804ZM24.1522 14.0529L59.3224 32.7911L60.2628 31.0259L25.0927 12.2878L24.1522 14.0529ZM58.7926 31.9085V46.899H60.7926V31.9085H58.7926Z" fill="#00778B"/>
</svg>
