<svg width="108" height="85" viewBox="0 0 108 85" fill="none" xmlns="http://www.w3.org/2000/svg">
<path d="M52.9319 38.8343C53.4467 38.6069 54.0335 38.6069 54.5483 38.8343L100.864 59.2947C102.453 59.9967 102.453 62.2516 100.864 62.9536L54.5483 83.414C54.0335 83.6414 53.4467 83.6414 52.9319 83.414L6.61601 62.9536C5.0269 62.2516 5.0269 59.9967 6.61601 59.2947L52.9319 38.8343Z" fill="white" stroke="#00778B" stroke-width="2"/>
<path d="M52.9319 21.5744C53.4467 21.347 54.0335 21.347 54.5483 21.5744L100.864 42.0348C102.453 42.7368 102.453 44.9917 100.864 45.6937L54.5483 66.1541C54.0335 66.3815 53.4467 66.3815 52.9319 66.1541L6.61601 45.6937C5.0269 44.9917 5.0269 42.7368 6.61601 42.0348L52.9319 21.5744Z" fill="white" stroke="#00778B" stroke-width="2"/>
<path d="M52.9319 1.57439C53.4467 1.34698 54.0335 1.34698 54.5483 1.57439L100.864 22.0348C102.453 22.7368 102.453 24.9917 100.864 25.6937L54.5483 46.1541C54.0335 46.3815 53.4467 46.3815 52.9319 46.1541L6.61601 25.6937C5.0269 24.9917 5.0269 22.7368 6.61601 22.0348L52.9319 1.57439Z" fill="white" stroke="#00778B" stroke-width="2"/>
<circle cx="53.7402" cy="11.5859" r="2" fill="#00778B"/>
<circle cx="81.4719" cy="23.3094" r="2" fill="#00778B"/>
<circle cx="53.74" cy="23.8932" r="2" fill="#00778B"/>
<circle cx="53.7402" cy="36.2004" r="2" fill="#00778B"/>
<path d="M27.0449 23.4769L53.7766 11.6412" stroke="#00778B"/>
<path d="M54.7764 35.2005L81.508 23.3647" stroke="#00778B"/>
<circle cx="26.5317" cy="23.8643" r="2" fill="#00778B"/>
</svg>
