<svg width="109" height="81" viewBox="0 0 109 81" fill="none" xmlns="http://www.w3.org/2000/svg">
<path d="M52.0859 33.0514V11.7896C52.0859 8.97911 49.8247 6.65742 47.0874 6.65742C44.3501 6.65742 42.0888 8.97911 42.0888 11.7896V45.5152L34.948 36.4728C34.948 36.4728 31.7346 32.6848 28.2832 35.1287C24.7128 37.3282 26.736 41.605 26.736 41.605C26.736 41.605 40.3036 69.0987 43.517 68.9765V77.7745C43.517 78.9964 44.4691 79.9739 45.5402 79.9739H76.6027C77.7929 79.9739 78.626 78.9964 78.626 77.8967V69.3431C78.626 69.3431 81.9583 62.8668 81.9583 56.5127V18.6325C81.9583 15.822 79.6971 13.5003 76.9598 13.5003C74.2225 13.5003 71.9612 15.822 71.9612 18.6325V9.83447C71.9612 7.024 69.6999 4.70231 66.9626 4.70231C64.2253 4.70231 61.9641 7.024 61.9641 9.83447V7.024C61.9641 4.21354 59.7028 1.89185 56.9655 1.89185C54.2282 1.89185 52.0859 4.21354 52.0859 7.024V11.7896" stroke="#00778B" stroke-width="2" stroke-miterlimit="10" stroke-linecap="round" stroke-linejoin="round"/>
<path d="M55.6377 79.8764V71.1031" stroke="#00778B" stroke-width="2" stroke-miterlimit="10" stroke-linecap="round" stroke-linejoin="round"/>
<path d="M49.7891 79.8764V71.1031" stroke="#00778B" stroke-width="2" stroke-miterlimit="10" stroke-linecap="round" stroke-linejoin="round"/>
<path d="M61.4863 79.8764V71.1031" stroke="#00778B" stroke-width="2" stroke-miterlimit="10" stroke-linecap="round" stroke-linejoin="round"/>
<path d="M67.3359 79.8764V71.1031" stroke="#00778B" stroke-width="2" stroke-miterlimit="10" stroke-linecap="round" stroke-linejoin="round"/>
<path d="M73.1846 79.8764V71.1031" stroke="#00778B" stroke-width="2" stroke-miterlimit="10" stroke-linecap="round" stroke-linejoin="round"/>
<path d="M61.9629 9.83441V33.0513" stroke="#00778B" stroke-width="2" stroke-miterlimit="10" stroke-linecap="round" stroke-linejoin="round"/>
<path d="M71.96 18.6325V33.0514" stroke="#00778B" stroke-width="2" stroke-miterlimit="10" stroke-linecap="round" stroke-linejoin="round"/>
<rect x="50.7051" y="44.1937" width="24.183" height="11.4414" rx="5.72068" stroke="#00778B" stroke-width="2"/>
<path d="M19.1865 40.8842H1.00052" stroke="#00778B" stroke-width="2" stroke-linecap="round"/>
<path d="M19.1865 50.6323L6.19652 60.3803" stroke="#00778B" stroke-width="2" stroke-linecap="round"/>
<path d="M19.1865 31.1361L6.19652 21.388" stroke="#00778B" stroke-width="2" stroke-linecap="round"/>
<path d="M89.8145 40.8842H108" stroke="#00778B" stroke-width="2" stroke-linecap="round"/>
<path d="M89.8145 50.6323L102.804 60.3803" stroke="#00778B" stroke-width="2" stroke-linecap="round"/>
<path d="M89.8145 31.1361L102.804 21.388" stroke="#00778B" stroke-width="2" stroke-linecap="round"/>
</svg>
