<svg width="161" height="60" viewBox="0 0 161 60" fill="none" xmlns="http://www.w3.org/2000/svg">
<path d="M123.177 20.1896H156.654L161 11.564H123.177C112.173 11.564 103.203 20.0948 103.203 30.6161C103.203 41.1375 112.173 49.6683 123.177 49.6683H141.765L146.111 41.0427H123.177C117.167 41.0427 112.265 36.3033 112.265 30.6161C112.265 24.9289 117.167 20.1896 123.177 20.1896Z" fill="#84AA32"/>
<path d="M100.613 20.5687C100.613 16.1137 97.2843 11.1848 87.9443 11.1848H79.8064L75.4601 19.8104H87.9443C89.7938 19.8104 91.2734 21.2322 91.2734 23.0332C91.2734 24.8341 89.7938 26.2559 87.9443 26.2559H72.2234L67.8771 34.8815H87.9443C89.7938 34.8815 91.2734 36.3033 91.2734 38.1043C91.2734 39.9052 89.7938 41.327 87.9443 41.327H64.6404L60.3866 49.8578L87.9443 49.9526C96.8219 49.9526 100.521 45.0237 100.521 40.2844C100.521 33.5545 94.0477 30.7109 94.0477 30.7109C94.0477 30.7109 100.613 27.0142 100.613 20.5687Z" fill="#84AA32"/>
<path d="M42.6312 41.1374H19.9747C13.9638 41.1374 9.06261 36.3981 9.06261 30.7109C9.06261 24.9289 13.9638 20.2844 19.9747 20.2844H53.2659L57.6123 11.6588H19.9747C8.97013 11.564 0 20.0948 0 30.6161C0 41.1374 8.97013 49.6682 19.9747 49.6682H38.3774L42.6312 41.1374Z" fill="#84AA32"/>
<path d="M72.8708 0.758282C52.7111 8.62558 49.7519 54.6919 28.8524 60C53.5434 57.7251 58.0747 6.72985 72.8708 0.758282Z" fill="#84AA32"/>
<path d="M78.9742 0.473922C58.8145 8.34122 55.8553 54.4076 34.9558 59.7156C59.5543 57.4408 64.1781 6.44549 78.9742 0.473922Z" fill="#84AA32"/>
<path d="M85.0775 0.189585C64.9179 8.05688 61.9586 54.1232 40.9667 59.3365C65.6577 57.1564 70.2814 6.16115 85.0775 0.189585Z" fill="#84AA32"/>
<path d="M85.0775 0.189585C85.17 0.0947983 85.355 0.0947867 85.4475 0C85.2625 0 85.17 0.0947983 85.0775 0.189585Z" fill="#84AA32"/>
</svg>
