<svg width="189" height="71" viewBox="0 0 189 71" fill="none" xmlns="http://www.w3.org/2000/svg">
<path d="M143.977 23.7934H183.097L188.182 13.7064H143.977C131.119 13.7064 120.6 23.6766 120.6 35.9844C120.6 48.2921 131.119 58.2506 143.977 58.2506H165.694L170.778 48.1168H143.977C140.674 48.1767 137.481 46.9312 135.091 44.6508C132.702 42.3705 131.308 39.2394 131.213 35.9376C131.32 32.643 132.718 29.5226 135.107 27.2504C137.495 24.9782 140.681 23.7365 143.977 23.7934Z" fill="#84AA32"/>
<path d="M117.596 24.2376C117.596 19.0246 113.704 13.2623 102.787 13.2623H93.2844L88.2 23.3493H102.787C103.787 23.2935 104.768 23.6371 105.514 24.3046C106.26 24.972 106.711 25.9086 106.767 26.9084C106.823 27.9081 106.479 28.889 105.812 29.6354C105.144 30.3818 104.208 30.8324 103.208 30.8882H84.413L79.3403 40.9636H102.787C103.787 40.9078 104.768 41.2514 105.514 41.9189C106.26 42.5863 106.711 43.5229 106.767 44.5227C106.823 45.5224 106.479 46.5033 105.812 47.2497C105.144 47.9961 104.208 48.4467 103.208 48.5025C103.068 48.5142 102.927 48.5142 102.787 48.5025H75.5533L70.5857 58.4727L102.787 58.6363C113.166 58.6363 117.491 52.874 117.491 47.3337C117.491 39.4675 109.929 36.148 109.929 36.148C109.929 36.148 117.596 31.7532 117.596 24.2376Z" fill="#84AA32"/>
<path d="M49.8273 48.2804H23.3766C20.068 48.3465 16.8674 47.1022 14.4722 44.8187C12.0771 42.5352 10.6815 39.3975 10.5896 36.0895C10.6275 34.4491 10.9885 32.8322 11.6519 31.3314C12.3152 29.8306 13.268 28.4753 14.4556 27.343C15.6432 26.2107 17.0425 25.3237 18.5732 24.7327C20.104 24.1417 21.7362 23.8582 23.3766 23.8986H62.2987L67.3714 13.8233H23.3766C10.5195 13.7064 0 23.6766 0 36.0311C0 48.3856 10.5195 58.2389 23.3766 58.2389H44.8597L49.8273 48.2804Z" fill="#84AA32"/>
<path d="M85.1727 1.08306C61.609 10.2818 58.1493 64.1181 33.7207 70.3246C62.5791 67.6714 67.874 8.06098 85.1727 1.08306Z" fill="#00778B"/>
<path d="M92.3376 0.744097C68.7389 9.9428 65.2908 63.7908 40.909 69.9973C69.6038 67.3324 75.0155 7.73371 92.3376 0.744097Z" fill="#00778B"/>
<path d="M99.4441 0.416824C75.8805 9.61553 72.4675 63.4519 47.922 69.5532C76.7454 67.0051 82.1454 7.39475 99.4441 0.416824Z" fill="#00778B"/>
</svg>
