<svg xmlns="http://www.w3.org/2000/svg" viewBox="0 0 161 60"><defs><style>.cls-1{fill:#84aa32;}.cls-2{fill:#00778b;}</style></defs><title>logo</title><g id="Слой_2" data-name="Слой 2"><g id="Слой_1-2" data-name="Слой 1"><g id="Слой_1-2-2" data-name="Слой 1-2"><path class="cls-1" d="M123.18,20.19h33.47L161,11.56H123.18c-11,0-20,8.53-20,19.06s9,19.05,20,19.05h18.58L146.11,41H123.18a10.73,10.73,0,0,1-10.92-10.42A10.74,10.74,0,0,1,123.18,20.19Z"/><path class="cls-1" d="M100.61,20.57c0-4.46-3.33-9.39-12.67-9.39H79.81l-4.35,8.63H87.94a3.23,3.23,0,0,1,.36,6.45H72.22l-4.34,8.62H87.94a3.23,3.23,0,0,1,.36,6.45,2.16,2.16,0,0,1-.36,0H64.64l-4.25,8.53L87.94,50c8.88,0,12.58-4.93,12.58-9.67,0-6.73-6.47-9.57-6.47-9.57S100.61,27,100.61,20.57Z"/><path class="cls-1" d="M42.63,41.14H20A10.73,10.73,0,0,1,9.06,30.71,10.68,10.68,0,0,1,20,20.28H53.3l4.34-8.62H20c-11-.1-20,8.43-20,19s9,19,20,19H38.38Z"/><path class="cls-2" d="M72.87.76C52.71,8.63,49.75,54.69,28.85,60,53.54,57.73,58.07,6.73,72.87.76Z"/><path class="cls-2" d="M79,.47C58.81,8.34,55.86,54.41,35,59.72,59.55,57.44,64.18,6.45,79,.47Z"/><path class="cls-2" d="M85.08.19C64.92,8.06,62,54.12,41,59.34,65.66,57.16,70.28,6.16,85.08.19Z"/><path class="cls-1" d="M85.08.19c.09-.1.28-.1.37-.19A.44.44,0,0,0,85.08.19Z"/></g></g></g></svg>