<svg width="147" height="56" viewBox="0 0 147 56" fill="none" xmlns="http://www.w3.org/2000/svg">
<path d="M112.469 18.0835H143.028L147 10.2645H112.469C102.425 10.2645 94.2078 17.9929 94.2078 27.5333C94.2078 37.0737 102.425 44.793 112.469 44.793H129.433L133.405 36.9378H112.469C109.889 36.9842 107.395 36.0188 105.528 34.2512C103.661 32.4836 102.572 30.0565 102.498 27.4971C102.582 24.9432 103.674 22.5245 105.54 20.7632C107.405 19.0019 109.894 18.0393 112.469 18.0835Z" fill="#C7C7C7"/>
<path d="M91.8613 18.4278C91.8613 14.3869 88.8209 9.92026 80.293 9.92026H72.87L68.8983 17.7392H80.293C81.074 17.696 81.8403 17.9623 82.4233 18.4797C83.0063 18.9971 83.3584 19.7231 83.402 20.4981C83.4455 21.273 83.1771 22.0334 82.6557 22.6119C82.1343 23.1905 81.4027 23.5398 80.6217 23.5831H65.94L61.9774 31.393H80.293C81.074 31.3497 81.8403 31.6161 82.4233 32.1335C83.0063 32.6509 83.3584 33.3769 83.402 34.1518C83.4455 34.9268 83.1771 35.6871 82.6557 36.2657C82.1343 36.8442 81.4027 37.1936 80.6217 37.2368C80.5124 37.2459 80.4024 37.2459 80.293 37.2368H59.0191L55.1387 44.9652L80.293 45.092C88.4009 45.092 91.7791 40.6253 91.7791 36.3308C91.7791 30.2333 85.8717 27.6602 85.8717 27.6602C85.8717 27.6602 91.8613 24.2535 91.8613 18.4278Z" fill="#C7C7C7"/>
<path d="M38.923 37.0647H18.2609C15.6763 37.1159 13.1761 36.1513 11.3051 34.3813C9.4341 32.6112 8.34394 30.1791 8.27217 27.6149C8.30179 26.3433 8.58376 25.0899 9.10196 23.9266C9.62015 22.7632 10.3644 21.7126 11.2921 20.835C12.2199 19.9573 13.3129 19.2697 14.5086 18.8116C15.7044 18.3534 16.9795 18.1338 18.2609 18.1651H48.6652L52.6278 10.3551H18.2609C8.21739 10.2645 0 17.9929 0 27.5696C0 37.1462 8.21739 44.784 18.2609 44.784H35.0426L38.923 37.0647Z" fill="#C7C7C7"/>
<path d="M66.396 0.524277C47.9659 7.76297 45.2599 50.1282 26.1533 55.0123C48.7247 52.9244 52.866 6.01539 66.396 0.524277Z" fill="#C7C7C7"/>
<path d="M72 0.257539C53.5425 7.49624 50.8456 49.8707 31.7756 54.7547C54.219 52.6576 58.4517 5.75785 72 0.257539Z" fill="#C7C7C7"/>
<path d="M77.5582 0C59.1282 7.2387 56.4587 49.6039 37.2607 54.4052C59.8047 52.4001 64.0282 5.49111 77.5582 0Z" fill="#C7C7C7"/>
</svg>
