<svg width="112" height="28" viewBox="0 0 112 28" fill="none" xmlns="http://www.w3.org/2000/svg">
<path d="M27 0.5H0V27.4997H27V0.5Z" fill="#A0A0A0"/>
<path d="M112 0.5H32V27.4997H112V0.5Z" fill="#A0A0A0"/>
<path d="M50.821 9.51318C52.6772 9.51318 53.9368 10.9712 53.9368 13.0442V18.8306H52.1247V13.4999C52.1247 12.0419 51.506 11.199 50.4011 11.199C49.23 11.199 48.324 12.2925 48.324 13.8644V18.8306H46.5561V13.4999C46.5561 12.0419 45.9374 11.199 44.8325 11.199C43.6614 11.199 42.7554 12.2925 42.7554 13.8644V18.8306H40.9434V9.71821H42.225L42.5344 10.9028C43.1973 10.0599 44.2138 9.51318 45.2745 9.51318C46.4678 9.51318 47.418 10.1283 47.9262 11.1079C48.5891 10.1283 49.6719 9.51318 50.821 9.51318Z" fill="white"/>
<path d="M64.8993 9.71821V18.8306H63.4409L63.2641 17.7144C62.4686 18.5573 61.3416 19.0584 60.0599 19.0584C57.4303 19.0584 55.4636 17.0081 55.4636 14.2744C55.4636 11.5407 57.4303 9.51318 60.0599 9.51318C61.3637 9.51318 62.4907 10.0144 63.2862 10.8573L63.5071 9.71821H64.8993ZM63.0873 14.2744C63.0873 12.5658 61.8719 11.2901 60.2146 11.2901C58.5573 11.2901 57.3198 12.5658 57.3198 14.2744C57.3198 15.983 58.5573 17.2587 60.2146 17.2587C61.8719 17.2587 63.0873 15.983 63.0873 14.2744Z" fill="white"/>
<path d="M75.791 6.46028V18.8304H74.421L74.1779 17.8052C73.3824 18.6026 72.2996 19.0582 71.0621 19.0582C68.3883 19.0582 66.4658 17.0079 66.4658 14.2742C66.4658 11.5405 68.3883 9.49016 71.0621 9.49016C72.1891 9.49016 73.2056 9.87743 73.979 10.5381V6.4375L75.791 6.46028ZM71.1947 17.2585C72.852 17.2585 74.0895 15.96 74.0895 14.2742C74.0895 12.5656 72.852 11.2899 71.1947 11.2899C69.5374 11.2899 68.322 12.5656 68.322 14.2742C68.322 16.0055 69.5374 17.2585 71.1947 17.2585Z" fill="white"/>
</svg>
