<svg width="17" height="13" viewBox="0 0 17 13" fill="none" xmlns="http://www.w3.org/2000/svg">
<path d="M16.668 4.2168C15.8711 4.84766 14.1445 6.10938 11.5547 7.96875L11.2227 8.23438C10.6914 8.63281 10.293 8.93164 9.96094 9.09766C9.42969 9.42969 8.93164 9.5625 8.5 9.5625C8.03516 9.5625 7.57031 9.42969 7.03906 9.13086C6.70703 8.96484 6.30859 8.66602 5.77734 8.26758L5.44531 7.96875C2.75586 6.04297 1.0625 4.78125 0.332031 4.2168C0.265625 4.18359 0.166016 4.18359 0.0996094 4.2168C0.0332031 4.25 0 4.31641 0 4.38281V11.1562C0 11.6211 0.132812 11.9863 0.464844 12.2852C0.763672 12.6172 1.12891 12.75 1.59375 12.75H15.4062C15.8379 12.75 16.2031 12.6172 16.5352 12.2852C16.834 11.9863 17 11.6211 17 11.1562V4.38281C17 4.31641 16.9336 4.25 16.8672 4.18359C16.8008 4.15039 16.7344 4.15039 16.668 4.2168ZM8.5 8.5C8.20117 8.5 7.83594 8.36719 7.4375 8.10156C7.17188 7.96875 6.83984 7.73633 6.4082 7.37109L6.07617 7.13867C3.35352 5.14648 1.49414 3.78516 0.53125 3.02148L0.298828 2.85547C0.0996094 2.72266 0 2.49023 0 2.22461V1.59375C0 1.16211 0.132812 0.796875 0.464844 0.464844C0.763672 0.166016 1.12891 0 1.59375 0H15.4062C15.8379 0 16.2031 0.166016 16.5352 0.464844C16.834 0.796875 17 1.16211 17 1.59375V2.22461C17 2.49023 16.9004 2.72266 16.7012 2.85547L16.5352 2.98828C15.5723 3.75195 13.7129 5.14648 10.9238 7.13867L10.5918 7.37109C10.127 7.73633 9.79492 7.96875 9.5625 8.10156C9.13086 8.36719 8.76562 8.5 8.5 8.5Z" fill="white"/>
</svg>
