<svg width="99" height="132" viewBox="0 0 99 132" fill="none" xmlns="http://www.w3.org/2000/svg">
<rect x="9.5" y="9.5" width="88" height="121" rx="2.5" stroke="#00778B" stroke-width="3" stroke-linejoin="round"/>
<path d="M87 122.5H4C2.61929 122.5 1.5 121.381 1.5 120V4C1.5 2.61929 2.61929 1.5 4 1.5H73.2302C73.8927 1.5 74.528 1.7629 74.9967 2.23097L88.7665 15.9811C89.2361 16.45 89.5 17.0865 89.5 17.7501V120C89.5 121.381 88.3807 122.5 87 122.5Z" fill="#E4D9C6" stroke="#00778B" stroke-width="3" stroke-linejoin="round"/>
<path d="M74 3L74 15C74 16.1046 74.8954 17 76 17H88" stroke="#00778B" stroke-width="3"/>
<path d="M18 57.5H25H32M39 57.5H73" stroke="#00778B" stroke-width="3"/>
<path d="M18 69.5H32M39 69.5H73" stroke="#00778B" stroke-width="3"/>
<path d="M18 81.5H32M39 81.5H73" stroke="#00778B" stroke-width="3"/>
<path d="M59 97.5H73" stroke="#00778B" stroke-width="3"/>
<path d="M39 19H53.1429" stroke="#00778B" stroke-width="3"/>
<path d="M39 25H53.1429" stroke="#00778B" stroke-width="3"/>
<circle cx="25" cy="22" r="5" fill="#00778B"/>
</svg>
