<svg width="273" height="274" viewBox="0 0 273 274" fill="none" xmlns="http://www.w3.org/2000/svg">
<mask id="path-1-inside-1" fill="white">
<path d="M221.747 238.645L211.53 207.948C207.96 197.231 198.85 189.321 187.746 187.297L158.252 181.923V179.634C163.384 176.65 167.851 172.66 171.408 167.935H180.319C187.618 167.935 193.559 161.987 193.559 154.677V101.645C193.559 69.9672 167.82 44.1936 136.184 44.1936C104.549 44.1936 78.8102 69.9672 78.8102 101.645V132.581C78.8102 141.101 84.8609 148.23 92.8845 149.891C95.3604 162.592 103.287 173.34 114.117 179.634V181.923L84.6182 187.297C73.5185 189.321 64.4048 197.231 60.8387 207.948L59.0734 213.256L44.0413 198.204C42.3201 196.48 42.3201 193.674 44.0413 191.95L61.4743 174.498L28.7533 141.733L9.0518 161.461C3.21727 167.304 0.00430997 175.073 0.00430997 183.337C0.00430997 191.601 3.21727 199.366 9.0518 205.208L68.699 264.936C74.5336 270.778 82.2923 274 90.5454 274C98.7985 274 106.553 270.778 112.251 265.068L133.748 245.345L127.044 238.645H221.747ZM184.732 154.677C184.732 157.117 182.75 159.097 180.319 159.097H176.607C177.887 156.176 178.858 153.095 179.484 149.891C181.373 149.498 183.112 148.747 184.732 147.801V154.677ZM180.319 140.191V124.971C182.945 126.504 184.732 129.324 184.732 132.581C184.732 135.838 182.945 138.657 180.319 140.191ZM92.0504 140.191C89.4244 138.657 87.637 135.838 87.637 132.581C87.637 129.324 89.4244 126.504 92.0504 124.971V140.191ZM92.0504 110.484V115.531C90.4792 115.942 89.0051 116.56 87.637 117.36V101.645C87.637 74.8418 109.417 53.0323 136.184 53.0323C162.952 53.0323 184.732 74.8418 184.732 101.645V117.36C183.364 116.56 181.89 115.937 180.319 115.531V110.484H175.905C162.855 110.484 150.585 105.393 141.353 96.1519L136.184 90.9768L131.016 96.1519C121.784 105.393 109.514 110.484 96.4638 110.484H92.0504ZM100.877 141.419V119.155C114.131 118.156 126.488 112.68 136.184 103.448C145.881 112.68 158.238 118.16 171.492 119.155V141.419C171.492 147.863 169.735 153.891 166.716 159.097H136.184V167.935H159.461C153.238 173.42 145.104 176.774 136.184 176.774C116.717 176.774 100.877 160.913 100.877 141.419ZM149.425 183.576V183.783L136.184 197.041L122.944 183.783V183.576C127.128 184.893 131.572 185.613 136.184 185.613C140.796 185.613 145.241 184.893 149.425 183.576ZM69.2066 210.741C71.7531 203.087 78.2629 197.435 86.1938 195.985L117.044 190.373L136.184 209.539L155.321 190.377L186.166 195.99C194.097 197.439 200.607 203.087 203.154 210.746L209.504 229.806H118.217L101.027 212.593L81.926 229.895C80.2622 231.57 77.3537 231.57 75.6855 229.895L66.0466 220.243L69.2066 210.741ZM28.7488 154.231L48.9887 174.498L44.1958 179.298L23.9559 159.03L28.7488 154.231ZM106.138 258.696C101.972 262.859 96.4285 265.161 90.5366 265.161C84.6447 265.161 79.1014 262.859 74.9308 258.687L15.2835 198.964C11.1173 194.792 8.8223 189.241 8.8223 183.341C8.8223 177.437 11.1173 171.886 15.2835 167.715L17.7109 165.284L37.9508 185.551L37.7919 185.71C32.6326 190.881 32.6326 199.291 37.7919 204.461L69.4405 236.153C71.9429 238.654 75.2662 240.037 78.8057 240.037C82.3453 240.037 85.6686 238.658 88.0077 236.307L88.3387 236.011L108.671 256.371L106.138 258.696ZM115.185 250.387L94.897 230.072L100.727 224.795L120.98 245.075L115.185 250.387Z"/>
<path d="M259.76 0H197.972C190.672 0 184.732 5.94845 184.732 13.2581V48.6129C184.732 55.9225 190.672 61.871 197.972 61.871H209.76L205.197 88.5241L247.786 61.871H259.76C267.06 61.871 273 55.9225 273 48.6129V13.2581C273 5.94845 267.06 0 259.76 0ZM264.173 48.6129C264.173 51.048 262.192 53.0323 259.76 53.0323H245.253L217.223 70.5727L220.229 53.0323H197.972C195.54 53.0323 193.559 51.048 193.559 48.6129V13.2581C193.559 10.823 195.54 8.83871 197.972 8.83871H259.76C262.192 8.83871 264.173 10.823 264.173 13.2581V48.6129Z"/>
<path d="M255.346 17.6774H202.385V26.5161H255.346V17.6774Z"/>
<path d="M237.693 35.3548H202.385V44.1936H237.693V35.3548Z"/>
<path d="M255.346 35.3548H246.52V44.1936H255.346V35.3548Z"/>
<path d="M136.185 13.2581C78.519 13.2581 28.846 53.2002 15.9324 108.915L7.569 94.9543L0 99.5018L15.5131 125.386L41.3625 109.852L36.8211 102.273L24.8607 109.459C37.3683 58.4902 83.1398 22.0968 136.185 22.0968C147.779 22.0968 159.218 23.8203 170.186 27.2232L172.798 18.7823C160.984 15.1142 148.666 13.2581 136.185 13.2581Z"/>
<path d="M270.855 97.8533L245.006 82.3193L229.497 108.208L237.066 112.755L244.79 99.8642C248.854 111.774 250.933 124.232 250.933 137C250.933 163.282 241.842 188.976 225.34 209.345L232.194 214.913C249.971 192.976 259.76 165.302 259.76 137C259.76 123.481 257.584 110.281 253.343 97.6412L266.314 105.433L270.855 97.8533Z"/>
</mask>
<path d="M221.747 238.645L211.53 207.948C207.96 197.231 198.85 189.321 187.746 187.297L158.252 181.923V179.634C163.384 176.65 167.851 172.66 171.408 167.935H180.319C187.618 167.935 193.559 161.987 193.559 154.677V101.645C193.559 69.9672 167.82 44.1936 136.184 44.1936C104.549 44.1936 78.8102 69.9672 78.8102 101.645V132.581C78.8102 141.101 84.8609 148.23 92.8845 149.891C95.3604 162.592 103.287 173.34 114.117 179.634V181.923L84.6182 187.297C73.5185 189.321 64.4048 197.231 60.8387 207.948L59.0734 213.256L44.0413 198.204C42.3201 196.48 42.3201 193.674 44.0413 191.95L61.4743 174.498L28.7533 141.733L9.0518 161.461C3.21727 167.304 0.00430997 175.073 0.00430997 183.337C0.00430997 191.601 3.21727 199.366 9.0518 205.208L68.699 264.936C74.5336 270.778 82.2923 274 90.5454 274C98.7985 274 106.553 270.778 112.251 265.068L133.748 245.345L127.044 238.645H221.747ZM184.732 154.677C184.732 157.117 182.75 159.097 180.319 159.097H176.607C177.887 156.176 178.858 153.095 179.484 149.891C181.373 149.498 183.112 148.747 184.732 147.801V154.677ZM180.319 140.191V124.971C182.945 126.504 184.732 129.324 184.732 132.581C184.732 135.838 182.945 138.657 180.319 140.191ZM92.0504 140.191C89.4244 138.657 87.637 135.838 87.637 132.581C87.637 129.324 89.4244 126.504 92.0504 124.971V140.191ZM92.0504 110.484V115.531C90.4792 115.942 89.0051 116.56 87.637 117.36V101.645C87.637 74.8418 109.417 53.0323 136.184 53.0323C162.952 53.0323 184.732 74.8418 184.732 101.645V117.36C183.364 116.56 181.89 115.937 180.319 115.531V110.484H175.905C162.855 110.484 150.585 105.393 141.353 96.1519L136.184 90.9768L131.016 96.1519C121.784 105.393 109.514 110.484 96.4638 110.484H92.0504ZM100.877 141.419V119.155C114.131 118.156 126.488 112.68 136.184 103.448C145.881 112.68 158.238 118.16 171.492 119.155V141.419C171.492 147.863 169.735 153.891 166.716 159.097H136.184V167.935H159.461C153.238 173.42 145.104 176.774 136.184 176.774C116.717 176.774 100.877 160.913 100.877 141.419ZM149.425 183.576V183.783L136.184 197.041L122.944 183.783V183.576C127.128 184.893 131.572 185.613 136.184 185.613C140.796 185.613 145.241 184.893 149.425 183.576ZM69.2066 210.741C71.7531 203.087 78.2629 197.435 86.1938 195.985L117.044 190.373L136.184 209.539L155.321 190.377L186.166 195.99C194.097 197.439 200.607 203.087 203.154 210.746L209.504 229.806H118.217L101.027 212.593L81.926 229.895C80.2622 231.57 77.3537 231.57 75.6855 229.895L66.0466 220.243L69.2066 210.741ZM28.7488 154.231L48.9887 174.498L44.1958 179.298L23.9559 159.03L28.7488 154.231ZM106.138 258.696C101.972 262.859 96.4285 265.161 90.5366 265.161C84.6447 265.161 79.1014 262.859 74.9308 258.687L15.2835 198.964C11.1173 194.792 8.8223 189.241 8.8223 183.341C8.8223 177.437 11.1173 171.886 15.2835 167.715L17.7109 165.284L37.9508 185.551L37.7919 185.71C32.6326 190.881 32.6326 199.291 37.7919 204.461L69.4405 236.153C71.9429 238.654 75.2662 240.037 78.8057 240.037C82.3453 240.037 85.6686 238.658 88.0077 236.307L88.3387 236.011L108.671 256.371L106.138 258.696ZM115.185 250.387L94.897 230.072L100.727 224.795L120.98 245.075L115.185 250.387Z" fill="#84AA32"/>
<path d="M259.76 0H197.972C190.672 0 184.732 5.94845 184.732 13.2581V48.6129C184.732 55.9225 190.672 61.871 197.972 61.871H209.76L205.197 88.5241L247.786 61.871H259.76C267.06 61.871 273 55.9225 273 48.6129V13.2581C273 5.94845 267.06 0 259.76 0ZM264.173 48.6129C264.173 51.048 262.192 53.0323 259.76 53.0323H245.253L217.223 70.5727L220.229 53.0323H197.972C195.54 53.0323 193.559 51.048 193.559 48.6129V13.2581C193.559 10.823 195.54 8.83871 197.972 8.83871H259.76C262.192 8.83871 264.173 10.823 264.173 13.2581V48.6129Z" fill="#84AA32"/>
<path d="M255.346 17.6774H202.385V26.5161H255.346V17.6774Z" fill="#84AA32"/>
<path d="M237.693 35.3548H202.385V44.1936H237.693V35.3548Z" fill="#84AA32"/>
<path d="M255.346 35.3548H246.52V44.1936H255.346V35.3548Z" fill="#84AA32"/>
<path d="M136.185 13.2581C78.519 13.2581 28.846 53.2002 15.9324 108.915L7.569 94.9543L0 99.5018L15.5131 125.386L41.3625 109.852L36.8211 102.273L24.8607 109.459C37.3683 58.4902 83.1398 22.0968 136.185 22.0968C147.779 22.0968 159.218 23.8203 170.186 27.2232L172.798 18.7823C160.984 15.1142 148.666 13.2581 136.185 13.2581Z" fill="#84AA32"/>
<path d="M270.855 97.8533L245.006 82.3193L229.497 108.208L237.066 112.755L244.79 99.8642C248.854 111.774 250.933 124.232 250.933 137C250.933 163.282 241.842 188.976 225.34 209.345L232.194 214.913C249.971 192.976 259.76 165.302 259.76 137C259.76 123.481 257.584 110.281 253.343 97.6412L266.314 105.433L270.855 97.8533Z" fill="#84AA32"/>
<path d="M221.747 238.645L211.53 207.948C207.96 197.231 198.85 189.321 187.746 187.297L158.252 181.923V179.634C163.384 176.65 167.851 172.66 171.408 167.935H180.319C187.618 167.935 193.559 161.987 193.559 154.677V101.645C193.559 69.9672 167.82 44.1936 136.184 44.1936C104.549 44.1936 78.8102 69.9672 78.8102 101.645V132.581C78.8102 141.101 84.8609 148.23 92.8845 149.891C95.3604 162.592 103.287 173.34 114.117 179.634V181.923L84.6182 187.297C73.5185 189.321 64.4048 197.231 60.8387 207.948L59.0734 213.256L44.0413 198.204C42.3201 196.48 42.3201 193.674 44.0413 191.95L61.4743 174.498L28.7533 141.733L9.0518 161.461C3.21727 167.304 0.00430997 175.073 0.00430997 183.337C0.00430997 191.601 3.21727 199.366 9.0518 205.208L68.699 264.936C74.5336 270.778 82.2923 274 90.5454 274C98.7985 274 106.553 270.778 112.251 265.068L133.748 245.345L127.044 238.645H221.747ZM184.732 154.677C184.732 157.117 182.75 159.097 180.319 159.097H176.607C177.887 156.176 178.858 153.095 179.484 149.891C181.373 149.498 183.112 148.747 184.732 147.801V154.677ZM180.319 140.191V124.971C182.945 126.504 184.732 129.324 184.732 132.581C184.732 135.838 182.945 138.657 180.319 140.191ZM92.0504 140.191C89.4244 138.657 87.637 135.838 87.637 132.581C87.637 129.324 89.4244 126.504 92.0504 124.971V140.191ZM92.0504 110.484V115.531C90.4792 115.942 89.0051 116.56 87.637 117.36V101.645C87.637 74.8418 109.417 53.0323 136.184 53.0323C162.952 53.0323 184.732 74.8418 184.732 101.645V117.36C183.364 116.56 181.89 115.937 180.319 115.531V110.484H175.905C162.855 110.484 150.585 105.393 141.353 96.1519L136.184 90.9768L131.016 96.1519C121.784 105.393 109.514 110.484 96.4638 110.484H92.0504ZM100.877 141.419V119.155C114.131 118.156 126.488 112.68 136.184 103.448C145.881 112.68 158.238 118.16 171.492 119.155V141.419C171.492 147.863 169.735 153.891 166.716 159.097H136.184V167.935H159.461C153.238 173.42 145.104 176.774 136.184 176.774C116.717 176.774 100.877 160.913 100.877 141.419ZM149.425 183.576V183.783L136.184 197.041L122.944 183.783V183.576C127.128 184.893 131.572 185.613 136.184 185.613C140.796 185.613 145.241 184.893 149.425 183.576ZM69.2066 210.741C71.7531 203.087 78.2629 197.435 86.1938 195.985L117.044 190.373L136.184 209.539L155.321 190.377L186.166 195.99C194.097 197.439 200.607 203.087 203.154 210.746L209.504 229.806H118.217L101.027 212.593L81.926 229.895C80.2622 231.57 77.3537 231.57 75.6855 229.895L66.0466 220.243L69.2066 210.741ZM28.7488 154.231L48.9887 174.498L44.1958 179.298L23.9559 159.03L28.7488 154.231ZM106.138 258.696C101.972 262.859 96.4285 265.161 90.5366 265.161C84.6447 265.161 79.1014 262.859 74.9308 258.687L15.2835 198.964C11.1173 194.792 8.8223 189.241 8.8223 183.341C8.8223 177.437 11.1173 171.886 15.2835 167.715L17.7109 165.284L37.9508 185.551L37.7919 185.71C32.6326 190.881 32.6326 199.291 37.7919 204.461L69.4405 236.153C71.9429 238.654 75.2662 240.037 78.8057 240.037C82.3453 240.037 85.6686 238.658 88.0077 236.307L88.3387 236.011L108.671 256.371L106.138 258.696ZM115.185 250.387L94.897 230.072L100.727 224.795L120.98 245.075L115.185 250.387Z" stroke="#574C45" stroke-width="6" mask="url(#path-1-inside-1)"/>
<path d="M259.76 0H197.972C190.672 0 184.732 5.94845 184.732 13.2581V48.6129C184.732 55.9225 190.672 61.871 197.972 61.871H209.76L205.197 88.5241L247.786 61.871H259.76C267.06 61.871 273 55.9225 273 48.6129V13.2581C273 5.94845 267.06 0 259.76 0ZM264.173 48.6129C264.173 51.048 262.192 53.0323 259.76 53.0323H245.253L217.223 70.5727L220.229 53.0323H197.972C195.54 53.0323 193.559 51.048 193.559 48.6129V13.2581C193.559 10.823 195.54 8.83871 197.972 8.83871H259.76C262.192 8.83871 264.173 10.823 264.173 13.2581V48.6129Z" stroke="#574C45" stroke-width="6" mask="url(#path-1-inside-1)"/>
<path d="M255.346 17.6774H202.385V26.5161H255.346V17.6774Z" stroke="#574C45" stroke-width="6" mask="url(#path-1-inside-1)"/>
<path d="M237.693 35.3548H202.385V44.1936H237.693V35.3548Z" stroke="#574C45" stroke-width="6" mask="url(#path-1-inside-1)"/>
<path d="M255.346 35.3548H246.52V44.1936H255.346V35.3548Z" stroke="#574C45" stroke-width="6" mask="url(#path-1-inside-1)"/>
<path d="M136.185 13.2581C78.519 13.2581 28.846 53.2002 15.9324 108.915L7.569 94.9543L0 99.5018L15.5131 125.386L41.3625 109.852L36.8211 102.273L24.8607 109.459C37.3683 58.4902 83.1398 22.0968 136.185 22.0968C147.779 22.0968 159.218 23.8203 170.186 27.2232L172.798 18.7823C160.984 15.1142 148.666 13.2581 136.185 13.2581Z" stroke="#574C45" stroke-width="6" mask="url(#path-1-inside-1)"/>
<path d="M270.855 97.8533L245.006 82.3193L229.497 108.208L237.066 112.755L244.79 99.8642C248.854 111.774 250.933 124.232 250.933 137C250.933 163.282 241.842 188.976 225.34 209.345L232.194 214.913C249.971 192.976 259.76 165.302 259.76 137C259.76 123.481 257.584 110.281 253.343 97.6412L266.314 105.433L270.855 97.8533Z" stroke="#574C45" stroke-width="6" mask="url(#path-1-inside-1)"/>
</svg>
