<svg width="18" height="17" viewBox="0 0 18 17" fill="none" xmlns="http://www.w3.org/2000/svg">
<path d="M16.3705 0.809901C16.5697 0.843104 16.7025 0.942713 16.8353 1.07553C16.9349 1.24154 17.0013 1.40756 17.0013 1.57357C17.0013 4.36264 16.3041 6.95248 14.9095 9.3431C13.515 11.6673 11.6888 13.5267 9.36463 14.888C6.974 16.2826 4.38416 16.9798 1.5951 16.9798C1.39588 16.9798 1.22986 16.9466 1.09705 16.8138C0.931033 16.7142 0.831423 16.5482 0.831423 16.349L0.0345485 12.8958C-0.0318578 12.7298 0.00134534 12.5638 0.100955 12.3646C0.167361 12.1986 0.300173 12.0658 0.499392 11.9994L4.21814 10.4056C4.35095 10.3392 4.51697 10.3392 4.71619 10.3724C4.8822 10.4056 5.01502 10.5052 5.14783 10.638L6.77478 12.6302C8.0697 12.0326 9.23181 11.2357 10.2279 10.2064C11.224 9.21029 12.0541 8.04818 12.6517 6.75326L10.6595 5.0931C10.5267 4.99349 10.4271 4.86068 10.3939 4.69467C10.3275 4.52865 10.3607 4.36264 10.4271 4.16342L12.0209 0.444666C12.0873 0.311854 12.1869 0.179041 12.3861 0.079432C12.5521 0.0130257 12.7181 -0.0201774 12.9174 0.0130257L16.3705 0.809901Z" fill="white"/>
</svg>
